<?xml version="1.0" encoding="UTF-8" standalone="no"?>
<!-- Created with Inkscape (http://www.inkscape.org/) -->

<svg
   width="36.195408mm"
   height="77.477219mm"
   viewBox="0 0 36.195408 77.477219"
   version="1.1"
   id="svg1"
   xml:space="preserve"
   inkscape:version="1.3.1 (91b66b0783, 2023-11-16)"
   sodipodi:docname="noelle.svg"
   inkscape:export-filename="noelle.png"
   inkscape:export-xdpi="96"
   inkscape:export-ydpi="96"
   xmlns:inkscape="http://www.inkscape.org/namespaces/inkscape"
   xmlns:sodipodi="http://sodipodi.sourceforge.net/DTD/sodipodi-0.dtd"
   xmlns="http://www.w3.org/2000/svg"
   xmlns:svg="http://www.w3.org/2000/svg"><sodipodi:namedview
     id="namedview1"
     pagecolor="#ffffff"
     bordercolor="#000000"
     borderopacity="0.25"
     inkscape:showpageshadow="2"
     inkscape:pageopacity="0.0"
     inkscape:pagecheckerboard="0"
     inkscape:deskcolor="#d1d1d1"
     inkscape:document-units="mm"
     inkscape:zoom="1.4805976"
     inkscape:cx="298.8658"
     inkscape:cy="619.00679"
     inkscape:window-width="1920"
     inkscape:window-height="1027"
     inkscape:window-x="892"
     inkscape:window-y="1102"
     inkscape:window-maximized="1"
     inkscape:current-layer="layer1" /><defs
     id="defs1" /><g
     inkscape:label="Layer 1"
     inkscape:groupmode="layer"
     id="layer1"
     transform="translate(-69.938036,-111.57414)"><path
       style="fill:#000000;stroke-width:1.53985"
       d="m 85.56597,188.93281 c -0.40677,-0.2181 -0.90111,-0.87796 -1.05206,-1.40434 -0.067,-0.23354 -0.0645,-0.75733 0.006,-1.25966 0.0664,-0.47294 0.15446,-1.35858 0.1957,-1.96807 0.0413,-0.6095 0.10856,-1.29505 0.14967,-1.52344 0.10287,-0.57233 -0.0285,-0.74487 -0.37988,-0.49875 -0.4893,0.34271 -0.64735,0.25694 -0.55322,-0.30026 0.0738,-0.43627 0.0123,-0.61443 -0.50567,-1.45363 -0.32433,-0.52603 -0.556719,-1.00975 -0.51644,-1.07491 0.0824,-0.13335 0.82943,-0.008 1.01969,0.17126 0.2514,0.23675 0.33246,0.1004 0.33246,-0.55895 0,-1.31623 -0.92097,-4.05273 -2.518091,-7.48206 -1.077849,-2.31435 -1.365001,-3.26165 -1.416894,-4.67426 -0.03973,-1.08141 -0.05297,-1.12511 -0.322992,-1.05832 -0.222821,0.0551 -0.458007,-0.12088 -1.127183,-0.8437 l -0.845613,-0.91334 -0.611082,0.26193 c -0.336095,0.14413 -0.63436,0.26195 -0.66281,0.26195 -0.02846,0 -0.17145,-0.23468 -0.317777,-0.5215 -0.146332,-0.28682 -0.308856,-0.52058 -0.361178,-0.51946 -0.05232,0.001 -0.447141,0.087 -0.877375,0.19091 -0.430234,0.10394 -0.965691,0.19098 -1.189904,0.19353 -0.364298,0.005 -0.435424,-0.0613 -0.668659,-0.61463 -0.143545,-0.3406 -0.331326,-0.83928 -0.417287,-1.10818 -0.178744,-0.55914 -0.171512,-0.55691 -0.934515,-0.28736 -0.551476,0.19483 -0.578244,0.19198 -0.803456,-0.0856 -0.209991,-0.2588 -0.280074,-0.27266 -0.710427,-0.14059 -0.262598,0.0805 -0.501081,0.12288 -0.52996,0.0941 -0.07582,-0.0758 0.341612,-1.30745 0.757662,-2.23548 0.196556,-0.43843 0.546538,-1.43579 0.777737,-2.21636 0.781533,-2.63858 1.35538,-4.06944 3.123777,-7.78905 l 0.796997,-1.67639 -0.07776,-1.32221 c -0.0906,-1.54044 0.03095,-1.84354 1.035902,-2.58307 0.929997,-0.68439 0.767563,-0.85104 -0.301475,-0.30931 l -0.632004,0.32026 -0.182545,-0.47962 -0.182544,-0.47963 -0.279289,0.4527 c -0.153616,0.24899 -0.409066,0.92205 -0.567682,1.4957 -0.158617,0.57364 -0.312012,1.12691 -0.340878,1.22948 -0.0322,0.11441 -0.228326,-0.0747 -0.507322,-0.4889 -0.25016,-0.37146 -0.514284,-0.6754 -0.58694,-0.6754 -0.07265,0 -0.364442,0.11857 -0.648407,0.26341 -0.637912,0.32543 -0.651446,0.21951 -0.116936,-0.91527 0.562506,-1.19422 1.12396,-1.72608 2.213791,-2.09712 0.710325,-0.24182 0.929323,-0.38002 1.045075,-0.65948 0.239279,-0.57765 0.575801,-0.80488 1.062611,-0.71744 0.397637,0.0714 0.445576,0.041 0.657085,-0.41835 0.125482,-0.27246 0.228153,-0.61902 0.228153,-0.77011 0,-0.15106 0.05872,-0.42917 0.130472,-0.61791 0.10026,-0.2637 0.190848,-0.32402 0.391122,-0.26045 0.335557,0.10656 0.328382,0.0316 -0.06055,-0.63205 -0.31295,-0.53402 -0.31641,-0.56857 -0.134814,-1.34703 0.102508,-0.43943 0.320383,-1.05393 0.48416,-1.36557 0.27984,-0.53248 0.295451,-0.69225 0.259165,-2.65259 -0.0302,-1.631 0.0012,-2.14038 0.144114,-2.33532 0.243138,-0.33178 0.547131,-0.20069 0.892641,0.3849 0.151783,0.25724 0.325263,0.41841 0.385522,0.35815 0.06025,-0.0602 0.228222,-0.68626 0.373252,-1.39112 l 0.263691,-1.28154 -0.325841,-0.38724 c -0.353732,-0.42039 -0.415446,-0.70676 -0.169946,-0.78859 0.106912,-0.0357 0.06307,-0.20215 -0.139541,-0.52998 -0.39111,-0.63283 -0.270469,-0.7945 0.522762,-0.70056 0.706391,0.0836 0.780704,-0.0249 0.45749,-0.66872 -0.09716,-0.19362 -0.279868,-0.7405 -0.40592,-1.21528 -0.223694,-0.8426 -0.222586,-0.89132 0.04635,-2.03693 0.333609,-1.42099 0.368317,-2.51036 0.08007,-2.51036 -0.107636,0 -0.195562,0.0881 -0.195562,0.19556 0,0.35689 -0.450786,0.20247 -0.842646,-0.28863 -0.321083,-0.40241 -0.38977,-0.61409 -0.406704,-1.25339 -0.01819,-0.68682 0.02236,-0.81788 0.378668,-1.22369 0.343937,-0.39172 0.458612,-0.44482 0.830415,-0.38449 0.391076,0.0635 0.43139,0.0397 0.43139,-0.25316 0,-0.61851 1.066469,-2.18999 2.180028,-3.21238 0.581177,-0.53357 1.232187,-1.04283 1.446707,-1.13168 0.21452,-0.0889 0.42243,-0.28547 0.46203,-0.4369 0.0671,-0.25648 0.0881,-0.26079 0.30679,-0.0628 0.12919,0.11688 0.7155,0.38972 1.30308,0.60636 1.07788,0.39744 1.87691,0.83596 2.56236,1.40629 0.23587,0.19627 0.46394,0.28193 0.61928,0.23262 0.20303,-0.0644 0.2459,-0.0108 0.2459,0.30666 0,0.25713 0.0759,0.40454 0.22876,0.44453 0.28829,0.0754 0.9823,1.064 1.00989,1.4386 0.0168,0.22812 0.1178,0.29042 0.53182,0.32833 0.33121,0.0303 0.58855,0.1466 0.7312,0.33041 0.27867,0.35904 0.55418,1.32561 0.43352,1.52086 -0.0504,0.0815 -0.10764,0.29405 -0.1272,0.4724 -0.0534,0.48671 -0.53577,0.93911 -0.92247,0.86518 -0.38742,-0.0741 -0.41413,0.10517 -0.0631,0.42286 0.14198,0.12842 0.38071,0.56286 0.53068,0.96541 0.44309,1.18945 1.05969,2.3616 1.24231,2.3616 0.0935,0 0.21148,0.0671 0.26223,0.14921 0.0639,0.10348 -0.0166,0.12843 -0.26248,0.0815 -0.28286,-0.0541 -0.3776,-0.008 -0.46764,0.22919 -0.062,0.16334 -0.17026,0.33243 -0.24035,0.37574 -0.0718,0.0444 -0.0611,-0.0968 0.0245,-0.3238 0.13258,-0.35136 0.1198,-0.42609 -0.10117,-0.58759 -0.37198,-0.272 -0.41323,-0.24405 -0.64091,0.43425 -0.19929,0.59371 -0.19724,0.62666 0.0497,0.79816 0.14167,0.0984 0.2576,0.32128 0.2576,0.49537 0,0.40208 0.32444,1.03551 0.61311,1.19707 0.18899,0.10579 0.19584,0.15578 0.046,0.33625 -0.15106,0.18193 -0.13165,0.26229 0.13613,0.56669 l 0.312,0.35471 -0.39777,-0.35853 c -0.21879,-0.19719 -0.46792,-0.35852 -0.55363,-0.35852 -0.18867,0 -0.20785,0.34359 -0.0254,0.4563 0.24636,0.1523 0.14736,0.4793 -0.1195,0.39461 -0.26964,-0.0856 -0.50325,0.14813 -0.31902,0.31925 0.0619,0.0574 0.57159,0.0651 1.1327,0.0169 0.56112,-0.048 1.04991,-0.0394 1.08621,0.0192 0.0363,0.0588 -0.2045,0.66286 -0.5351,1.34247 -0.60837,1.25056 -0.90907,2.58135 -0.75975,3.36242 0.036,0.18826 0.0303,0.43381 -0.0123,0.54566 -0.12118,0.31572 -0.5652,0.0108 -0.66835,-0.45867 -0.13289,-0.60504 -0.35265,-0.47371 -0.27086,0.16188 0.1558,1.21086 0.326,2.96602 0.40772,4.20456 l 0.0861,1.30373 -0.50729,0.58669 c -0.54757,0.63328 -0.95607,1.23294 -0.9516,1.39693 0.002,0.0564 0.23092,0.26372 0.50974,0.4609 0.41143,0.29098 0.64847,0.35854 1.25809,0.35854 0.48811,0 0.82759,-0.0691 0.96945,-0.19757 0.1961,-0.17747 0.25259,-0.17058 0.55557,0.0678 0.212818,0.16741 0.338608,0.39663 0.340938,0.62126 0.002,0.1958 0.0206,0.47332 0.0414,0.61673 0.0306,0.21128 -0.0303,0.25609 -0.320808,0.23621 -0.2939,-0.0202 -0.35853,0.0293 -0.35853,0.27403 0,0.24432 0.17185,0.37658 0.945208,0.72754 2.06531,0.93721 3.56563,1.74223 4.83773,2.59571 0.733252,0.49197 1.755632,1.10721 2.271962,1.36723 0.51631,0.26002 1.10058,0.6225 1.29836,0.80553 0.19844,0.18364 0.91131,0.51911 1.59068,0.74855 0.67708,0.22868 1.25168,0.48219 1.27689,0.56337 0.0505,0.16286 -0.67258,0.97114 -1.05653,1.18096 -0.22187,0.12118 -0.22789,0.17591 -0.0681,0.61783 0.16512,0.4566 0.15775,0.49808 -0.12642,0.71246 -0.27257,0.2056 -0.28918,0.27721 -0.17168,0.74001 0.0716,0.28181 0.16902,0.85089 0.21661,1.26461 l 0.0865,0.75225 -0.43342,0.17639 c -0.23838,0.097 -0.73979,0.24796 -1.11425,0.33547 -0.63188,0.14768 -0.68697,0.19178 -0.76612,0.61367 -0.047,0.25002 -0.0234,0.58191 0.0522,0.73752 0.0756,0.1556 0.17565,0.51354 0.22234,0.79541 0.0548,0.33099 0.12165,0.45303 0.18865,0.34461 0.0762,-0.12335 0.12827,-0.12812 0.19645,-0.0179 0.051,0.0825 0.0139,0.24473 -0.0815,0.36051 -0.22422,0.27097 -1.13156,0.68413 -1.51053,0.68784 -0.16133,0.002 -0.29334,0.0616 -0.29334,0.1332 0,0.0717 -0.0759,0.13042 -0.1686,0.13042 -0.0927,0 -0.22473,0.19067 -0.29334,0.42371 -0.11503,0.39055 -0.16273,0.42076 -0.60986,0.38596 -0.437362,-0.034 -0.493042,-0.002 -0.565662,0.32593 -0.40289,1.81939 -0.65733,2.05252 -2.14609,1.96634 l -1.04076,-0.0602 -0.3312,0.56513 c -0.35249,0.60151 -0.56949,0.67423 -1.10244,0.36958 -0.40985,-0.23429 -0.52149,-0.23979 -0.52149,-0.0257 0,0.26107 -0.976938,2.22099 -1.198668,2.40474 -0.15899,0.13181 -0.34249,0.11118 -0.96553,-0.10795 -0.42307,-0.1489 -1.02126,-0.34913 -1.32929,-0.44506 l -0.56008,-0.1744 -0.28736,0.44118 c -0.15804,0.24265 -0.37354,0.45818 -0.47886,0.47896 -0.15847,0.0312 -0.18551,0.31882 -0.15673,1.66642 0.0191,0.89578 -0.0559,2.5087 -0.16674,3.58428 -0.21348,2.07192 -0.25935,3.45492 -0.11456,3.45492 0.048,0 0.1926,-0.0952 0.32107,-0.21138 0.12843,-0.11626 0.31577,-0.17982 0.41624,-0.1412 0.19384,0.0744 0.13089,0.81165 -0.1588,1.86095 -0.11734,0.42502 -0.0973,0.55805 0.14212,0.94557 0.2702,0.43719 0.27131,0.45638 0.0363,0.62822 -0.13335,0.0975 -0.31921,0.17726 -0.41306,0.17726 -0.23675,0 -0.22331,1.08869 0.0236,1.9023 0.28162,0.92834 0.24399,1.70691 -0.12026,2.48935 -0.56548,1.21451 -1.58422,1.4055 -2.03564,0.38164 -0.20845,-0.47277 -0.22805,-0.79811 -0.16581,-2.75249 0.0388,-1.219 0.0656,-2.83238 0.0594,-3.58529 -0.006,-0.75291 -4e-4,-1.6036 0.0123,-1.89042 0.0656,-1.42699 -0.0208,-2.82196 -0.2218,-3.58529 -0.12273,-0.46608 -0.63841,-1.85264 -1.14588,-3.08123 -0.83319,-2.01714 -0.95219,-2.23212 -1.2268,-2.21637 -0.36251,0.0208 -0.36519,0.0605 -0.11796,1.74578 0.10256,0.69864 0.22376,2.38498 0.26939,3.74738 0.0993,2.96555 0.41631,5.03118 1.05461,6.87183 0.35201,1.01505 0.50787,1.7544 0.64013,3.0366 0.0961,0.93218 0.23577,1.95888 0.3102,2.28155 0.0744,0.32268 0.13859,0.88003 0.14244,1.23855 0.005,0.35852 0.0945,0.93986 0.20124,1.29187 0.26524,0.87435 0.24359,1.58748 -0.0678,2.23061 -0.47223,0.97548 -1.18812,1.38539 -1.82408,1.04441 z m 1.69486,-27.69432 c 0,-0.0641 -0.0928,-0.15198 -0.20623,-0.19556 -0.31893,-0.12242 -0.36106,-0.0958 -0.18489,0.11641 0.17987,0.21673 0.39112,0.25948 0.39112,0.0791 z m 4.50248,-37.56908 c 0.11226,-0.18173 -0.0468,-0.80437 -0.18399,-0.71963 -0.1446,0.0893 -0.15813,0.85742 -0.0154,0.85742 0.0627,0 0.15229,-0.0621 0.19911,-0.13782 z"
       id="path1" /></g></svg>
