M48
; DRILL file {KiCad 8.0.2} date 2024-06-10T12:56:52+0800
; FORMAT={-:-/ absolute / inch / decimal}
; #@! TF.CreationDate,2024-06-10T12:56:52+08:00
; #@! TF.GenerationSoftware,Kicad,Pcbnew,8.0.2
; #@! TF.FileFunction,Plated,1,2,PTH
FMAT,2
INCH
; #@! TA.AperFunction,Plated,PTH,ViaDrill
T1C0.0118
; #@! TA.AperFunction,Plated,PTH,ComponentDrill
T2C0.0374
; #@! TA.AperFunction,Plated,PTH,ComponentDrill
T3C0.0394
; #@! TA.AperFunction,Plated,PTH,ComponentDrill
T4C0.0402
; #@! TA.AperFunction,Plated,PTH,ComponentDrill
T5C0.0472
%
G90
G05
T1
X1.7008Y-1.5709
T2
X0.8152Y-1.0238
X0.8152Y-1.3682
X0.8152Y-1.7127
X0.8152Y-2.0572
X0.8152Y-2.4017
X0.8152Y-2.7462
X0.8152Y-3.0907
X0.8152Y-3.4352
X0.9136Y-1.0238
X0.9136Y-1.3682
X0.9136Y-1.7127
X0.9136Y-2.0572
X0.9136Y-2.4017
X0.9136Y-2.7462
X0.9136Y-3.0907
X0.9136Y-3.4352
X1.012Y-1.0238
X1.012Y-1.3682
X1.012Y-1.7127
X1.012Y-2.0572
X1.012Y-2.4017
X1.012Y-2.7462
X1.012Y-3.0907
X1.012Y-3.4352
X1.1105Y-1.0238
X1.1105Y-1.3682
X1.1105Y-1.7127
X1.1105Y-2.0572
X1.1105Y-2.4017
X1.1105Y-2.7462
X1.1105Y-3.0907
X1.1105Y-3.4352
X2.3628Y-0.9824
X2.3628Y-1.7127
X2.3628Y-2.0572
X2.3628Y-2.4017
X2.3628Y-2.7462
X2.3628Y-3.0906
X2.4612Y-0.9824
X2.4612Y-1.3682
X2.4612Y-1.7127
X2.4612Y-2.0572
X2.4612Y-2.4017
X2.4612Y-2.7462
X2.4612Y-3.0906
X2.5596Y-0.9824
X2.5596Y-1.3682
X2.5596Y-1.7127
X2.5596Y-2.0572
X2.5596Y-2.4017
X2.5596Y-2.7462
X2.5596Y-3.0906
X2.6581Y-0.9824
X2.6581Y-1.3682
X2.6581Y-1.7127
X2.6581Y-2.0572
X2.6581Y-2.4017
X2.6581Y-2.7462
X2.6581Y-3.0906
T3
X1.3441Y-3.5984
X1.4441Y-3.5984
X1.5441Y-3.5984
X1.6441Y-3.5984
X1.7441Y-3.5984
X1.8441Y-3.5984
T4
X1.3866Y-1.2591
X1.3866Y-1.3591
X1.3866Y-1.4591
X1.3866Y-1.5591
X1.3866Y-1.6591
X1.3866Y-1.7591
X1.3866Y-1.8591
X1.3866Y-1.9591
X1.3866Y-2.0591
X1.3866Y-2.1591
X1.3866Y-2.2591
X1.3866Y-2.3591
X1.3866Y-2.4591
X1.3866Y-2.5591
X1.3866Y-2.6591
X1.3866Y-2.7591
X1.3866Y-2.8591
X1.3866Y-2.9591
X1.3866Y-3.0591
X1.3866Y-3.1591
X1.6366Y-3.15
X1.7366Y-3.15
X1.8366Y-3.15
X2.0866Y-1.2591
X2.0866Y-1.3591
X2.0866Y-1.4591
X2.0866Y-1.5591
X2.0866Y-1.6591
X2.0866Y-1.7591
X2.0866Y-1.8591
X2.0866Y-1.9591
X2.0866Y-2.0591
X2.0866Y-2.1591
X2.0866Y-2.2591
X2.0866Y-2.3591
X2.0866Y-2.4591
X2.0866Y-2.5591
X2.0866Y-2.6591
X2.0866Y-2.7591
X2.0866Y-2.8591
X2.0866Y-2.9591
X2.0866Y-3.0591
X2.0866Y-3.1591
T5
G00X1.6972Y-1.2181
M15
G01X1.6972Y-1.2575
M16
G05
G00X1.7366Y-1.348
M15
G01X1.7366Y-1.3874
M16
G05
G00X1.776Y-1.2189
M15
G01X1.776Y-1.2583
M16
G05
M30
