%TF.GenerationSoftware,KiCad,Pcbnew,8.0.2*%
%TF.CreationDate,2024-06-10T12:56:44+08:00*%
%TF.ProjectId,pi_pico_shield,70695f70-6963-46f5-9f73-6869656c642e,rev?*%
%TF.SameCoordinates,Original*%
%TF.FileFunction,Copper,L1,Top*%
%TF.FilePolarity,Positive*%
%FSLAX46Y46*%
G04 Gerber Fmt 4.6, Leading zero omitted, Abs format (unit mm)*
G04 Created by KiCad (PCBNEW 8.0.2) date 2024-06-10 12:56:44*
%MOMM*%
%LPD*%
G01*
G04 APERTURE LIST*
G04 Aperture macros list*
%AMRoundRect*
0 Rectangle with rounded corners*
0 $1 Rounding radius*
0 $2 $3 $4 $5 $6 $7 $8 $9 X,Y pos of 4 corners*
0 Add a 4 corners polygon primitive as box body*
4,1,4,$2,$3,$4,$5,$6,$7,$8,$9,$2,$3,0*
0 Add four circle primitives for the rounded corners*
1,1,$1+$1,$2,$3*
1,1,$1+$1,$4,$5*
1,1,$1+$1,$6,$7*
1,1,$1+$1,$8,$9*
0 Add four rect primitives between the rounded corners*
20,1,$1+$1,$2,$3,$4,$5,0*
20,1,$1+$1,$4,$5,$6,$7,0*
20,1,$1+$1,$6,$7,$8,$9,0*
20,1,$1+$1,$8,$9,$2,$3,0*%
G04 Aperture macros list end*
%TA.AperFunction,ComponentPad*%
%ADD10RoundRect,0.250000X0.600000X0.725000X-0.600000X0.725000X-0.600000X-0.725000X0.600000X-0.725000X0*%
%TD*%
%TA.AperFunction,ComponentPad*%
%ADD11O,1.700000X1.950000*%
%TD*%
%TA.AperFunction,ComponentPad*%
%ADD12RoundRect,0.250000X-0.600000X-0.725000X0.600000X-0.725000X0.600000X0.725000X-0.600000X0.725000X0*%
%TD*%
%TA.AperFunction,ComponentPad*%
%ADD13R,1.700000X1.700000*%
%TD*%
%TA.AperFunction,ComponentPad*%
%ADD14O,1.700000X1.700000*%
%TD*%
%TA.AperFunction,SMDPad,CuDef*%
%ADD15R,3.500000X1.700000*%
%TD*%
%TA.AperFunction,SMDPad,CuDef*%
%ADD16R,1.700000X3.500000*%
%TD*%
%TA.AperFunction,ComponentPad*%
%ADD17RoundRect,0.300000X-0.450000X-0.950000X0.450000X-0.950000X0.450000X0.950000X-0.450000X0.950000X0*%
%TD*%
%TA.AperFunction,ViaPad*%
%ADD18C,0.600000*%
%TD*%
%TA.AperFunction,Conductor*%
%ADD19C,0.500000*%
%TD*%
G04 APERTURE END LIST*
D10*
%TO.P,BT-7,1,Pin_1*%
%TO.N,BT-7_LED*%
X67514500Y-78502300D03*
D11*
%TO.P,BT-7,2,Pin_2*%
%TO.N,BT-7_SW*%
X65014500Y-78502300D03*
%TO.P,BT-7,3,Pin_3*%
%TO.N,GND*%
X62514500Y-78502300D03*
%TO.P,BT-7,4,Pin_4*%
X60014500Y-78502300D03*
%TD*%
D12*
%TO.P,USB1,1,Pin_1*%
%TO.N,+5V*%
X60014500Y-24952000D03*
D11*
%TO.P,USB1,2,Pin_2*%
%TO.N,D-*%
X62514500Y-24952000D03*
%TO.P,USB1,3,Pin_3*%
%TO.N,D+*%
X65014500Y-24952000D03*
%TO.P,USB1,4,Pin_4*%
%TO.N,U_GND*%
X67514500Y-24952000D03*
%TD*%
D10*
%TO.P,LED1,1,Pin_1*%
%TO.N,GND*%
X67514500Y-34752310D03*
D11*
%TO.P,LED1,2,Pin_2*%
%TO.N,LED-WS2812B*%
X65014500Y-34752310D03*
%TO.P,LED1,3,Pin_3*%
%TO.N,+5V*%
X62514500Y-34752310D03*
%TD*%
D10*
%TO.P,BT-9,1,Pin_1*%
%TO.N,BT-9_LED*%
X67514500Y-61002300D03*
D11*
%TO.P,BT-9,2,Pin_2*%
%TO.N,BT-9_SW*%
X65014500Y-61002300D03*
%TO.P,BT-9,3,Pin_3*%
%TO.N,GND*%
X62514500Y-61002300D03*
%TO.P,BT-9,4,Pin_4*%
X60014500Y-61002300D03*
%TD*%
D13*
%TO.P,DEBUG,1,Pin_1*%
%TO.N,+5V*%
X46840000Y-91400000D03*
D14*
%TO.P,DEBUG,2,Pin_2*%
%TO.N,GND*%
X44300000Y-91400000D03*
%TO.P,DEBUG,3,Pin_3*%
%TO.N,SWDIO*%
X41760000Y-91400000D03*
%TO.P,DEBUG,4,Pin_4*%
%TO.N,SWCLK*%
X39220000Y-91400000D03*
%TO.P,DEBUG,5,Pin_5*%
%TO.N,AXIS-X_A*%
X36680000Y-91400000D03*
%TO.P,DEBUG,6,Pin_6*%
%TO.N,AXIS-X_B*%
X34140000Y-91400000D03*
%TD*%
D10*
%TO.P,BT-5,1,Pin_1*%
%TO.N,BT-5_LED*%
X28205500Y-78503250D03*
D11*
%TO.P,BT-5,2,Pin_2*%
%TO.N,BT-5_SW*%
X25705500Y-78503250D03*
%TO.P,BT-5,3,Pin_3*%
%TO.N,GND*%
X23205500Y-78503250D03*
%TO.P,BT-5,4,Pin_4*%
X20705500Y-78503250D03*
%TD*%
D10*
%TO.P,BT-1,1,Pin_1*%
%TO.N,BT-1_LED*%
X28205500Y-43503350D03*
D11*
%TO.P,BT-1,2,Pin_2*%
%TO.N,BT-1_SW*%
X25705500Y-43503350D03*
%TO.P,BT-1,3,Pin_3*%
%TO.N,GND*%
X23205500Y-43503350D03*
%TO.P,BT-1,4,Pin_4*%
X20705500Y-43503350D03*
%TD*%
D10*
%TO.P,BT-10,1,Pin_1*%
%TO.N,BT-10_LED*%
X67514500Y-52252300D03*
D11*
%TO.P,BT-10,2,Pin_2*%
%TO.N,BT-10_SW*%
X65014500Y-52252300D03*
%TO.P,BT-10,3,Pin_3*%
%TO.N,GND*%
X62514500Y-52252300D03*
%TO.P,BT-10,4,Pin_4*%
X60014500Y-52252300D03*
%TD*%
D10*
%TO.P,AXIS-X,1,Pin_1*%
%TO.N,AXIS-X_A*%
X28205500Y-26003300D03*
D11*
%TO.P,AXIS-X,2,Pin_2*%
%TO.N,AXIS-X_B*%
X25705500Y-26003300D03*
%TO.P,AXIS-X,3,Pin_3*%
%TO.N,GND*%
X23205500Y-26003300D03*
%TO.P,AXIS-X,4,Pin_4*%
%TO.N,+5V*%
X20705500Y-26003300D03*
%TD*%
D10*
%TO.P,BT-4,1,Pin_1*%
%TO.N,BT-4_LED*%
X28205500Y-69753250D03*
D11*
%TO.P,BT-4,2,Pin_2*%
%TO.N,BT-4_SW*%
X25705500Y-69753250D03*
%TO.P,BT-4,3,Pin_3*%
%TO.N,GND*%
X23205500Y-69753250D03*
%TO.P,BT-4,4,Pin_4*%
X20705500Y-69753250D03*
%TD*%
D10*
%TO.P,BT-6,1,Pin_1*%
%TO.N,BT-6_LED*%
X28205500Y-87253350D03*
D11*
%TO.P,BT-6,2,Pin_2*%
%TO.N,BT-6_SW*%
X25705500Y-87253350D03*
%TO.P,BT-6,3,Pin_3*%
%TO.N,GND*%
X23205500Y-87253350D03*
%TO.P,BT-6,4,Pin_4*%
X20705500Y-87253350D03*
%TD*%
D10*
%TO.P,AXIS-Y,1,Pin_1*%
%TO.N,AXIS-Y_A*%
X28205500Y-34753300D03*
D11*
%TO.P,AXIS-Y,2,Pin_2*%
%TO.N,AXIS-Y_B*%
X25705500Y-34753300D03*
%TO.P,AXIS-Y,3,Pin_3*%
%TO.N,GND*%
X23205500Y-34753300D03*
%TO.P,AXIS-Y,4,Pin_4*%
%TO.N,+5V*%
X20705500Y-34753300D03*
%TD*%
D10*
%TO.P,BT-2,1,Pin_1*%
%TO.N,BT-2_LED*%
X28205500Y-52253120D03*
D11*
%TO.P,BT-2,2,Pin_2*%
%TO.N,BT-2_SW*%
X25705500Y-52253120D03*
%TO.P,BT-2,3,Pin_3*%
%TO.N,GND*%
X23205500Y-52253120D03*
%TO.P,BT-2,4,Pin_4*%
X20705500Y-52253120D03*
%TD*%
D14*
%TO.P,U1,1,GPIO0*%
%TO.N,AXIS-X_A*%
X35220000Y-31980000D03*
D15*
X34320000Y-31980000D03*
D14*
%TO.P,U1,2,GPIO1*%
%TO.N,AXIS-X_B*%
X35220000Y-34520000D03*
D15*
X34320000Y-34520000D03*
D13*
%TO.P,U1,3,GND*%
%TO.N,GND*%
X35220000Y-37060000D03*
D15*
X34320000Y-37060000D03*
D14*
%TO.P,U1,4,GPIO2*%
%TO.N,AXIS-Y_A*%
X35220000Y-39600000D03*
D15*
X34320000Y-39600000D03*
D14*
%TO.P,U1,5,GPIO3*%
%TO.N,AXIS-Y_B*%
X35220000Y-42140000D03*
D15*
X34320000Y-42140000D03*
D14*
%TO.P,U1,6,GPIO4*%
%TO.N,BT-1_SW*%
X35220000Y-44680000D03*
D15*
X34320000Y-44680000D03*
D14*
%TO.P,U1,7,GPIO5*%
%TO.N,BT-1_LED*%
X35220000Y-47220000D03*
D15*
X34320000Y-47220000D03*
D13*
%TO.P,U1,8,GND*%
%TO.N,unconnected-(U1-GND-Pad8)*%
X35220000Y-49760000D03*
D15*
X34320000Y-49760000D03*
D14*
%TO.P,U1,9,GPIO6*%
%TO.N,BT-2_SW*%
X35220000Y-52300000D03*
D15*
X34320000Y-52300000D03*
D14*
%TO.P,U1,10,GPIO7*%
%TO.N,BT-2_LED*%
X35220000Y-54840000D03*
D15*
X34320000Y-54840000D03*
D14*
%TO.P,U1,11,GPIO8*%
%TO.N,BT-3_SW*%
X35220000Y-57380000D03*
D15*
X34320000Y-57380000D03*
D14*
%TO.P,U1,12,GPIO9*%
%TO.N,BT-3_LED*%
X35220000Y-59920000D03*
D15*
X34320000Y-59920000D03*
D13*
%TO.P,U1,13,GND*%
%TO.N,unconnected-(U1-GND-Pad13)*%
X35220000Y-62460000D03*
D15*
X34320000Y-62460000D03*
D14*
%TO.P,U1,14,GPIO10*%
%TO.N,BT-4_SW*%
X35220000Y-65000000D03*
D15*
X34320000Y-65000000D03*
D14*
%TO.P,U1,15,GPIO11*%
%TO.N,BT-4_LED*%
X35220000Y-67540000D03*
D15*
X34320000Y-67540000D03*
D14*
%TO.P,U1,16,GPIO12*%
%TO.N,BT-5_SW*%
X35220000Y-70080000D03*
D15*
X34320000Y-70080000D03*
D14*
%TO.P,U1,17,GPIO13*%
%TO.N,BT-5_LED*%
X35220000Y-72620000D03*
D15*
X34320000Y-72620000D03*
D13*
%TO.P,U1,18,GND*%
%TO.N,unconnected-(U1-GND-Pad18)*%
X35220000Y-75160000D03*
D15*
X34320000Y-75160000D03*
D14*
%TO.P,U1,19,GPIO14*%
%TO.N,BT-6_SW*%
X35220000Y-77700000D03*
D15*
X34320000Y-77700000D03*
D14*
%TO.P,U1,20,GPIO15*%
%TO.N,BT-6_LED*%
X35220000Y-80240000D03*
D15*
X34320000Y-80240000D03*
D14*
%TO.P,U1,21,GPIO16*%
%TO.N,BT-7_SW*%
X53000000Y-80240000D03*
D15*
X53900000Y-80240000D03*
D14*
%TO.P,U1,22,GPIO17*%
%TO.N,BT-7_LED*%
X53000000Y-77700000D03*
D15*
X53900000Y-77700000D03*
D13*
%TO.P,U1,23,GND*%
%TO.N,unconnected-(U1-GND-Pad23)*%
X53000000Y-75160000D03*
D15*
X53900000Y-75160000D03*
D14*
%TO.P,U1,24,GPIO18*%
%TO.N,BT-8_SW*%
X53000000Y-72620000D03*
D15*
X53900000Y-72620000D03*
D14*
%TO.P,U1,25,GPIO19*%
%TO.N,BT-8_LED*%
X53000000Y-70080000D03*
D15*
X53900000Y-70080000D03*
D14*
%TO.P,U1,26,GPIO20*%
%TO.N,BT-9_SW*%
X53000000Y-67540000D03*
D15*
X53900000Y-67540000D03*
D14*
%TO.P,U1,27,GPIO21*%
%TO.N,BT-9_LED*%
X53000000Y-65000000D03*
D15*
X53900000Y-65000000D03*
D13*
%TO.P,U1,28,GND*%
%TO.N,unconnected-(U1-GND-Pad28)*%
X53000000Y-62460000D03*
D15*
X53900000Y-62460000D03*
D14*
%TO.P,U1,29,GPIO22*%
%TO.N,BT-10_SW*%
X53000000Y-59920000D03*
D15*
X53900000Y-59920000D03*
D14*
%TO.P,U1,30,RUN*%
%TO.N,unconnected-(U1-RUN-Pad30)*%
X53000000Y-57380000D03*
D15*
X53900000Y-57380000D03*
D14*
%TO.P,U1,31,GPIO26_ADC0*%
%TO.N,BT-10_LED*%
X53000000Y-54840000D03*
D15*
X53900000Y-54840000D03*
D14*
%TO.P,U1,32,GPIO27_ADC1*%
%TO.N,BT-11_SW*%
X53000000Y-52300000D03*
D15*
X53900000Y-52300000D03*
D13*
%TO.P,U1,33,AGND*%
%TO.N,unconnected-(U1-AGND-Pad33)*%
X53000000Y-49760000D03*
D15*
X53900000Y-49760000D03*
D14*
%TO.P,U1,34,GPIO28_ADC2*%
%TO.N,LED-WS2812B*%
X53000000Y-47220000D03*
D15*
X53900000Y-47220000D03*
D14*
%TO.P,U1,35,ADC_VREF*%
%TO.N,unconnected-(U1-ADC_VREF-Pad35)*%
X53000000Y-44680000D03*
D15*
X53900000Y-44680000D03*
D14*
%TO.P,U1,36,3V3*%
%TO.N,unconnected-(U1-3V3-Pad36)*%
X53000000Y-42140000D03*
D15*
X53900000Y-42140000D03*
D14*
%TO.P,U1,37,3V3_EN*%
%TO.N,unconnected-(U1-3V3_EN-Pad37)*%
X53000000Y-39600000D03*
D15*
X53900000Y-39600000D03*
D13*
%TO.P,U1,38,GND*%
%TO.N,GND*%
X53000000Y-37060000D03*
D15*
X53900000Y-37060000D03*
D14*
%TO.P,U1,39,VSYS*%
%TO.N,unconnected-(U1-VSYS-Pad39)*%
X53000000Y-34520000D03*
D15*
X53900000Y-34520000D03*
D14*
%TO.P,U1,40,VBUS*%
%TO.N,+5V*%
X53000000Y-31980000D03*
D15*
X53900000Y-31980000D03*
D14*
%TO.P,U1,41,SWCLK*%
%TO.N,SWCLK*%
X41570000Y-80010000D03*
D16*
X41570000Y-80910000D03*
D13*
%TO.P,U1,42,GND*%
%TO.N,GND*%
X44110000Y-80010000D03*
D16*
X44110000Y-80910000D03*
D14*
%TO.P,U1,43,SWDIO*%
%TO.N,SWDIO*%
X46650000Y-80010000D03*
D16*
X46650000Y-80910000D03*
D17*
%TO.P,U1,TP1,TP1*%
%TO.N,U_GND*%
X44110000Y-34740000D03*
%TO.P,U1,TP2,TP2*%
%TO.N,D-*%
X45110000Y-31460000D03*
%TO.P,U1,TP3,TP3*%
%TO.N,D+*%
X43110000Y-31440000D03*
%TD*%
D10*
%TO.P,BT-3,1,Pin_1*%
%TO.N,BT-3_LED*%
X28205500Y-61003350D03*
D11*
%TO.P,BT-3,2,Pin_2*%
%TO.N,BT-3_SW*%
X25705500Y-61003350D03*
%TO.P,BT-3,3,Pin_3*%
%TO.N,GND*%
X23205500Y-61003350D03*
%TO.P,BT-3,4,Pin_4*%
X20705500Y-61003350D03*
%TD*%
D10*
%TO.P,BT-8,1,Pin_1*%
%TO.N,BT-8_LED*%
X67514500Y-69752300D03*
D11*
%TO.P,BT-8,2,Pin_2*%
%TO.N,BT-8_SW*%
X65014500Y-69752300D03*
%TO.P,BT-8,3,Pin_3*%
%TO.N,GND*%
X62514500Y-69752300D03*
%TO.P,BT-8,4,Pin_4*%
X60014500Y-69752300D03*
%TD*%
D10*
%TO.P,BT-11,1,Pin_1*%
%TO.N,unconnected-(J11-Pin_1-Pad1)*%
X67514500Y-43502300D03*
D11*
%TO.P,BT-11,2,Pin_2*%
%TO.N,BT-11_SW*%
X65014500Y-43502300D03*
%TO.P,BT-11,3,Pin_3*%
%TO.N,GND*%
X62514500Y-43502300D03*
%TO.P,BT-11,4,Pin_4*%
X60014500Y-43502300D03*
%TD*%
D18*
%TO.N,GND*%
X43200000Y-39900000D03*
%TD*%
D19*
%TO.N,BT-1_SW*%
X32270000Y-44680000D02*
X29150000Y-41560000D01*
X29150000Y-41560000D02*
X26340000Y-41560000D01*
X25705500Y-42194500D02*
X25705500Y-43503350D01*
X35220000Y-44680000D02*
X32270000Y-44680000D01*
X26340000Y-41560000D02*
X25705500Y-42194500D01*
%TO.N,BT-1_LED*%
X29353350Y-43503350D02*
X28205500Y-43503350D01*
X33070000Y-47220000D02*
X29353350Y-43503350D01*
X35220000Y-47220000D02*
X33070000Y-47220000D01*
%TO.N,BT-2_SW*%
X30410000Y-50370000D02*
X26080000Y-50370000D01*
X26080000Y-50370000D02*
X25705500Y-50744500D01*
X35220000Y-52300000D02*
X32340000Y-52300000D01*
X35173120Y-52253120D02*
X35220000Y-52300000D01*
X32340000Y-52300000D02*
X30410000Y-50370000D01*
X25705500Y-50744500D02*
X25705500Y-52253120D01*
%TO.N,BT-2_LED*%
X32950000Y-54840000D02*
X30363120Y-52253120D01*
X35220000Y-54840000D02*
X32950000Y-54840000D01*
X30363120Y-52253120D02*
X28205500Y-52253120D01*
%TO.N,BT-3_LED*%
X29416650Y-61003350D02*
X28205500Y-61003350D01*
X30500000Y-59920000D02*
X29416650Y-61003350D01*
X35220000Y-59920000D02*
X30500000Y-59920000D01*
%TO.N,BT-3_SW*%
X31660000Y-59080000D02*
X26600000Y-59080000D01*
X26600000Y-59080000D02*
X25705500Y-59974500D01*
X25705500Y-59974500D02*
X25705500Y-61003350D01*
X35220000Y-57380000D02*
X33360000Y-57380000D01*
X33360000Y-57380000D02*
X31660000Y-59080000D01*
%TO.N,BT-4_SW*%
X27730000Y-66570000D02*
X25705500Y-68594500D01*
X25705500Y-68594500D02*
X25705500Y-69753250D01*
X33360000Y-65000000D02*
X31790000Y-66570000D01*
X35220000Y-65000000D02*
X33360000Y-65000000D01*
X31790000Y-66570000D02*
X27730000Y-66570000D01*
%TO.N,BT-4_LED*%
X28205500Y-69753250D02*
X28205500Y-67885500D01*
X28205500Y-67885500D02*
X28681000Y-67410000D01*
X35090000Y-67410000D02*
X35220000Y-67540000D01*
X28681000Y-67410000D02*
X35090000Y-67410000D01*
%TO.N,BT-5_SW*%
X25705500Y-77278250D02*
X32903750Y-70080000D01*
X25705500Y-78503250D02*
X25705500Y-77278250D01*
X32903750Y-70080000D02*
X35220000Y-70080000D01*
%TO.N,BT-5_LED*%
X31520000Y-72620000D02*
X28205500Y-75934500D01*
X35220000Y-72620000D02*
X31520000Y-72620000D01*
X28205500Y-75934500D02*
X28205500Y-78503250D01*
%TO.N,BT-6_LED*%
X26630000Y-84610000D02*
X31000000Y-80240000D01*
X31000000Y-80240000D02*
X35220000Y-80240000D01*
X26630000Y-85677850D02*
X26630000Y-84610000D01*
X28205500Y-87253350D02*
X26630000Y-85677850D01*
%TO.N,BT-6_SW*%
X25705500Y-87253350D02*
X25705500Y-84434500D01*
X32440000Y-77700000D02*
X35220000Y-77700000D01*
X25705500Y-84434500D02*
X32440000Y-77700000D01*
%TO.N,+5V*%
X62514500Y-34752310D02*
X62514500Y-29814500D01*
X60014500Y-27314500D02*
X60014500Y-24952000D01*
X23000000Y-22500000D02*
X20705500Y-24794500D01*
X46840000Y-91400000D02*
X46840000Y-86910000D01*
X51500000Y-33480000D02*
X53000000Y-31980000D01*
X62514500Y-29814500D02*
X60014500Y-27314500D01*
X51500000Y-82250000D02*
X51500000Y-33480000D01*
X20705500Y-24794500D02*
X20705500Y-26003300D01*
X43520000Y-22500000D02*
X23000000Y-22500000D01*
X46840000Y-86910000D02*
X51500000Y-82250000D01*
X53000000Y-31980000D02*
X43520000Y-22500000D01*
%TO.N,BT-7_SW*%
X53110000Y-80350000D02*
X53000000Y-80240000D01*
X65014500Y-78502300D02*
X63166800Y-80350000D01*
X63166800Y-80350000D02*
X53110000Y-80350000D01*
%TO.N,BT-7_LED*%
X57070000Y-77700000D02*
X58390000Y-76380000D01*
X53000000Y-77700000D02*
X57070000Y-77700000D01*
X67514500Y-77084500D02*
X67514500Y-78502300D01*
X66810000Y-76380000D02*
X67514500Y-77084500D01*
X58390000Y-76380000D02*
X66810000Y-76380000D01*
%TO.N,BT-8_LED*%
X58610000Y-67540000D02*
X65302200Y-67540000D01*
X65302200Y-67540000D02*
X67514500Y-69752300D01*
X53000000Y-70080000D02*
X56070000Y-70080000D01*
X56070000Y-70080000D02*
X58610000Y-67540000D01*
%TO.N,BT-8_SW*%
X53000000Y-72620000D02*
X62146800Y-72620000D01*
X62146800Y-72620000D02*
X65014500Y-69752300D01*
%TO.N,BT-9_LED*%
X57450000Y-62310000D02*
X57450000Y-61250000D01*
X53000000Y-65000000D02*
X54760000Y-65000000D01*
X66360000Y-58660000D02*
X67514500Y-59814500D01*
X54760000Y-65000000D02*
X57450000Y-62310000D01*
X60040000Y-58660000D02*
X66360000Y-58660000D01*
X57450000Y-61250000D02*
X60040000Y-58660000D01*
X67514500Y-59814500D02*
X67514500Y-61002300D01*
%TO.N,BT-9_SW*%
X53000000Y-67540000D02*
X55710000Y-67540000D01*
X60200000Y-63050000D02*
X62966800Y-63050000D01*
X62966800Y-63050000D02*
X65014500Y-61002300D01*
X55710000Y-67540000D02*
X60200000Y-63050000D01*
%TO.N,BT-10_SW*%
X60350000Y-54430000D02*
X64300000Y-54430000D01*
X54860000Y-59920000D02*
X60350000Y-54430000D01*
X53000000Y-59920000D02*
X54860000Y-59920000D01*
X64300000Y-54430000D02*
X65014500Y-53715500D01*
X65014500Y-53715500D02*
X65014500Y-52252300D01*
%TO.N,BT-10_LED*%
X66520000Y-49480000D02*
X67514500Y-50474500D01*
X60220000Y-49480000D02*
X66520000Y-49480000D01*
X54860000Y-54840000D02*
X60220000Y-49480000D01*
X67514500Y-50474500D02*
X67514500Y-52252300D01*
X53000000Y-54840000D02*
X54860000Y-54840000D01*
%TO.N,BT-11_SW*%
X54860000Y-52300000D02*
X61450000Y-45710000D01*
X53000000Y-52300000D02*
X54860000Y-52300000D01*
X62806800Y-45710000D02*
X65014500Y-43502300D01*
X61450000Y-45710000D02*
X62806800Y-45710000D01*
%TO.N,AXIS-X_A*%
X28205500Y-26003300D02*
X28205500Y-29203300D01*
X28205500Y-29203300D02*
X30982200Y-31980000D01*
X30982200Y-31980000D02*
X35220000Y-31980000D01*
%TO.N,AXIS-X_B*%
X35220000Y-34520000D02*
X31672200Y-34520000D01*
X31672200Y-34520000D02*
X25705500Y-28553300D01*
X25705500Y-28553300D02*
X25705500Y-26003300D01*
%TO.N,AXIS-Y_A*%
X30822200Y-39600000D02*
X35220000Y-39600000D01*
X28205500Y-36983300D02*
X30822200Y-39600000D01*
X28205500Y-34753300D02*
X28205500Y-36983300D01*
%TO.N,AXIS-Y_B*%
X25705500Y-34753300D02*
X25705500Y-36803300D01*
X31042200Y-42140000D02*
X35220000Y-42140000D01*
X25705500Y-36803300D02*
X31042200Y-42140000D01*
%TO.N,GND*%
X44300000Y-84300000D02*
X44110000Y-84110000D01*
X44110000Y-84110000D02*
X44110000Y-80010000D01*
X43200000Y-39900000D02*
X44110000Y-40810000D01*
X40360000Y-37060000D02*
X35220000Y-37060000D01*
X44110000Y-40810000D02*
X44110000Y-80010000D01*
X44250000Y-80150000D02*
X44110000Y-80010000D01*
X43200000Y-39900000D02*
X40360000Y-37060000D01*
X44300000Y-91400000D02*
X44300000Y-84300000D01*
%TO.N,LED-WS2812B*%
X54860000Y-47220000D02*
X57095500Y-44984500D01*
X57095500Y-41853300D02*
X60765500Y-38183300D01*
X53000000Y-47220000D02*
X54860000Y-47220000D01*
X60765500Y-38183300D02*
X61583510Y-38183300D01*
X61583510Y-38183300D02*
X65014500Y-34752310D01*
X57095500Y-44984500D02*
X57095500Y-41853300D01*
%TD*%
M02*
