%TF.GenerationSoftware,KiCad,Pcbnew,8.0.2*%
%TF.CreationDate,2024-06-10T12:56:44+08:00*%
%TF.ProjectId,pi_pico_shield,70695f70-6963-46f5-9f73-6869656c642e,rev?*%
%TF.SameCoordinates,Original*%
%TF.FileFunction,Copper,L2,Bot*%
%TF.FilePolarity,Positive*%
%FSLAX46Y46*%
G04 Gerber Fmt 4.6, Leading zero omitted, Abs format (unit mm)*
G04 Created by KiCad (PCBNEW 8.0.2) date 2024-06-10 12:56:44*
%MOMM*%
%LPD*%
G01*
G04 APERTURE LIST*
G04 Aperture macros list*
%AMRoundRect*
0 Rectangle with rounded corners*
0 $1 Rounding radius*
0 $2 $3 $4 $5 $6 $7 $8 $9 X,Y pos of 4 corners*
0 Add a 4 corners polygon primitive as box body*
4,1,4,$2,$3,$4,$5,$6,$7,$8,$9,$2,$3,0*
0 Add four circle primitives for the rounded corners*
1,1,$1+$1,$2,$3*
1,1,$1+$1,$4,$5*
1,1,$1+$1,$6,$7*
1,1,$1+$1,$8,$9*
0 Add four rect primitives between the rounded corners*
20,1,$1+$1,$2,$3,$4,$5,0*
20,1,$1+$1,$4,$5,$6,$7,0*
20,1,$1+$1,$6,$7,$8,$9,0*
20,1,$1+$1,$8,$9,$2,$3,0*%
G04 Aperture macros list end*
%TA.AperFunction,ComponentPad*%
%ADD10RoundRect,0.250000X0.600000X0.725000X-0.600000X0.725000X-0.600000X-0.725000X0.600000X-0.725000X0*%
%TD*%
%TA.AperFunction,ComponentPad*%
%ADD11O,1.700000X1.950000*%
%TD*%
%TA.AperFunction,ComponentPad*%
%ADD12RoundRect,0.250000X-0.600000X-0.725000X0.600000X-0.725000X0.600000X0.725000X-0.600000X0.725000X0*%
%TD*%
%TA.AperFunction,ComponentPad*%
%ADD13R,1.700000X1.700000*%
%TD*%
%TA.AperFunction,ComponentPad*%
%ADD14O,1.700000X1.700000*%
%TD*%
%TA.AperFunction,ComponentPad*%
%ADD15RoundRect,0.300000X-0.450000X-0.950000X0.450000X-0.950000X0.450000X0.950000X-0.450000X0.950000X0*%
%TD*%
%TA.AperFunction,ViaPad*%
%ADD16C,0.600000*%
%TD*%
%TA.AperFunction,Conductor*%
%ADD17C,0.500000*%
%TD*%
G04 APERTURE END LIST*
D10*
%TO.P,BT-7,1,Pin_1*%
%TO.N,BT-7_LED*%
X67514500Y-78502300D03*
D11*
%TO.P,BT-7,2,Pin_2*%
%TO.N,BT-7_SW*%
X65014500Y-78502300D03*
%TO.P,BT-7,3,Pin_3*%
%TO.N,GND*%
X62514500Y-78502300D03*
%TO.P,BT-7,4,Pin_4*%
X60014500Y-78502300D03*
%TD*%
D12*
%TO.P,USB1,1,Pin_1*%
%TO.N,+5V*%
X60014500Y-24952000D03*
D11*
%TO.P,USB1,2,Pin_2*%
%TO.N,D-*%
X62514500Y-24952000D03*
%TO.P,USB1,3,Pin_3*%
%TO.N,D+*%
X65014500Y-24952000D03*
%TO.P,USB1,4,Pin_4*%
%TO.N,U_GND*%
X67514500Y-24952000D03*
%TD*%
D10*
%TO.P,LED1,1,Pin_1*%
%TO.N,GND*%
X67514500Y-34752310D03*
D11*
%TO.P,LED1,2,Pin_2*%
%TO.N,LED-WS2812B*%
X65014500Y-34752310D03*
%TO.P,LED1,3,Pin_3*%
%TO.N,+5V*%
X62514500Y-34752310D03*
%TD*%
D10*
%TO.P,BT-9,1,Pin_1*%
%TO.N,BT-9_LED*%
X67514500Y-61002300D03*
D11*
%TO.P,BT-9,2,Pin_2*%
%TO.N,BT-9_SW*%
X65014500Y-61002300D03*
%TO.P,BT-9,3,Pin_3*%
%TO.N,GND*%
X62514500Y-61002300D03*
%TO.P,BT-9,4,Pin_4*%
X60014500Y-61002300D03*
%TD*%
D13*
%TO.P,DEBUG,1,Pin_1*%
%TO.N,+5V*%
X46840000Y-91400000D03*
D14*
%TO.P,DEBUG,2,Pin_2*%
%TO.N,GND*%
X44300000Y-91400000D03*
%TO.P,DEBUG,3,Pin_3*%
%TO.N,SWDIO*%
X41760000Y-91400000D03*
%TO.P,DEBUG,4,Pin_4*%
%TO.N,SWCLK*%
X39220000Y-91400000D03*
%TO.P,DEBUG,5,Pin_5*%
%TO.N,AXIS-X_A*%
X36680000Y-91400000D03*
%TO.P,DEBUG,6,Pin_6*%
%TO.N,AXIS-X_B*%
X34140000Y-91400000D03*
%TD*%
D10*
%TO.P,BT-5,1,Pin_1*%
%TO.N,BT-5_LED*%
X28205500Y-78503250D03*
D11*
%TO.P,BT-5,2,Pin_2*%
%TO.N,BT-5_SW*%
X25705500Y-78503250D03*
%TO.P,BT-5,3,Pin_3*%
%TO.N,GND*%
X23205500Y-78503250D03*
%TO.P,BT-5,4,Pin_4*%
X20705500Y-78503250D03*
%TD*%
D10*
%TO.P,BT-1,1,Pin_1*%
%TO.N,BT-1_LED*%
X28205500Y-43503350D03*
D11*
%TO.P,BT-1,2,Pin_2*%
%TO.N,BT-1_SW*%
X25705500Y-43503350D03*
%TO.P,BT-1,3,Pin_3*%
%TO.N,GND*%
X23205500Y-43503350D03*
%TO.P,BT-1,4,Pin_4*%
X20705500Y-43503350D03*
%TD*%
D10*
%TO.P,BT-10,1,Pin_1*%
%TO.N,BT-10_LED*%
X67514500Y-52252300D03*
D11*
%TO.P,BT-10,2,Pin_2*%
%TO.N,BT-10_SW*%
X65014500Y-52252300D03*
%TO.P,BT-10,3,Pin_3*%
%TO.N,GND*%
X62514500Y-52252300D03*
%TO.P,BT-10,4,Pin_4*%
X60014500Y-52252300D03*
%TD*%
D10*
%TO.P,AXIS-X,1,Pin_1*%
%TO.N,AXIS-X_A*%
X28205500Y-26003300D03*
D11*
%TO.P,AXIS-X,2,Pin_2*%
%TO.N,AXIS-X_B*%
X25705500Y-26003300D03*
%TO.P,AXIS-X,3,Pin_3*%
%TO.N,GND*%
X23205500Y-26003300D03*
%TO.P,AXIS-X,4,Pin_4*%
%TO.N,+5V*%
X20705500Y-26003300D03*
%TD*%
D10*
%TO.P,BT-4,1,Pin_1*%
%TO.N,BT-4_LED*%
X28205500Y-69753250D03*
D11*
%TO.P,BT-4,2,Pin_2*%
%TO.N,BT-4_SW*%
X25705500Y-69753250D03*
%TO.P,BT-4,3,Pin_3*%
%TO.N,GND*%
X23205500Y-69753250D03*
%TO.P,BT-4,4,Pin_4*%
X20705500Y-69753250D03*
%TD*%
D10*
%TO.P,BT-6,1,Pin_1*%
%TO.N,BT-6_LED*%
X28205500Y-87253350D03*
D11*
%TO.P,BT-6,2,Pin_2*%
%TO.N,BT-6_SW*%
X25705500Y-87253350D03*
%TO.P,BT-6,3,Pin_3*%
%TO.N,GND*%
X23205500Y-87253350D03*
%TO.P,BT-6,4,Pin_4*%
X20705500Y-87253350D03*
%TD*%
D10*
%TO.P,AXIS-Y,1,Pin_1*%
%TO.N,AXIS-Y_A*%
X28205500Y-34753300D03*
D11*
%TO.P,AXIS-Y,2,Pin_2*%
%TO.N,AXIS-Y_B*%
X25705500Y-34753300D03*
%TO.P,AXIS-Y,3,Pin_3*%
%TO.N,GND*%
X23205500Y-34753300D03*
%TO.P,AXIS-Y,4,Pin_4*%
%TO.N,+5V*%
X20705500Y-34753300D03*
%TD*%
D10*
%TO.P,BT-2,1,Pin_1*%
%TO.N,BT-2_LED*%
X28205500Y-52253120D03*
D11*
%TO.P,BT-2,2,Pin_2*%
%TO.N,BT-2_SW*%
X25705500Y-52253120D03*
%TO.P,BT-2,3,Pin_3*%
%TO.N,GND*%
X23205500Y-52253120D03*
%TO.P,BT-2,4,Pin_4*%
X20705500Y-52253120D03*
%TD*%
D14*
%TO.P,U1,1,GPIO0*%
%TO.N,AXIS-X_A*%
X35220000Y-31980000D03*
%TO.P,U1,2,GPIO1*%
%TO.N,AXIS-X_B*%
X35220000Y-34520000D03*
D13*
%TO.P,U1,3,GND*%
%TO.N,GND*%
X35220000Y-37060000D03*
D14*
%TO.P,U1,4,GPIO2*%
%TO.N,AXIS-Y_A*%
X35220000Y-39600000D03*
%TO.P,U1,5,GPIO3*%
%TO.N,AXIS-Y_B*%
X35220000Y-42140000D03*
%TO.P,U1,6,GPIO4*%
%TO.N,BT-1_SW*%
X35220000Y-44680000D03*
%TO.P,U1,7,GPIO5*%
%TO.N,BT-1_LED*%
X35220000Y-47220000D03*
D13*
%TO.P,U1,8,GND*%
%TO.N,unconnected-(U1-GND-Pad8)*%
X35220000Y-49760000D03*
D14*
%TO.P,U1,9,GPIO6*%
%TO.N,BT-2_SW*%
X35220000Y-52300000D03*
%TO.P,U1,10,GPIO7*%
%TO.N,BT-2_LED*%
X35220000Y-54840000D03*
%TO.P,U1,11,GPIO8*%
%TO.N,BT-3_SW*%
X35220000Y-57380000D03*
%TO.P,U1,12,GPIO9*%
%TO.N,BT-3_LED*%
X35220000Y-59920000D03*
D13*
%TO.P,U1,13,GND*%
%TO.N,unconnected-(U1-GND-Pad13)*%
X35220000Y-62460000D03*
D14*
%TO.P,U1,14,GPIO10*%
%TO.N,BT-4_SW*%
X35220000Y-65000000D03*
%TO.P,U1,15,GPIO11*%
%TO.N,BT-4_LED*%
X35220000Y-67540000D03*
%TO.P,U1,16,GPIO12*%
%TO.N,BT-5_SW*%
X35220000Y-70080000D03*
%TO.P,U1,17,GPIO13*%
%TO.N,BT-5_LED*%
X35220000Y-72620000D03*
D13*
%TO.P,U1,18,GND*%
%TO.N,unconnected-(U1-GND-Pad18)*%
X35220000Y-75160000D03*
D14*
%TO.P,U1,19,GPIO14*%
%TO.N,BT-6_SW*%
X35220000Y-77700000D03*
%TO.P,U1,20,GPIO15*%
%TO.N,BT-6_LED*%
X35220000Y-80240000D03*
%TO.P,U1,21,GPIO16*%
%TO.N,BT-7_SW*%
X53000000Y-80240000D03*
%TO.P,U1,22,GPIO17*%
%TO.N,BT-7_LED*%
X53000000Y-77700000D03*
D13*
%TO.P,U1,23,GND*%
%TO.N,unconnected-(U1-GND-Pad23)*%
X53000000Y-75160000D03*
D14*
%TO.P,U1,24,GPIO18*%
%TO.N,BT-8_SW*%
X53000000Y-72620000D03*
%TO.P,U1,25,GPIO19*%
%TO.N,BT-8_LED*%
X53000000Y-70080000D03*
%TO.P,U1,26,GPIO20*%
%TO.N,BT-9_SW*%
X53000000Y-67540000D03*
%TO.P,U1,27,GPIO21*%
%TO.N,BT-9_LED*%
X53000000Y-65000000D03*
D13*
%TO.P,U1,28,GND*%
%TO.N,unconnected-(U1-GND-Pad28)*%
X53000000Y-62460000D03*
D14*
%TO.P,U1,29,GPIO22*%
%TO.N,BT-10_SW*%
X53000000Y-59920000D03*
%TO.P,U1,30,RUN*%
%TO.N,unconnected-(U1-RUN-Pad30)*%
X53000000Y-57380000D03*
%TO.P,U1,31,GPIO26_ADC0*%
%TO.N,BT-10_LED*%
X53000000Y-54840000D03*
%TO.P,U1,32,GPIO27_ADC1*%
%TO.N,BT-11_SW*%
X53000000Y-52300000D03*
D13*
%TO.P,U1,33,AGND*%
%TO.N,unconnected-(U1-AGND-Pad33)*%
X53000000Y-49760000D03*
D14*
%TO.P,U1,34,GPIO28_ADC2*%
%TO.N,LED-WS2812B*%
X53000000Y-47220000D03*
%TO.P,U1,35,ADC_VREF*%
%TO.N,unconnected-(U1-ADC_VREF-Pad35)*%
X53000000Y-44680000D03*
%TO.P,U1,36,3V3*%
%TO.N,unconnected-(U1-3V3-Pad36)*%
X53000000Y-42140000D03*
%TO.P,U1,37,3V3_EN*%
%TO.N,unconnected-(U1-3V3_EN-Pad37)*%
X53000000Y-39600000D03*
D13*
%TO.P,U1,38,GND*%
%TO.N,GND*%
X53000000Y-37060000D03*
D14*
%TO.P,U1,39,VSYS*%
%TO.N,unconnected-(U1-VSYS-Pad39)*%
X53000000Y-34520000D03*
%TO.P,U1,40,VBUS*%
%TO.N,+5V*%
X53000000Y-31980000D03*
%TO.P,U1,41,SWCLK*%
%TO.N,SWCLK*%
X41570000Y-80010000D03*
D13*
%TO.P,U1,42,GND*%
%TO.N,GND*%
X44110000Y-80010000D03*
D14*
%TO.P,U1,43,SWDIO*%
%TO.N,SWDIO*%
X46650000Y-80010000D03*
D15*
%TO.P,U1,TP1,TP1*%
%TO.N,U_GND*%
X44110000Y-34740000D03*
%TO.P,U1,TP2,TP2*%
%TO.N,D-*%
X45110000Y-31460000D03*
%TO.P,U1,TP3,TP3*%
%TO.N,D+*%
X43110000Y-31440000D03*
%TD*%
D10*
%TO.P,BT-3,1,Pin_1*%
%TO.N,BT-3_LED*%
X28205500Y-61003350D03*
D11*
%TO.P,BT-3,2,Pin_2*%
%TO.N,BT-3_SW*%
X25705500Y-61003350D03*
%TO.P,BT-3,3,Pin_3*%
%TO.N,GND*%
X23205500Y-61003350D03*
%TO.P,BT-3,4,Pin_4*%
X20705500Y-61003350D03*
%TD*%
D10*
%TO.P,BT-8,1,Pin_1*%
%TO.N,BT-8_LED*%
X67514500Y-69752300D03*
D11*
%TO.P,BT-8,2,Pin_2*%
%TO.N,BT-8_SW*%
X65014500Y-69752300D03*
%TO.P,BT-8,3,Pin_3*%
%TO.N,GND*%
X62514500Y-69752300D03*
%TO.P,BT-8,4,Pin_4*%
X60014500Y-69752300D03*
%TD*%
D10*
%TO.P,BT-11,1,Pin_1*%
%TO.N,unconnected-(J11-Pin_1-Pad1)*%
X67514500Y-43502300D03*
D11*
%TO.P,BT-11,2,Pin_2*%
%TO.N,BT-11_SW*%
X65014500Y-43502300D03*
%TO.P,BT-11,3,Pin_3*%
%TO.N,GND*%
X62514500Y-43502300D03*
%TO.P,BT-11,4,Pin_4*%
X60014500Y-43502300D03*
%TD*%
D16*
%TO.N,GND*%
X43200000Y-39900000D03*
%TD*%
D17*
%TO.N,+5V*%
X57002200Y-31980000D02*
X59774510Y-34752310D01*
X53000000Y-31980000D02*
X57002200Y-31980000D01*
X20705500Y-26003300D02*
X20705500Y-34753300D01*
X59774510Y-34752310D02*
X62514500Y-34752310D01*
%TO.N,AXIS-X_A*%
X40100000Y-81400000D02*
X40100000Y-36850000D01*
X36680000Y-91400000D02*
X36680000Y-84820000D01*
X36680000Y-84820000D02*
X40100000Y-81400000D01*
X37740000Y-34500000D02*
X35220000Y-31980000D01*
X37750000Y-34500000D02*
X37740000Y-34500000D01*
X40100000Y-36850000D02*
X37750000Y-34500000D01*
%TO.N,AXIS-X_B*%
X36700000Y-78700000D02*
X38800000Y-76600000D01*
X34140000Y-84610000D02*
X36700000Y-82050000D01*
X36320000Y-34520000D02*
X35220000Y-34520000D01*
X36700000Y-82050000D02*
X36700000Y-78700000D01*
X38800000Y-76600000D02*
X38800000Y-37000000D01*
X34140000Y-91400000D02*
X34140000Y-84610000D01*
X38800000Y-37000000D02*
X36320000Y-34520000D01*
%TO.N,SWDIO*%
X41760000Y-89240000D02*
X46650000Y-84350000D01*
X41760000Y-91400000D02*
X41760000Y-89240000D01*
X46650000Y-84350000D02*
X46650000Y-80010000D01*
%TO.N,SWCLK*%
X41570000Y-85930000D02*
X41570000Y-80010000D01*
X39220000Y-88280000D02*
X41570000Y-85930000D01*
X39220000Y-91400000D02*
X39220000Y-88280000D01*
%TO.N,GND*%
X61334510Y-40932300D02*
X67514500Y-34752310D01*
X20705500Y-61003350D02*
X23205500Y-61003350D01*
X35220000Y-37060000D02*
X25512200Y-37060000D01*
X60014500Y-52252300D02*
X62514500Y-52252300D01*
X60014500Y-40932300D02*
X60014500Y-43502300D01*
X23205500Y-61003350D02*
X23205500Y-69753250D01*
X23205500Y-34753300D02*
X23205500Y-43503350D01*
X23205500Y-87253350D02*
X20705500Y-87253350D01*
X20705500Y-52253120D02*
X23205500Y-52253120D01*
X20705500Y-78503250D02*
X23205500Y-78503250D01*
X23205500Y-69753250D02*
X23205500Y-78503250D01*
X56142200Y-37060000D02*
X60014500Y-40932300D01*
X60014500Y-78502300D02*
X62514500Y-78502300D01*
X60014500Y-43502300D02*
X60014500Y-52252300D01*
X46040000Y-37060000D02*
X43200000Y-39900000D01*
X23205500Y-52253120D02*
X23205500Y-61003350D01*
X60014500Y-69752300D02*
X60014500Y-78502300D01*
X23205500Y-43503350D02*
X23205500Y-52253120D01*
X20705500Y-69753250D02*
X23205500Y-69753250D01*
X60014500Y-40932300D02*
X61334510Y-40932300D01*
X20705500Y-43503350D02*
X23205500Y-43503350D01*
X60014500Y-61002300D02*
X60014500Y-69752300D01*
X25512200Y-37060000D02*
X23205500Y-34753300D01*
X60014500Y-61002300D02*
X62514500Y-61002300D01*
X53000000Y-37060000D02*
X56142200Y-37060000D01*
X23205500Y-26003300D02*
X23205500Y-34753300D01*
X60014500Y-69752300D02*
X62514500Y-69752300D01*
X60014500Y-43502300D02*
X62514500Y-43502300D01*
X53000000Y-37060000D02*
X46040000Y-37060000D01*
X23205500Y-78503250D02*
X23205500Y-87253350D01*
X60014500Y-52252300D02*
X60014500Y-61002300D01*
%TO.N,U_GND*%
X45487969Y-34740000D02*
X50127969Y-30100000D01*
X50127969Y-30100000D02*
X65000000Y-30100000D01*
X44110000Y-34740000D02*
X45487969Y-34740000D01*
X65000000Y-30100000D02*
X67514500Y-27585500D01*
X67514500Y-27585500D02*
X67514500Y-24952000D01*
%TO.N,D+*%
X43110000Y-30490000D02*
X44400000Y-29200000D01*
X44400000Y-29200000D02*
X46380050Y-29200000D01*
X43110000Y-31440000D02*
X43110000Y-30490000D01*
X62889500Y-22827000D02*
X65014500Y-24952000D01*
X52753050Y-22827000D02*
X62889500Y-22827000D01*
X46380050Y-29200000D02*
X52753050Y-22827000D01*
%TO.N,D-*%
X62514500Y-24074500D02*
X62514500Y-24952000D01*
X45110000Y-31460000D02*
X53043000Y-23527000D01*
X61967000Y-23527000D02*
X62514500Y-24074500D01*
X53043000Y-23527000D02*
X61967000Y-23527000D01*
%TD*%
%TA.AperFunction,Conductor*%
%TO.N,GND*%
G36*
X44360000Y-81360000D02*
G01*
X45007828Y-81360000D01*
X45007844Y-81359999D01*
X45067372Y-81353598D01*
X45067379Y-81353596D01*
X45202086Y-81303354D01*
X45202093Y-81303350D01*
X45317187Y-81217190D01*
X45317190Y-81217187D01*
X45403350Y-81102093D01*
X45403354Y-81102086D01*
X45452422Y-80970529D01*
X45494293Y-80914595D01*
X45559757Y-80890178D01*
X45628030Y-80905030D01*
X45656282Y-80926178D01*
X45778599Y-81048495D01*
X45846623Y-81096125D01*
X45890248Y-81150701D01*
X45899500Y-81197700D01*
X45899500Y-83987769D01*
X45879815Y-84054808D01*
X45863181Y-84075450D01*
X41177050Y-88761580D01*
X41177044Y-88761588D01*
X41127812Y-88835268D01*
X41127813Y-88835269D01*
X41094921Y-88884496D01*
X41094914Y-88884508D01*
X41038342Y-89021086D01*
X41038340Y-89021092D01*
X41009500Y-89166079D01*
X41009500Y-90212298D01*
X40989815Y-90279337D01*
X40956625Y-90313872D01*
X40888595Y-90361507D01*
X40721505Y-90528597D01*
X40591575Y-90714158D01*
X40536998Y-90757783D01*
X40467500Y-90764977D01*
X40405145Y-90733454D01*
X40388425Y-90714158D01*
X40258494Y-90528597D01*
X40091404Y-90361507D01*
X40023375Y-90313872D01*
X39979751Y-90259294D01*
X39970500Y-90212298D01*
X39970500Y-88642230D01*
X39990185Y-88575191D01*
X40006819Y-88554549D01*
X41076731Y-87484637D01*
X42152952Y-86408416D01*
X42202186Y-86334729D01*
X42235084Y-86285495D01*
X42291658Y-86148913D01*
X42320500Y-86003918D01*
X42320500Y-81197700D01*
X42340185Y-81130661D01*
X42373375Y-81096126D01*
X42441401Y-81048495D01*
X42563717Y-80926178D01*
X42625036Y-80892696D01*
X42694728Y-80897680D01*
X42750662Y-80939551D01*
X42767577Y-80970528D01*
X42816646Y-81102088D01*
X42816649Y-81102093D01*
X42902809Y-81217187D01*
X42902812Y-81217190D01*
X43017906Y-81303350D01*
X43017913Y-81303354D01*
X43152620Y-81353596D01*
X43152627Y-81353598D01*
X43212155Y-81359999D01*
X43212172Y-81360000D01*
X43860000Y-81360000D01*
X43860000Y-80454560D01*
X43913147Y-80485245D01*
X44042857Y-80520000D01*
X44177143Y-80520000D01*
X44306853Y-80485245D01*
X44360000Y-80454560D01*
X44360000Y-81360000D01*
G37*
%TD.AperFunction*%
%TA.AperFunction,Conductor*%
G36*
X36761731Y-36025885D02*
G01*
X36778694Y-36040061D01*
X38013181Y-37274548D01*
X38046666Y-37335871D01*
X38049500Y-37362229D01*
X38049500Y-76237770D01*
X38029815Y-76304809D01*
X38013181Y-76325451D01*
X36768757Y-77569874D01*
X36707434Y-77603359D01*
X36637742Y-77598375D01*
X36581809Y-77556503D01*
X36557548Y-77492999D01*
X36555063Y-77464592D01*
X36493903Y-77236337D01*
X36394035Y-77022171D01*
X36258495Y-76828599D01*
X36136567Y-76706671D01*
X36103084Y-76645351D01*
X36108068Y-76575659D01*
X36149939Y-76519725D01*
X36180915Y-76502810D01*
X36312331Y-76453796D01*
X36427546Y-76367546D01*
X36513796Y-76252331D01*
X36564091Y-76117483D01*
X36570500Y-76057873D01*
X36570499Y-74262128D01*
X36564091Y-74202517D01*
X36513796Y-74067669D01*
X36513795Y-74067668D01*
X36513793Y-74067664D01*
X36427547Y-73952455D01*
X36427544Y-73952452D01*
X36312335Y-73866206D01*
X36312328Y-73866202D01*
X36180917Y-73817189D01*
X36124983Y-73775318D01*
X36100566Y-73709853D01*
X36115418Y-73641580D01*
X36136563Y-73613332D01*
X36258495Y-73491401D01*
X36394035Y-73297830D01*
X36493903Y-73083663D01*
X36555063Y-72855408D01*
X36575659Y-72620000D01*
X36555063Y-72384592D01*
X36493903Y-72156337D01*
X36394035Y-71942171D01*
X36258495Y-71748599D01*
X36258494Y-71748597D01*
X36091402Y-71581506D01*
X36091396Y-71581501D01*
X35905842Y-71451575D01*
X35862217Y-71396998D01*
X35855023Y-71327500D01*
X35886546Y-71265145D01*
X35905842Y-71248425D01*
X35967172Y-71205481D01*
X36091401Y-71118495D01*
X36258495Y-70951401D01*
X36394035Y-70757830D01*
X36493903Y-70543663D01*
X36555063Y-70315408D01*
X36575659Y-70080000D01*
X36555063Y-69844592D01*
X36493903Y-69616337D01*
X36394035Y-69402171D01*
X36330983Y-69312122D01*
X36258494Y-69208597D01*
X36091402Y-69041506D01*
X36091396Y-69041501D01*
X35905842Y-68911575D01*
X35862217Y-68856998D01*
X35855023Y-68787500D01*
X35886546Y-68725145D01*
X35905842Y-68708425D01*
X35928026Y-68692891D01*
X36091401Y-68578495D01*
X36258495Y-68411401D01*
X36394035Y-68217830D01*
X36493903Y-68003663D01*
X36555063Y-67775408D01*
X36575659Y-67540000D01*
X36555063Y-67304592D01*
X36493903Y-67076337D01*
X36394035Y-66862171D01*
X36258495Y-66668599D01*
X36258494Y-66668597D01*
X36091402Y-66501506D01*
X36091396Y-66501501D01*
X35905842Y-66371575D01*
X35862217Y-66316998D01*
X35855023Y-66247500D01*
X35886546Y-66185145D01*
X35905842Y-66168425D01*
X35928026Y-66152891D01*
X36091401Y-66038495D01*
X36258495Y-65871401D01*
X36394035Y-65677830D01*
X36493903Y-65463663D01*
X36555063Y-65235408D01*
X36575659Y-65000000D01*
X36555063Y-64764592D01*
X36493903Y-64536337D01*
X36394035Y-64322171D01*
X36258495Y-64128599D01*
X36136567Y-64006671D01*
X36103084Y-63945351D01*
X36108068Y-63875659D01*
X36149939Y-63819725D01*
X36180915Y-63802810D01*
X36312331Y-63753796D01*
X36427546Y-63667546D01*
X36513796Y-63552331D01*
X36564091Y-63417483D01*
X36570500Y-63357873D01*
X36570499Y-61562128D01*
X36564091Y-61502517D01*
X36555077Y-61478350D01*
X36513797Y-61367671D01*
X36513793Y-61367664D01*
X36427547Y-61252455D01*
X36427544Y-61252452D01*
X36312335Y-61166206D01*
X36312328Y-61166202D01*
X36180917Y-61117189D01*
X36124983Y-61075318D01*
X36100566Y-61009853D01*
X36115418Y-60941580D01*
X36136563Y-60913332D01*
X36258495Y-60791401D01*
X36394035Y-60597830D01*
X36493903Y-60383663D01*
X36555063Y-60155408D01*
X36575659Y-59920000D01*
X36555063Y-59684592D01*
X36493903Y-59456337D01*
X36394035Y-59242171D01*
X36258495Y-59048599D01*
X36258494Y-59048597D01*
X36091402Y-58881506D01*
X36091396Y-58881501D01*
X35905842Y-58751575D01*
X35862217Y-58696998D01*
X35855023Y-58627500D01*
X35886546Y-58565145D01*
X35905842Y-58548425D01*
X35928026Y-58532891D01*
X36091401Y-58418495D01*
X36258495Y-58251401D01*
X36394035Y-58057830D01*
X36493903Y-57843663D01*
X36555063Y-57615408D01*
X36575659Y-57380000D01*
X36555063Y-57144592D01*
X36493903Y-56916337D01*
X36394035Y-56702171D01*
X36258495Y-56508599D01*
X36258494Y-56508597D01*
X36091402Y-56341506D01*
X36091396Y-56341501D01*
X35905842Y-56211575D01*
X35862217Y-56156998D01*
X35855023Y-56087500D01*
X35886546Y-56025145D01*
X35905842Y-56008425D01*
X35928026Y-55992891D01*
X36091401Y-55878495D01*
X36258495Y-55711401D01*
X36394035Y-55517830D01*
X36493903Y-55303663D01*
X36555063Y-55075408D01*
X36575659Y-54840000D01*
X36555063Y-54604592D01*
X36493903Y-54376337D01*
X36394035Y-54162171D01*
X36258495Y-53968599D01*
X36258494Y-53968597D01*
X36091402Y-53801506D01*
X36091396Y-53801501D01*
X35905842Y-53671575D01*
X35862217Y-53616998D01*
X35855023Y-53547500D01*
X35886546Y-53485145D01*
X35905842Y-53468425D01*
X35936760Y-53446776D01*
X36091401Y-53338495D01*
X36258495Y-53171401D01*
X36394035Y-52977830D01*
X36493903Y-52763663D01*
X36555063Y-52535408D01*
X36575659Y-52300000D01*
X36555063Y-52064592D01*
X36493903Y-51836337D01*
X36394035Y-51622171D01*
X36385444Y-51609902D01*
X36258496Y-51428600D01*
X36204396Y-51374500D01*
X36136567Y-51306671D01*
X36103084Y-51245351D01*
X36108068Y-51175659D01*
X36149939Y-51119725D01*
X36180915Y-51102810D01*
X36312331Y-51053796D01*
X36427546Y-50967546D01*
X36513796Y-50852331D01*
X36564091Y-50717483D01*
X36570500Y-50657873D01*
X36570499Y-48862128D01*
X36564091Y-48802517D01*
X36513796Y-48667669D01*
X36513795Y-48667668D01*
X36513793Y-48667664D01*
X36427547Y-48552455D01*
X36427544Y-48552452D01*
X36312335Y-48466206D01*
X36312328Y-48466202D01*
X36180917Y-48417189D01*
X36124983Y-48375318D01*
X36100566Y-48309853D01*
X36115418Y-48241580D01*
X36136563Y-48213332D01*
X36258495Y-48091401D01*
X36394035Y-47897830D01*
X36493903Y-47683663D01*
X36555063Y-47455408D01*
X36575659Y-47220000D01*
X36555063Y-46984592D01*
X36493903Y-46756337D01*
X36394035Y-46542171D01*
X36258495Y-46348599D01*
X36258494Y-46348597D01*
X36091402Y-46181506D01*
X36091396Y-46181501D01*
X35905842Y-46051575D01*
X35862217Y-45996998D01*
X35855023Y-45927500D01*
X35886546Y-45865145D01*
X35905842Y-45848425D01*
X35928026Y-45832891D01*
X36091401Y-45718495D01*
X36258495Y-45551401D01*
X36394035Y-45357830D01*
X36493903Y-45143663D01*
X36555063Y-44915408D01*
X36575659Y-44680000D01*
X36573682Y-44657409D01*
X36564083Y-44547686D01*
X36555063Y-44444592D01*
X36493903Y-44216337D01*
X36394035Y-44002171D01*
X36377356Y-43978350D01*
X36258494Y-43808597D01*
X36091402Y-43641506D01*
X36091396Y-43641501D01*
X35905842Y-43511575D01*
X35862217Y-43456998D01*
X35855023Y-43387500D01*
X35886546Y-43325145D01*
X35905842Y-43308425D01*
X35984497Y-43253350D01*
X36091401Y-43178495D01*
X36258495Y-43011401D01*
X36394035Y-42817830D01*
X36493903Y-42603663D01*
X36555063Y-42375408D01*
X36575659Y-42140000D01*
X36555063Y-41904592D01*
X36493903Y-41676337D01*
X36394035Y-41462171D01*
X36258495Y-41268599D01*
X36258494Y-41268597D01*
X36091402Y-41101506D01*
X36091396Y-41101501D01*
X35905842Y-40971575D01*
X35862217Y-40916998D01*
X35855023Y-40847500D01*
X35886546Y-40785145D01*
X35905842Y-40768425D01*
X35928026Y-40752891D01*
X36091401Y-40638495D01*
X36258495Y-40471401D01*
X36394035Y-40277830D01*
X36493903Y-40063663D01*
X36555063Y-39835408D01*
X36575659Y-39600000D01*
X36555063Y-39364592D01*
X36493903Y-39136337D01*
X36394035Y-38922171D01*
X36258495Y-38728599D01*
X36136179Y-38606283D01*
X36102696Y-38544963D01*
X36107680Y-38475271D01*
X36149551Y-38419337D01*
X36180529Y-38402422D01*
X36312086Y-38353354D01*
X36312093Y-38353350D01*
X36427187Y-38267190D01*
X36427190Y-38267187D01*
X36513350Y-38152093D01*
X36513354Y-38152086D01*
X36563596Y-38017379D01*
X36563598Y-38017372D01*
X36569999Y-37957844D01*
X36570000Y-37957827D01*
X36570000Y-37310000D01*
X35664560Y-37310000D01*
X35695245Y-37256853D01*
X35730000Y-37127143D01*
X35730000Y-36992857D01*
X35695245Y-36863147D01*
X35664560Y-36810000D01*
X36570000Y-36810000D01*
X36570000Y-36162172D01*
X36569999Y-36162158D01*
X36567724Y-36140999D01*
X36580128Y-36072239D01*
X36627738Y-36021101D01*
X36695437Y-36003821D01*
X36761731Y-36025885D01*
G37*
%TD.AperFunction*%
%TA.AperFunction,Conductor*%
G36*
X22762870Y-87070007D02*
G01*
X22730500Y-87190815D01*
X22730500Y-87315885D01*
X22762870Y-87436693D01*
X22801354Y-87503350D01*
X21109646Y-87503350D01*
X21148130Y-87436693D01*
X21180500Y-87315885D01*
X21180500Y-87190815D01*
X21148130Y-87070007D01*
X21109646Y-87003350D01*
X22801354Y-87003350D01*
X22762870Y-87070007D01*
G37*
%TD.AperFunction*%
%TA.AperFunction,Conductor*%
G36*
X22762870Y-78319907D02*
G01*
X22730500Y-78440715D01*
X22730500Y-78565785D01*
X22762870Y-78686593D01*
X22801354Y-78753250D01*
X21109646Y-78753250D01*
X21148130Y-78686593D01*
X21180500Y-78565785D01*
X21180500Y-78440715D01*
X21148130Y-78319907D01*
X21109646Y-78253250D01*
X22801354Y-78253250D01*
X22762870Y-78319907D01*
G37*
%TD.AperFunction*%
%TA.AperFunction,Conductor*%
G36*
X62071870Y-78318957D02*
G01*
X62039500Y-78439765D01*
X62039500Y-78564835D01*
X62071870Y-78685643D01*
X62110354Y-78752300D01*
X60418646Y-78752300D01*
X60457130Y-78685643D01*
X60489500Y-78564835D01*
X60489500Y-78439765D01*
X60457130Y-78318957D01*
X60418646Y-78252300D01*
X62110354Y-78252300D01*
X62071870Y-78318957D01*
G37*
%TD.AperFunction*%
%TA.AperFunction,Conductor*%
G36*
X22762870Y-69569907D02*
G01*
X22730500Y-69690715D01*
X22730500Y-69815785D01*
X22762870Y-69936593D01*
X22801354Y-70003250D01*
X21109646Y-70003250D01*
X21148130Y-69936593D01*
X21180500Y-69815785D01*
X21180500Y-69690715D01*
X21148130Y-69569907D01*
X21109646Y-69503250D01*
X22801354Y-69503250D01*
X22762870Y-69569907D01*
G37*
%TD.AperFunction*%
%TA.AperFunction,Conductor*%
G36*
X62071870Y-69568957D02*
G01*
X62039500Y-69689765D01*
X62039500Y-69814835D01*
X62071870Y-69935643D01*
X62110354Y-70002300D01*
X60418646Y-70002300D01*
X60457130Y-69935643D01*
X60489500Y-69814835D01*
X60489500Y-69689765D01*
X60457130Y-69568957D01*
X60418646Y-69502300D01*
X62110354Y-69502300D01*
X62071870Y-69568957D01*
G37*
%TD.AperFunction*%
%TA.AperFunction,Conductor*%
G36*
X22762870Y-60820007D02*
G01*
X22730500Y-60940815D01*
X22730500Y-61065885D01*
X22762870Y-61186693D01*
X22801354Y-61253350D01*
X21109646Y-61253350D01*
X21148130Y-61186693D01*
X21180500Y-61065885D01*
X21180500Y-60940815D01*
X21148130Y-60820007D01*
X21109646Y-60753350D01*
X22801354Y-60753350D01*
X22762870Y-60820007D01*
G37*
%TD.AperFunction*%
%TA.AperFunction,Conductor*%
G36*
X62071870Y-60818957D02*
G01*
X62039500Y-60939765D01*
X62039500Y-61064835D01*
X62071870Y-61185643D01*
X62110354Y-61252300D01*
X60418646Y-61252300D01*
X60457130Y-61185643D01*
X60489500Y-61064835D01*
X60489500Y-60939765D01*
X60457130Y-60818957D01*
X60418646Y-60752300D01*
X62110354Y-60752300D01*
X62071870Y-60818957D01*
G37*
%TD.AperFunction*%
%TA.AperFunction,Conductor*%
G36*
X22762870Y-52069777D02*
G01*
X22730500Y-52190585D01*
X22730500Y-52315655D01*
X22762870Y-52436463D01*
X22801354Y-52503120D01*
X21109646Y-52503120D01*
X21148130Y-52436463D01*
X21180500Y-52315655D01*
X21180500Y-52190585D01*
X21148130Y-52069777D01*
X21109646Y-52003120D01*
X22801354Y-52003120D01*
X22762870Y-52069777D01*
G37*
%TD.AperFunction*%
%TA.AperFunction,Conductor*%
G36*
X62071870Y-52068957D02*
G01*
X62039500Y-52189765D01*
X62039500Y-52314835D01*
X62071870Y-52435643D01*
X62110354Y-52502300D01*
X60418646Y-52502300D01*
X60457130Y-52435643D01*
X60489500Y-52314835D01*
X60489500Y-52189765D01*
X60457130Y-52068957D01*
X60418646Y-52002300D01*
X62110354Y-52002300D01*
X62071870Y-52068957D01*
G37*
%TD.AperFunction*%
%TA.AperFunction,Conductor*%
G36*
X22762870Y-43320007D02*
G01*
X22730500Y-43440815D01*
X22730500Y-43565885D01*
X22762870Y-43686693D01*
X22801354Y-43753350D01*
X21109646Y-43753350D01*
X21148130Y-43686693D01*
X21180500Y-43565885D01*
X21180500Y-43440815D01*
X21148130Y-43320007D01*
X21109646Y-43253350D01*
X22801354Y-43253350D01*
X22762870Y-43320007D01*
G37*
%TD.AperFunction*%
%TA.AperFunction,Conductor*%
G36*
X62071870Y-43318957D02*
G01*
X62039500Y-43439765D01*
X62039500Y-43564835D01*
X62071870Y-43685643D01*
X62110354Y-43752300D01*
X60418646Y-43752300D01*
X60457130Y-43685643D01*
X60489500Y-43564835D01*
X60489500Y-43439765D01*
X60457130Y-43318957D01*
X60418646Y-43252300D01*
X62110354Y-43252300D01*
X62071870Y-43318957D01*
G37*
%TD.AperFunction*%
%TA.AperFunction,Conductor*%
G36*
X23192050Y-16623485D02*
G01*
X23237805Y-16676289D01*
X23247749Y-16745447D01*
X23218724Y-16809003D01*
X23184438Y-16836632D01*
X23038957Y-16916070D01*
X23038949Y-16916075D01*
X22809879Y-17087554D01*
X22809861Y-17087570D01*
X22607537Y-17289894D01*
X22607521Y-17289912D01*
X22436042Y-17518982D01*
X22436037Y-17518990D01*
X22298902Y-17770133D01*
X22198895Y-18038262D01*
X22138071Y-18317866D01*
X22117657Y-18603298D01*
X22117657Y-18603301D01*
X22138071Y-18888733D01*
X22198895Y-19168337D01*
X22298902Y-19436466D01*
X22436037Y-19687609D01*
X22436042Y-19687617D01*
X22607521Y-19916687D01*
X22607537Y-19916705D01*
X22809861Y-20119029D01*
X22809879Y-20119045D01*
X23038949Y-20290524D01*
X23038957Y-20290529D01*
X23290100Y-20427664D01*
X23290099Y-20427664D01*
X23290103Y-20427665D01*
X23290106Y-20427667D01*
X23558221Y-20527669D01*
X23558227Y-20527670D01*
X23558229Y-20527671D01*
X23837833Y-20588495D01*
X23837835Y-20588495D01*
X23837839Y-20588496D01*
X24091487Y-20606637D01*
X24123266Y-20608910D01*
X24123267Y-20608910D01*
X24123268Y-20608910D01*
X24151862Y-20606864D01*
X24408695Y-20588496D01*
X24688313Y-20527669D01*
X24956428Y-20427667D01*
X25207582Y-20290526D01*
X25436662Y-20119039D01*
X25639006Y-19916695D01*
X25810493Y-19687615D01*
X25947634Y-19436461D01*
X26047636Y-19168346D01*
X26108463Y-18888728D01*
X26128877Y-18603300D01*
X26108463Y-18317872D01*
X26068306Y-18133274D01*
X26047638Y-18038262D01*
X26047637Y-18038260D01*
X26047636Y-18038254D01*
X25947634Y-17770139D01*
X25867292Y-17623005D01*
X25810496Y-17518990D01*
X25810491Y-17518982D01*
X25639012Y-17289912D01*
X25638996Y-17289894D01*
X25436672Y-17087570D01*
X25436654Y-17087554D01*
X25207584Y-16916075D01*
X25207576Y-16916070D01*
X25062096Y-16836632D01*
X25012691Y-16787227D01*
X24997839Y-16718954D01*
X25022256Y-16653489D01*
X25078190Y-16611618D01*
X25121523Y-16603800D01*
X63125011Y-16603800D01*
X63192050Y-16623485D01*
X63237805Y-16676289D01*
X63247749Y-16745447D01*
X63218724Y-16809003D01*
X63184438Y-16836632D01*
X63038957Y-16916070D01*
X63038949Y-16916075D01*
X62809879Y-17087554D01*
X62809861Y-17087570D01*
X62607537Y-17289894D01*
X62607521Y-17289912D01*
X62436042Y-17518982D01*
X62436037Y-17518990D01*
X62298902Y-17770133D01*
X62198895Y-18038262D01*
X62138071Y-18317866D01*
X62117657Y-18603298D01*
X62117657Y-18603301D01*
X62138071Y-18888733D01*
X62198895Y-19168337D01*
X62298902Y-19436466D01*
X62436037Y-19687609D01*
X62436042Y-19687617D01*
X62607521Y-19916687D01*
X62607537Y-19916705D01*
X62809861Y-20119029D01*
X62809879Y-20119045D01*
X63038949Y-20290524D01*
X63038957Y-20290529D01*
X63290100Y-20427664D01*
X63290099Y-20427664D01*
X63290103Y-20427665D01*
X63290106Y-20427667D01*
X63558221Y-20527669D01*
X63558227Y-20527670D01*
X63558229Y-20527671D01*
X63837833Y-20588495D01*
X63837835Y-20588495D01*
X63837839Y-20588496D01*
X64091487Y-20606637D01*
X64123266Y-20608910D01*
X64123267Y-20608910D01*
X64123268Y-20608910D01*
X64151862Y-20606864D01*
X64408695Y-20588496D01*
X64688313Y-20527669D01*
X64956428Y-20427667D01*
X65207582Y-20290526D01*
X65436662Y-20119039D01*
X65639006Y-19916695D01*
X65810493Y-19687615D01*
X65947634Y-19436461D01*
X66047636Y-19168346D01*
X66108463Y-18888728D01*
X66128877Y-18603300D01*
X66108463Y-18317872D01*
X66068306Y-18133274D01*
X66047638Y-18038262D01*
X66047637Y-18038260D01*
X66047636Y-18038254D01*
X65947634Y-17770139D01*
X65867292Y-17623005D01*
X65810496Y-17518990D01*
X65810491Y-17518982D01*
X65639012Y-17289912D01*
X65638996Y-17289894D01*
X65436672Y-17087570D01*
X65436654Y-17087554D01*
X65207584Y-16916075D01*
X65207576Y-16916070D01*
X65062096Y-16836632D01*
X65012691Y-16787227D01*
X64997839Y-16718954D01*
X65022256Y-16653489D01*
X65078190Y-16611618D01*
X65121523Y-16603800D01*
X69039608Y-16603800D01*
X69101433Y-16603800D01*
X69109543Y-16604065D01*
X69358395Y-16620375D01*
X69374453Y-16622490D01*
X69581605Y-16663695D01*
X69615035Y-16670345D01*
X69630702Y-16674543D01*
X69800447Y-16732163D01*
X69862981Y-16753391D01*
X69877958Y-16759594D01*
X70034176Y-16836632D01*
X70097960Y-16868087D01*
X70112008Y-16876197D01*
X70315964Y-17012477D01*
X70328828Y-17022348D01*
X70513249Y-17184081D01*
X70524718Y-17195550D01*
X70686451Y-17379971D01*
X70696325Y-17392839D01*
X70832602Y-17596792D01*
X70840712Y-17610839D01*
X70949202Y-17830834D01*
X70955409Y-17845820D01*
X71034256Y-18078097D01*
X71038454Y-18093764D01*
X71086307Y-18334335D01*
X71088425Y-18350416D01*
X71104735Y-18599256D01*
X71105000Y-18607366D01*
X71105032Y-93537378D01*
X71105032Y-93599210D01*
X71104767Y-93607318D01*
X71088461Y-93856154D01*
X71086344Y-93872235D01*
X71038492Y-94112821D01*
X71034294Y-94128489D01*
X70955449Y-94360769D01*
X70949242Y-94375754D01*
X70840755Y-94595752D01*
X70832645Y-94609800D01*
X70696366Y-94813761D01*
X70686492Y-94826629D01*
X70524759Y-95011055D01*
X70513290Y-95022524D01*
X70328869Y-95184262D01*
X70316007Y-95194131D01*
X70180534Y-95284654D01*
X70112047Y-95330417D01*
X70098001Y-95338526D01*
X69878004Y-95447021D01*
X69863018Y-95453229D01*
X69630737Y-95532081D01*
X69615070Y-95536279D01*
X69374486Y-95584137D01*
X69358405Y-95586254D01*
X69110589Y-95602501D01*
X69102477Y-95602767D01*
X65121579Y-95602769D01*
X65054540Y-95583084D01*
X65008785Y-95530281D01*
X64998841Y-95461122D01*
X65027866Y-95397566D01*
X65062152Y-95369937D01*
X65126257Y-95334933D01*
X65207582Y-95290526D01*
X65436662Y-95119039D01*
X65639006Y-94916695D01*
X65810493Y-94687615D01*
X65947634Y-94436461D01*
X66047636Y-94168346D01*
X66108463Y-93888728D01*
X66128877Y-93603300D01*
X66128584Y-93599210D01*
X66124166Y-93537434D01*
X66108463Y-93317872D01*
X66047636Y-93038254D01*
X65947634Y-92770139D01*
X65939727Y-92755659D01*
X65810496Y-92518990D01*
X65810491Y-92518982D01*
X65639012Y-92289912D01*
X65638996Y-92289894D01*
X65436672Y-92087570D01*
X65436654Y-92087554D01*
X65207584Y-91916075D01*
X65207576Y-91916070D01*
X64956433Y-91778935D01*
X64956434Y-91778935D01*
X64763587Y-91707007D01*
X64688313Y-91678931D01*
X64688310Y-91678930D01*
X64688304Y-91678928D01*
X64408700Y-91618104D01*
X64123268Y-91597690D01*
X64123266Y-91597690D01*
X63837833Y-91618104D01*
X63558229Y-91678928D01*
X63290100Y-91778935D01*
X63038957Y-91916070D01*
X63038949Y-91916075D01*
X62809879Y-92087554D01*
X62809861Y-92087570D01*
X62607537Y-92289894D01*
X62607521Y-92289912D01*
X62436042Y-92518982D01*
X62436037Y-92518990D01*
X62298902Y-92770133D01*
X62198895Y-93038262D01*
X62138071Y-93317866D01*
X62117657Y-93603298D01*
X62117657Y-93603301D01*
X62138071Y-93888733D01*
X62198895Y-94168337D01*
X62198897Y-94168343D01*
X62198898Y-94168346D01*
X62278195Y-94380948D01*
X62298902Y-94436466D01*
X62436037Y-94687609D01*
X62436042Y-94687617D01*
X62607521Y-94916687D01*
X62607537Y-94916705D01*
X62809861Y-95119029D01*
X62809879Y-95119045D01*
X63038949Y-95290524D01*
X63038957Y-95290529D01*
X63184383Y-95369938D01*
X63233788Y-95419343D01*
X63248640Y-95487616D01*
X63224223Y-95553081D01*
X63168289Y-95594952D01*
X63124956Y-95602770D01*
X25121531Y-95602795D01*
X25054492Y-95583110D01*
X25008737Y-95530307D01*
X24998793Y-95461148D01*
X25027818Y-95397592D01*
X25062102Y-95369963D01*
X25207582Y-95290526D01*
X25436662Y-95119039D01*
X25639006Y-94916695D01*
X25810493Y-94687615D01*
X25947634Y-94436461D01*
X26047636Y-94168346D01*
X26108463Y-93888728D01*
X26128877Y-93603300D01*
X26128584Y-93599210D01*
X26124166Y-93537434D01*
X26108463Y-93317872D01*
X26047636Y-93038254D01*
X25947634Y-92770139D01*
X25939727Y-92755659D01*
X25810496Y-92518990D01*
X25810491Y-92518982D01*
X25639012Y-92289912D01*
X25638996Y-92289894D01*
X25436672Y-92087570D01*
X25436654Y-92087554D01*
X25207584Y-91916075D01*
X25207576Y-91916070D01*
X24956433Y-91778935D01*
X24956434Y-91778935D01*
X24763587Y-91707007D01*
X24688313Y-91678931D01*
X24688310Y-91678930D01*
X24688304Y-91678928D01*
X24408700Y-91618104D01*
X24123268Y-91597690D01*
X24123266Y-91597690D01*
X23837833Y-91618104D01*
X23558229Y-91678928D01*
X23290100Y-91778935D01*
X23038957Y-91916070D01*
X23038949Y-91916075D01*
X22809879Y-92087554D01*
X22809861Y-92087570D01*
X22607537Y-92289894D01*
X22607521Y-92289912D01*
X22436042Y-92518982D01*
X22436037Y-92518990D01*
X22298902Y-92770133D01*
X22198895Y-93038262D01*
X22138071Y-93317866D01*
X22117657Y-93603298D01*
X22117657Y-93603301D01*
X22138071Y-93888733D01*
X22198895Y-94168337D01*
X22198897Y-94168343D01*
X22198898Y-94168346D01*
X22278195Y-94380948D01*
X22298902Y-94436466D01*
X22436037Y-94687609D01*
X22436042Y-94687617D01*
X22607521Y-94916687D01*
X22607537Y-94916705D01*
X22809861Y-95119029D01*
X22809879Y-95119045D01*
X23038949Y-95290524D01*
X23038957Y-95290529D01*
X23184431Y-95369964D01*
X23233836Y-95419369D01*
X23248688Y-95487642D01*
X23224271Y-95553106D01*
X23168338Y-95594978D01*
X23125004Y-95602796D01*
X19195718Y-95602798D01*
X19195661Y-95602796D01*
X19189144Y-95602796D01*
X19177774Y-95602796D01*
X19127310Y-95602798D01*
X19119202Y-95602533D01*
X18870370Y-95586236D01*
X18854288Y-95584119D01*
X18613711Y-95536276D01*
X18598042Y-95532078D01*
X18365767Y-95453238D01*
X18350781Y-95447031D01*
X18130785Y-95338547D01*
X18116737Y-95330437D01*
X17912783Y-95194163D01*
X17899913Y-95184288D01*
X17715491Y-95022555D01*
X17704021Y-95011085D01*
X17542289Y-94826663D01*
X17532415Y-94813794D01*
X17396141Y-94609840D01*
X17388038Y-94595806D01*
X17279545Y-94375793D01*
X17273344Y-94360817D01*
X17194500Y-94128528D01*
X17190302Y-94112859D01*
X17190294Y-94112821D01*
X17142460Y-93872289D01*
X17140343Y-93856208D01*
X17124041Y-93607317D01*
X17123777Y-93599221D01*
X17123781Y-93529225D01*
X17123758Y-93528901D01*
X17123253Y-91399999D01*
X32784341Y-91399999D01*
X32784341Y-91400000D01*
X32804936Y-91635403D01*
X32804938Y-91635413D01*
X32866094Y-91863655D01*
X32866096Y-91863659D01*
X32866097Y-91863663D01*
X32946004Y-92035023D01*
X32965965Y-92077830D01*
X32965967Y-92077834D01*
X33074281Y-92232521D01*
X33101505Y-92271401D01*
X33268599Y-92438495D01*
X33365384Y-92506265D01*
X33462165Y-92574032D01*
X33462167Y-92574033D01*
X33462170Y-92574035D01*
X33676337Y-92673903D01*
X33904592Y-92735063D01*
X34081034Y-92750500D01*
X34139999Y-92755659D01*
X34140000Y-92755659D01*
X34140001Y-92755659D01*
X34198966Y-92750500D01*
X34375408Y-92735063D01*
X34603663Y-92673903D01*
X34817830Y-92574035D01*
X35011401Y-92438495D01*
X35178495Y-92271401D01*
X35308425Y-92085842D01*
X35363002Y-92042217D01*
X35432500Y-92035023D01*
X35494855Y-92066546D01*
X35511575Y-92085842D01*
X35641500Y-92271395D01*
X35641505Y-92271401D01*
X35808599Y-92438495D01*
X35905384Y-92506265D01*
X36002165Y-92574032D01*
X36002167Y-92574033D01*
X36002170Y-92574035D01*
X36216337Y-92673903D01*
X36444592Y-92735063D01*
X36621034Y-92750500D01*
X36679999Y-92755659D01*
X36680000Y-92755659D01*
X36680001Y-92755659D01*
X36738966Y-92750500D01*
X36915408Y-92735063D01*
X37143663Y-92673903D01*
X37357830Y-92574035D01*
X37551401Y-92438495D01*
X37718495Y-92271401D01*
X37848425Y-92085842D01*
X37903002Y-92042217D01*
X37972500Y-92035023D01*
X38034855Y-92066546D01*
X38051575Y-92085842D01*
X38181500Y-92271395D01*
X38181505Y-92271401D01*
X38348599Y-92438495D01*
X38445384Y-92506265D01*
X38542165Y-92574032D01*
X38542167Y-92574033D01*
X38542170Y-92574035D01*
X38756337Y-92673903D01*
X38984592Y-92735063D01*
X39161034Y-92750500D01*
X39219999Y-92755659D01*
X39220000Y-92755659D01*
X39220001Y-92755659D01*
X39278966Y-92750500D01*
X39455408Y-92735063D01*
X39683663Y-92673903D01*
X39897830Y-92574035D01*
X40091401Y-92438495D01*
X40258495Y-92271401D01*
X40388425Y-92085842D01*
X40443002Y-92042217D01*
X40512500Y-92035023D01*
X40574855Y-92066546D01*
X40591575Y-92085842D01*
X40721500Y-92271395D01*
X40721505Y-92271401D01*
X40888599Y-92438495D01*
X40985384Y-92506265D01*
X41082165Y-92574032D01*
X41082167Y-92574033D01*
X41082170Y-92574035D01*
X41296337Y-92673903D01*
X41524592Y-92735063D01*
X41701034Y-92750500D01*
X41759999Y-92755659D01*
X41760000Y-92755659D01*
X41760001Y-92755659D01*
X41818966Y-92750500D01*
X41995408Y-92735063D01*
X42223663Y-92673903D01*
X42437830Y-92574035D01*
X42631401Y-92438495D01*
X42798495Y-92271401D01*
X42928730Y-92085405D01*
X42983307Y-92041781D01*
X43052805Y-92034587D01*
X43115160Y-92066110D01*
X43131879Y-92085405D01*
X43261890Y-92271078D01*
X43428917Y-92438105D01*
X43622421Y-92573600D01*
X43836507Y-92673429D01*
X43836516Y-92673433D01*
X44050000Y-92730634D01*
X44050000Y-91833012D01*
X44107007Y-91865925D01*
X44234174Y-91900000D01*
X44365826Y-91900000D01*
X44492993Y-91865925D01*
X44550000Y-91833012D01*
X44550000Y-92730633D01*
X44763483Y-92673433D01*
X44763492Y-92673429D01*
X44977578Y-92573600D01*
X45171078Y-92438108D01*
X45293133Y-92316053D01*
X45354456Y-92282568D01*
X45424148Y-92287552D01*
X45480082Y-92329423D01*
X45496997Y-92360401D01*
X45546202Y-92492328D01*
X45546206Y-92492335D01*
X45632452Y-92607544D01*
X45632455Y-92607547D01*
X45747664Y-92693793D01*
X45747671Y-92693797D01*
X45882517Y-92744091D01*
X45882516Y-92744091D01*
X45889444Y-92744835D01*
X45942127Y-92750500D01*
X47737872Y-92750499D01*
X47797483Y-92744091D01*
X47932331Y-92693796D01*
X48047546Y-92607546D01*
X48133796Y-92492331D01*
X48184091Y-92357483D01*
X48190500Y-92297873D01*
X48190499Y-90502128D01*
X48184091Y-90442517D01*
X48183002Y-90439598D01*
X48133797Y-90307671D01*
X48133793Y-90307664D01*
X48047547Y-90192455D01*
X48047544Y-90192452D01*
X47932335Y-90106206D01*
X47932328Y-90106202D01*
X47797482Y-90055908D01*
X47797483Y-90055908D01*
X47737883Y-90049501D01*
X47737881Y-90049500D01*
X47737873Y-90049500D01*
X47737864Y-90049500D01*
X45942129Y-90049500D01*
X45942123Y-90049501D01*
X45882516Y-90055908D01*
X45747671Y-90106202D01*
X45747664Y-90106206D01*
X45632455Y-90192452D01*
X45632452Y-90192455D01*
X45546206Y-90307664D01*
X45546202Y-90307671D01*
X45496997Y-90439598D01*
X45455126Y-90495532D01*
X45389661Y-90519949D01*
X45321388Y-90505097D01*
X45293134Y-90483946D01*
X45171082Y-90361894D01*
X44977578Y-90226399D01*
X44763492Y-90126570D01*
X44763486Y-90126567D01*
X44550000Y-90069364D01*
X44550000Y-90966988D01*
X44492993Y-90934075D01*
X44365826Y-90900000D01*
X44234174Y-90900000D01*
X44107007Y-90934075D01*
X44050000Y-90966988D01*
X44050000Y-90069364D01*
X44049999Y-90069364D01*
X43836513Y-90126567D01*
X43836507Y-90126570D01*
X43622422Y-90226399D01*
X43622420Y-90226400D01*
X43428926Y-90361886D01*
X43428920Y-90361891D01*
X43261891Y-90528920D01*
X43261890Y-90528922D01*
X43131880Y-90714595D01*
X43077303Y-90758219D01*
X43007804Y-90765412D01*
X42945450Y-90733890D01*
X42928730Y-90714594D01*
X42798494Y-90528597D01*
X42631404Y-90361507D01*
X42563375Y-90313872D01*
X42519751Y-90259294D01*
X42510500Y-90212298D01*
X42510500Y-89602229D01*
X42530185Y-89535190D01*
X42546819Y-89514548D01*
X47232948Y-84828419D01*
X47232951Y-84828416D01*
X47315084Y-84705495D01*
X47371658Y-84568913D01*
X47392427Y-84464505D01*
X47400500Y-84423920D01*
X47400500Y-81197700D01*
X47420185Y-81130661D01*
X47453375Y-81096126D01*
X47521401Y-81048495D01*
X47688495Y-80881401D01*
X47824035Y-80687830D01*
X47923903Y-80473663D01*
X47985063Y-80245408D01*
X48005659Y-80010000D01*
X47985063Y-79774592D01*
X47923903Y-79546337D01*
X47905862Y-79507648D01*
X48509500Y-79507648D01*
X48509500Y-79712351D01*
X48541522Y-79914534D01*
X48604781Y-80109223D01*
X48654527Y-80206853D01*
X48674174Y-80245413D01*
X48697715Y-80291613D01*
X48818028Y-80457213D01*
X48962786Y-80601971D01*
X49080969Y-80687834D01*
X49128390Y-80722287D01*
X49209770Y-80763752D01*
X49310776Y-80815218D01*
X49310778Y-80815218D01*
X49310781Y-80815220D01*
X49415137Y-80849127D01*
X49505465Y-80878477D01*
X49523933Y-80881402D01*
X49707648Y-80910500D01*
X49707649Y-80910500D01*
X49912351Y-80910500D01*
X49912352Y-80910500D01*
X50114534Y-80878477D01*
X50309219Y-80815220D01*
X50491610Y-80722287D01*
X50603474Y-80641014D01*
X50657213Y-80601971D01*
X50657215Y-80601968D01*
X50657219Y-80601966D01*
X50801966Y-80457219D01*
X50801968Y-80457215D01*
X50801971Y-80457213D01*
X50899374Y-80323147D01*
X50922287Y-80291610D01*
X51015220Y-80109219D01*
X51078477Y-79914534D01*
X51110500Y-79712352D01*
X51110500Y-79507648D01*
X51090297Y-79380095D01*
X51078477Y-79305465D01*
X51026506Y-79145517D01*
X51015220Y-79110781D01*
X51015218Y-79110778D01*
X51015218Y-79110776D01*
X50967435Y-79016998D01*
X50922287Y-78928390D01*
X50882796Y-78874035D01*
X50801971Y-78762786D01*
X50657213Y-78618028D01*
X50491613Y-78497715D01*
X50491612Y-78497714D01*
X50491610Y-78497713D01*
X50434653Y-78468691D01*
X50309223Y-78404781D01*
X50114534Y-78341522D01*
X49939995Y-78313878D01*
X49912352Y-78309500D01*
X49707648Y-78309500D01*
X49683329Y-78313351D01*
X49505465Y-78341522D01*
X49310776Y-78404781D01*
X49128386Y-78497715D01*
X48962786Y-78618028D01*
X48818028Y-78762786D01*
X48697715Y-78928386D01*
X48604781Y-79110776D01*
X48541522Y-79305465D01*
X48509500Y-79507648D01*
X47905862Y-79507648D01*
X47824035Y-79332171D01*
X47819445Y-79325615D01*
X47688494Y-79138597D01*
X47521402Y-78971506D01*
X47521395Y-78971501D01*
X47519251Y-78970000D01*
X47481306Y-78943430D01*
X47327834Y-78835967D01*
X47327830Y-78835965D01*
X47239781Y-78794907D01*
X47113663Y-78736097D01*
X47113659Y-78736096D01*
X47113655Y-78736094D01*
X46885413Y-78674938D01*
X46885403Y-78674936D01*
X46650001Y-78654341D01*
X46649999Y-78654341D01*
X46414596Y-78674936D01*
X46414586Y-78674938D01*
X46186344Y-78736094D01*
X46186335Y-78736098D01*
X45972171Y-78835964D01*
X45972169Y-78835965D01*
X45778600Y-78971503D01*
X45656284Y-79093819D01*
X45594961Y-79127303D01*
X45525269Y-79122319D01*
X45469336Y-79080447D01*
X45452421Y-79049470D01*
X45403354Y-78917913D01*
X45403350Y-78917906D01*
X45317190Y-78802812D01*
X45317187Y-78802809D01*
X45202093Y-78716649D01*
X45202086Y-78716645D01*
X45067379Y-78666403D01*
X45067372Y-78666401D01*
X45007844Y-78660000D01*
X44360000Y-78660000D01*
X44360000Y-79565439D01*
X44306853Y-79534755D01*
X44177143Y-79500000D01*
X44042857Y-79500000D01*
X43913147Y-79534755D01*
X43860000Y-79565439D01*
X43860000Y-78660000D01*
X43212155Y-78660000D01*
X43152627Y-78666401D01*
X43152620Y-78666403D01*
X43017913Y-78716645D01*
X43017906Y-78716649D01*
X42902812Y-78802809D01*
X42902809Y-78802812D01*
X42816649Y-78917906D01*
X42816645Y-78917913D01*
X42767578Y-79049470D01*
X42725707Y-79105404D01*
X42660242Y-79129821D01*
X42591969Y-79114969D01*
X42563715Y-79093819D01*
X42519366Y-79049470D01*
X42441401Y-78971505D01*
X42441397Y-78971502D01*
X42441396Y-78971501D01*
X42247834Y-78835967D01*
X42247830Y-78835965D01*
X42159781Y-78794907D01*
X42033663Y-78736097D01*
X42033659Y-78736096D01*
X42033655Y-78736094D01*
X41805413Y-78674938D01*
X41805403Y-78674936D01*
X41570001Y-78654341D01*
X41569999Y-78654341D01*
X41334596Y-78674936D01*
X41334586Y-78674938D01*
X41106344Y-78736094D01*
X41106335Y-78736098D01*
X41026905Y-78773137D01*
X40957827Y-78783629D01*
X40894043Y-78755109D01*
X40855804Y-78696633D01*
X40850500Y-78660755D01*
X40850500Y-36776079D01*
X40821659Y-36631092D01*
X40821658Y-36631091D01*
X40821658Y-36631087D01*
X40765084Y-36494505D01*
X40712488Y-36415789D01*
X40697720Y-36393686D01*
X40682954Y-36371586D01*
X40682952Y-36371584D01*
X38433257Y-34121888D01*
X38399772Y-34060565D01*
X38404756Y-33990873D01*
X38446628Y-33934940D01*
X38507646Y-33911933D01*
X38507540Y-33911262D01*
X38510795Y-33910746D01*
X38511213Y-33910589D01*
X38512332Y-33910500D01*
X38512352Y-33910500D01*
X38714534Y-33878477D01*
X38909219Y-33815220D01*
X39091610Y-33722287D01*
X39193034Y-33648599D01*
X39257213Y-33601971D01*
X39257215Y-33601968D01*
X39257219Y-33601966D01*
X39401966Y-33457219D01*
X39401968Y-33457215D01*
X39401971Y-33457213D01*
X39454732Y-33384590D01*
X39522287Y-33291610D01*
X39615220Y-33109219D01*
X39678477Y-32914534D01*
X39710500Y-32712352D01*
X39710500Y-32507648D01*
X39678477Y-32305466D01*
X39673939Y-32291501D01*
X39615218Y-32110776D01*
X39581503Y-32044607D01*
X39522287Y-31928390D01*
X39514556Y-31917749D01*
X39401971Y-31762786D01*
X39257213Y-31618028D01*
X39091613Y-31497715D01*
X39091612Y-31497714D01*
X39091610Y-31497713D01*
X39034653Y-31468691D01*
X38909223Y-31404781D01*
X38714534Y-31341522D01*
X38539995Y-31313878D01*
X38512352Y-31309500D01*
X38307648Y-31309500D01*
X38283329Y-31313351D01*
X38105465Y-31341522D01*
X37910776Y-31404781D01*
X37728386Y-31497715D01*
X37562786Y-31618028D01*
X37418028Y-31762786D01*
X37297715Y-31928386D01*
X37204781Y-32110776D01*
X37141522Y-32305465D01*
X37109500Y-32507648D01*
X37109500Y-32508770D01*
X37109379Y-32509181D01*
X37109117Y-32512511D01*
X37108417Y-32512455D01*
X37089815Y-32575809D01*
X37037011Y-32621564D01*
X36967853Y-32631508D01*
X36904297Y-32602483D01*
X36897819Y-32596451D01*
X36592869Y-32291501D01*
X36559384Y-32230178D01*
X36557022Y-32193012D01*
X36575659Y-31980000D01*
X36575659Y-31979999D01*
X36571143Y-31928386D01*
X36555063Y-31744592D01*
X36493903Y-31516337D01*
X36394035Y-31302171D01*
X36363347Y-31258343D01*
X36258494Y-31108597D01*
X36091402Y-30941506D01*
X36091395Y-30941501D01*
X35897834Y-30805967D01*
X35897830Y-30805965D01*
X35897828Y-30805964D01*
X35683663Y-30706097D01*
X35683659Y-30706096D01*
X35683655Y-30706094D01*
X35455413Y-30644938D01*
X35455403Y-30644936D01*
X35220001Y-30624341D01*
X35219999Y-30624341D01*
X34984596Y-30644936D01*
X34984586Y-30644938D01*
X34756344Y-30706094D01*
X34756335Y-30706098D01*
X34542171Y-30805964D01*
X34542169Y-30805965D01*
X34348597Y-30941505D01*
X34181505Y-31108597D01*
X34045965Y-31302169D01*
X34045964Y-31302171D01*
X33946098Y-31516335D01*
X33946094Y-31516344D01*
X33884938Y-31744586D01*
X33884936Y-31744596D01*
X33864341Y-31979999D01*
X33864341Y-31980000D01*
X33884936Y-32215403D01*
X33884938Y-32215413D01*
X33946094Y-32443655D01*
X33946096Y-32443659D01*
X33946097Y-32443663D01*
X34019050Y-32600110D01*
X34045965Y-32657830D01*
X34045967Y-32657834D01*
X34181501Y-32851395D01*
X34181506Y-32851402D01*
X34348597Y-33018493D01*
X34348603Y-33018498D01*
X34534158Y-33148425D01*
X34577783Y-33203002D01*
X34584977Y-33272500D01*
X34553454Y-33334855D01*
X34534158Y-33351575D01*
X34348597Y-33481505D01*
X34181505Y-33648597D01*
X34045965Y-33842169D01*
X34045964Y-33842171D01*
X33946098Y-34056335D01*
X33946094Y-34056344D01*
X33884938Y-34284586D01*
X33884936Y-34284596D01*
X33864341Y-34519999D01*
X33864341Y-34520000D01*
X33884936Y-34755403D01*
X33884938Y-34755413D01*
X33946094Y-34983655D01*
X33946096Y-34983659D01*
X33946097Y-34983663D01*
X34043971Y-35193553D01*
X34045965Y-35197830D01*
X34045967Y-35197834D01*
X34133575Y-35322950D01*
X34181501Y-35391396D01*
X34181506Y-35391402D01*
X34303818Y-35513714D01*
X34337303Y-35575037D01*
X34332319Y-35644729D01*
X34290447Y-35700662D01*
X34259471Y-35717577D01*
X34127912Y-35766646D01*
X34127906Y-35766649D01*
X34012812Y-35852809D01*
X34012809Y-35852812D01*
X33926649Y-35967906D01*
X33926645Y-35967913D01*
X33876403Y-36102620D01*
X33876401Y-36102627D01*
X33870000Y-36162155D01*
X33870000Y-36810000D01*
X34775440Y-36810000D01*
X34744755Y-36863147D01*
X34710000Y-36992857D01*
X34710000Y-37127143D01*
X34744755Y-37256853D01*
X34775440Y-37310000D01*
X33870000Y-37310000D01*
X33870000Y-37957844D01*
X33876401Y-38017372D01*
X33876403Y-38017379D01*
X33926645Y-38152086D01*
X33926649Y-38152093D01*
X34012809Y-38267187D01*
X34012812Y-38267190D01*
X34127906Y-38353350D01*
X34127913Y-38353354D01*
X34259470Y-38402421D01*
X34315403Y-38444292D01*
X34339821Y-38509756D01*
X34324970Y-38578029D01*
X34303819Y-38606284D01*
X34181503Y-38728600D01*
X34045965Y-38922169D01*
X34045964Y-38922171D01*
X33946098Y-39136335D01*
X33946094Y-39136344D01*
X33884938Y-39364586D01*
X33884936Y-39364596D01*
X33864341Y-39599999D01*
X33864341Y-39600000D01*
X33884936Y-39835403D01*
X33884938Y-39835413D01*
X33946094Y-40063655D01*
X33946096Y-40063659D01*
X33946097Y-40063663D01*
X34045965Y-40277830D01*
X34045967Y-40277834D01*
X34181501Y-40471395D01*
X34181506Y-40471402D01*
X34348597Y-40638493D01*
X34348603Y-40638498D01*
X34534158Y-40768425D01*
X34577783Y-40823002D01*
X34584977Y-40892500D01*
X34553454Y-40954855D01*
X34534158Y-40971575D01*
X34348597Y-41101505D01*
X34181505Y-41268597D01*
X34045965Y-41462169D01*
X34045964Y-41462171D01*
X33946098Y-41676335D01*
X33946094Y-41676344D01*
X33884938Y-41904586D01*
X33884936Y-41904596D01*
X33864341Y-42139999D01*
X33864341Y-42140000D01*
X33884936Y-42375403D01*
X33884938Y-42375413D01*
X33946094Y-42603655D01*
X33946096Y-42603659D01*
X33946097Y-42603663D01*
X34003749Y-42727298D01*
X34045965Y-42817830D01*
X34045967Y-42817834D01*
X34181501Y-43011395D01*
X34181506Y-43011402D01*
X34348597Y-43178493D01*
X34348603Y-43178498D01*
X34534158Y-43308425D01*
X34577783Y-43363002D01*
X34584977Y-43432500D01*
X34553454Y-43494855D01*
X34534158Y-43511575D01*
X34348597Y-43641505D01*
X34181505Y-43808597D01*
X34045965Y-44002169D01*
X34045964Y-44002171D01*
X33946098Y-44216335D01*
X33946094Y-44216344D01*
X33884938Y-44444586D01*
X33884936Y-44444596D01*
X33864341Y-44679999D01*
X33864341Y-44680000D01*
X33884936Y-44915403D01*
X33884938Y-44915413D01*
X33946094Y-45143655D01*
X33946096Y-45143659D01*
X33946097Y-45143663D01*
X34045965Y-45357830D01*
X34045967Y-45357834D01*
X34181501Y-45551395D01*
X34181506Y-45551402D01*
X34348597Y-45718493D01*
X34348603Y-45718498D01*
X34534158Y-45848425D01*
X34577783Y-45903002D01*
X34584977Y-45972500D01*
X34553454Y-46034855D01*
X34534158Y-46051575D01*
X34348597Y-46181505D01*
X34181505Y-46348597D01*
X34045965Y-46542169D01*
X34045964Y-46542171D01*
X33946098Y-46756335D01*
X33946094Y-46756344D01*
X33884938Y-46984586D01*
X33884936Y-46984596D01*
X33864341Y-47219999D01*
X33864341Y-47220000D01*
X33884936Y-47455403D01*
X33884938Y-47455413D01*
X33946094Y-47683655D01*
X33946096Y-47683659D01*
X33946097Y-47683663D01*
X34045965Y-47897830D01*
X34045967Y-47897834D01*
X34154281Y-48052521D01*
X34181501Y-48091396D01*
X34181506Y-48091402D01*
X34303430Y-48213326D01*
X34336915Y-48274649D01*
X34331931Y-48344341D01*
X34290059Y-48400274D01*
X34259083Y-48417189D01*
X34127669Y-48466203D01*
X34127664Y-48466206D01*
X34012455Y-48552452D01*
X34012452Y-48552455D01*
X33926206Y-48667664D01*
X33926202Y-48667671D01*
X33875908Y-48802517D01*
X33869501Y-48862116D01*
X33869501Y-48862123D01*
X33869500Y-48862135D01*
X33869500Y-50657870D01*
X33869501Y-50657876D01*
X33875908Y-50717483D01*
X33926202Y-50852328D01*
X33926206Y-50852335D01*
X34012452Y-50967544D01*
X34012455Y-50967547D01*
X34127664Y-51053793D01*
X34127671Y-51053797D01*
X34259081Y-51102810D01*
X34315015Y-51144681D01*
X34339432Y-51210145D01*
X34324580Y-51278418D01*
X34303430Y-51306673D01*
X34181503Y-51428600D01*
X34045965Y-51622169D01*
X34045964Y-51622171D01*
X33946098Y-51836335D01*
X33946094Y-51836344D01*
X33884938Y-52064586D01*
X33884936Y-52064596D01*
X33864341Y-52299999D01*
X33864341Y-52300000D01*
X33884936Y-52535403D01*
X33884938Y-52535413D01*
X33946094Y-52763655D01*
X33946096Y-52763659D01*
X33946097Y-52763663D01*
X34007582Y-52895517D01*
X34045965Y-52977830D01*
X34045967Y-52977834D01*
X34181501Y-53171395D01*
X34181506Y-53171402D01*
X34348597Y-53338493D01*
X34348603Y-53338498D01*
X34534158Y-53468425D01*
X34577783Y-53523002D01*
X34584977Y-53592500D01*
X34553454Y-53654855D01*
X34534158Y-53671575D01*
X34348597Y-53801505D01*
X34181505Y-53968597D01*
X34045965Y-54162169D01*
X34045964Y-54162171D01*
X33946098Y-54376335D01*
X33946094Y-54376344D01*
X33884938Y-54604586D01*
X33884936Y-54604596D01*
X33864341Y-54839999D01*
X33864341Y-54840000D01*
X33884936Y-55075403D01*
X33884938Y-55075413D01*
X33946094Y-55303655D01*
X33946096Y-55303659D01*
X33946097Y-55303663D01*
X34045965Y-55517830D01*
X34045967Y-55517834D01*
X34181501Y-55711395D01*
X34181506Y-55711402D01*
X34348597Y-55878493D01*
X34348603Y-55878498D01*
X34534158Y-56008425D01*
X34577783Y-56063002D01*
X34584977Y-56132500D01*
X34553454Y-56194855D01*
X34534158Y-56211575D01*
X34348597Y-56341505D01*
X34181505Y-56508597D01*
X34045965Y-56702169D01*
X34045964Y-56702171D01*
X33946098Y-56916335D01*
X33946094Y-56916344D01*
X33884938Y-57144586D01*
X33884936Y-57144596D01*
X33864341Y-57379999D01*
X33864341Y-57380000D01*
X33884936Y-57615403D01*
X33884938Y-57615413D01*
X33946094Y-57843655D01*
X33946096Y-57843659D01*
X33946097Y-57843663D01*
X34045965Y-58057830D01*
X34045967Y-58057834D01*
X34181501Y-58251395D01*
X34181506Y-58251402D01*
X34348597Y-58418493D01*
X34348603Y-58418498D01*
X34534158Y-58548425D01*
X34577783Y-58603002D01*
X34584977Y-58672500D01*
X34553454Y-58734855D01*
X34534158Y-58751575D01*
X34348597Y-58881505D01*
X34181505Y-59048597D01*
X34045965Y-59242169D01*
X34045964Y-59242171D01*
X33946098Y-59456335D01*
X33946094Y-59456344D01*
X33884938Y-59684586D01*
X33884936Y-59684596D01*
X33864341Y-59919999D01*
X33864341Y-59920000D01*
X33884936Y-60155403D01*
X33884938Y-60155413D01*
X33946094Y-60383655D01*
X33946096Y-60383659D01*
X33946097Y-60383663D01*
X34028870Y-60561169D01*
X34045965Y-60597830D01*
X34045967Y-60597834D01*
X34125693Y-60711693D01*
X34181501Y-60791396D01*
X34181506Y-60791402D01*
X34303430Y-60913326D01*
X34336915Y-60974649D01*
X34331931Y-61044341D01*
X34290059Y-61100274D01*
X34259083Y-61117189D01*
X34127669Y-61166203D01*
X34127664Y-61166206D01*
X34012455Y-61252452D01*
X34012452Y-61252455D01*
X33926206Y-61367664D01*
X33926202Y-61367671D01*
X33875908Y-61502517D01*
X33869501Y-61562116D01*
X33869501Y-61562123D01*
X33869500Y-61562135D01*
X33869500Y-63357870D01*
X33869501Y-63357876D01*
X33875908Y-63417483D01*
X33926202Y-63552328D01*
X33926206Y-63552335D01*
X34012452Y-63667544D01*
X34012455Y-63667547D01*
X34127664Y-63753793D01*
X34127671Y-63753797D01*
X34259081Y-63802810D01*
X34315015Y-63844681D01*
X34339432Y-63910145D01*
X34324580Y-63978418D01*
X34303430Y-64006673D01*
X34181503Y-64128600D01*
X34045965Y-64322169D01*
X34045964Y-64322171D01*
X33946098Y-64536335D01*
X33946094Y-64536344D01*
X33884938Y-64764586D01*
X33884936Y-64764596D01*
X33864341Y-64999999D01*
X33864341Y-65000000D01*
X33884936Y-65235403D01*
X33884938Y-65235413D01*
X33946094Y-65463655D01*
X33946096Y-65463659D01*
X33946097Y-65463663D01*
X34045965Y-65677830D01*
X34045967Y-65677834D01*
X34181501Y-65871395D01*
X34181506Y-65871402D01*
X34348597Y-66038493D01*
X34348603Y-66038498D01*
X34534158Y-66168425D01*
X34577783Y-66223002D01*
X34584977Y-66292500D01*
X34553454Y-66354855D01*
X34534158Y-66371575D01*
X34348597Y-66501505D01*
X34181505Y-66668597D01*
X34045965Y-66862169D01*
X34045964Y-66862171D01*
X33946098Y-67076335D01*
X33946094Y-67076344D01*
X33884938Y-67304586D01*
X33884936Y-67304596D01*
X33864341Y-67539999D01*
X33864341Y-67540000D01*
X33884936Y-67775403D01*
X33884938Y-67775413D01*
X33946094Y-68003655D01*
X33946096Y-68003659D01*
X33946097Y-68003663D01*
X34045965Y-68217830D01*
X34045967Y-68217834D01*
X34181501Y-68411395D01*
X34181506Y-68411402D01*
X34348597Y-68578493D01*
X34348603Y-68578498D01*
X34534158Y-68708425D01*
X34577783Y-68763002D01*
X34584977Y-68832500D01*
X34553454Y-68894855D01*
X34534158Y-68911575D01*
X34348597Y-69041505D01*
X34181505Y-69208597D01*
X34045965Y-69402169D01*
X34045964Y-69402171D01*
X33946098Y-69616335D01*
X33946094Y-69616344D01*
X33884938Y-69844586D01*
X33884936Y-69844596D01*
X33864341Y-70079999D01*
X33864341Y-70080000D01*
X33884936Y-70315403D01*
X33884938Y-70315413D01*
X33946094Y-70543655D01*
X33946096Y-70543659D01*
X33946097Y-70543663D01*
X33969118Y-70593031D01*
X34045965Y-70757830D01*
X34045967Y-70757834D01*
X34073802Y-70797586D01*
X34177692Y-70945956D01*
X34181501Y-70951395D01*
X34181506Y-70951402D01*
X34348597Y-71118493D01*
X34348603Y-71118498D01*
X34534158Y-71248425D01*
X34577783Y-71303002D01*
X34584977Y-71372500D01*
X34553454Y-71434855D01*
X34534158Y-71451575D01*
X34348597Y-71581505D01*
X34181505Y-71748597D01*
X34045965Y-71942169D01*
X34045964Y-71942171D01*
X33946098Y-72156335D01*
X33946094Y-72156344D01*
X33884938Y-72384586D01*
X33884936Y-72384596D01*
X33864341Y-72619999D01*
X33864341Y-72620000D01*
X33884936Y-72855403D01*
X33884938Y-72855413D01*
X33946094Y-73083655D01*
X33946096Y-73083659D01*
X33946097Y-73083663D01*
X34045965Y-73297830D01*
X34045967Y-73297834D01*
X34154281Y-73452521D01*
X34181501Y-73491396D01*
X34181506Y-73491402D01*
X34303430Y-73613326D01*
X34336915Y-73674649D01*
X34331931Y-73744341D01*
X34290059Y-73800274D01*
X34259083Y-73817189D01*
X34127669Y-73866203D01*
X34127664Y-73866206D01*
X34012455Y-73952452D01*
X34012452Y-73952455D01*
X33926206Y-74067664D01*
X33926202Y-74067671D01*
X33875908Y-74202517D01*
X33869501Y-74262116D01*
X33869501Y-74262123D01*
X33869500Y-74262135D01*
X33869500Y-76057870D01*
X33869501Y-76057876D01*
X33875908Y-76117483D01*
X33926202Y-76252328D01*
X33926206Y-76252335D01*
X34012452Y-76367544D01*
X34012455Y-76367547D01*
X34127664Y-76453793D01*
X34127671Y-76453797D01*
X34259081Y-76502810D01*
X34315015Y-76544681D01*
X34339432Y-76610145D01*
X34324580Y-76678418D01*
X34303430Y-76706673D01*
X34181503Y-76828600D01*
X34045965Y-77022169D01*
X34045964Y-77022171D01*
X33946098Y-77236335D01*
X33946094Y-77236344D01*
X33884938Y-77464586D01*
X33884936Y-77464596D01*
X33864341Y-77699999D01*
X33864341Y-77700000D01*
X33884936Y-77935403D01*
X33884938Y-77935413D01*
X33946094Y-78163655D01*
X33946096Y-78163659D01*
X33946097Y-78163663D01*
X34004923Y-78289815D01*
X34045965Y-78377830D01*
X34045967Y-78377834D01*
X34129908Y-78497713D01*
X34176907Y-78564835D01*
X34181501Y-78571395D01*
X34181506Y-78571402D01*
X34348597Y-78738493D01*
X34348603Y-78738498D01*
X34534158Y-78868425D01*
X34577783Y-78923002D01*
X34584977Y-78992500D01*
X34553454Y-79054855D01*
X34534158Y-79071575D01*
X34348597Y-79201505D01*
X34181505Y-79368597D01*
X34045965Y-79562169D01*
X34045964Y-79562171D01*
X33946098Y-79776335D01*
X33946094Y-79776344D01*
X33884938Y-80004586D01*
X33884936Y-80004596D01*
X33864341Y-80239999D01*
X33864341Y-80240000D01*
X33884936Y-80475403D01*
X33884938Y-80475413D01*
X33946094Y-80703655D01*
X33946096Y-80703659D01*
X33946097Y-80703663D01*
X33954782Y-80722287D01*
X34045965Y-80917830D01*
X34045967Y-80917834D01*
X34137458Y-81048495D01*
X34181505Y-81111401D01*
X34348599Y-81278495D01*
X34445384Y-81346265D01*
X34542165Y-81414032D01*
X34542167Y-81414033D01*
X34542170Y-81414035D01*
X34756337Y-81513903D01*
X34984592Y-81575063D01*
X35172918Y-81591539D01*
X35219999Y-81595659D01*
X35220000Y-81595659D01*
X35220001Y-81595659D01*
X35259234Y-81592226D01*
X35455408Y-81575063D01*
X35683663Y-81513903D01*
X35773095Y-81472199D01*
X35842173Y-81461708D01*
X35905957Y-81490228D01*
X35944196Y-81548704D01*
X35949500Y-81584582D01*
X35949500Y-81687769D01*
X35929815Y-81754808D01*
X35913181Y-81775450D01*
X33557050Y-84131580D01*
X33557044Y-84131588D01*
X33507812Y-84205268D01*
X33507813Y-84205269D01*
X33474921Y-84254496D01*
X33474914Y-84254508D01*
X33418342Y-84391086D01*
X33418340Y-84391092D01*
X33389500Y-84536079D01*
X33389500Y-90212298D01*
X33369815Y-90279337D01*
X33336625Y-90313872D01*
X33268595Y-90361507D01*
X33101505Y-90528597D01*
X32965965Y-90722169D01*
X32965964Y-90722171D01*
X32866098Y-90936335D01*
X32866094Y-90936344D01*
X32804938Y-91164586D01*
X32804936Y-91164596D01*
X32784341Y-91399999D01*
X17123253Y-91399999D01*
X17122211Y-87003350D01*
X19358470Y-87003350D01*
X20301354Y-87003350D01*
X20262870Y-87070007D01*
X20230500Y-87190815D01*
X20230500Y-87315885D01*
X20262870Y-87436693D01*
X20301354Y-87503350D01*
X19358470Y-87503350D01*
X19388742Y-87694477D01*
X19388742Y-87694480D01*
X19454404Y-87896567D01*
X19550879Y-88085907D01*
X19675772Y-88257809D01*
X19675776Y-88257814D01*
X19826035Y-88408073D01*
X19826040Y-88408077D01*
X19997942Y-88532970D01*
X20187282Y-88629445D01*
X20389371Y-88695107D01*
X20455500Y-88705581D01*
X20455500Y-87657495D01*
X20522157Y-87695980D01*
X20642965Y-87728350D01*
X20768035Y-87728350D01*
X20888843Y-87695980D01*
X20955500Y-87657495D01*
X20955500Y-88705580D01*
X21021626Y-88695107D01*
X21021629Y-88695107D01*
X21223717Y-88629445D01*
X21413057Y-88532970D01*
X21584959Y-88408077D01*
X21584964Y-88408073D01*
X21735227Y-88257810D01*
X21855182Y-88092705D01*
X21910511Y-88050039D01*
X21980125Y-88044060D01*
X22041920Y-88076665D01*
X22055818Y-88092705D01*
X22175772Y-88257810D01*
X22326035Y-88408073D01*
X22326040Y-88408077D01*
X22497942Y-88532970D01*
X22687282Y-88629445D01*
X22889371Y-88695107D01*
X22955500Y-88705581D01*
X22955500Y-87657495D01*
X23022157Y-87695980D01*
X23142965Y-87728350D01*
X23268035Y-87728350D01*
X23388843Y-87695980D01*
X23455500Y-87657495D01*
X23455500Y-88705580D01*
X23521626Y-88695107D01*
X23521629Y-88695107D01*
X23723717Y-88629445D01*
X23913057Y-88532970D01*
X24084959Y-88408077D01*
X24084964Y-88408073D01*
X24235221Y-88257816D01*
X24354871Y-88093131D01*
X24410201Y-88050465D01*
X24479814Y-88044486D01*
X24541610Y-88077091D01*
X24555508Y-88093131D01*
X24675390Y-88258135D01*
X24675394Y-88258140D01*
X24825713Y-88408459D01*
X24997679Y-88533398D01*
X24997681Y-88533399D01*
X24997684Y-88533401D01*
X25187088Y-88629907D01*
X25389257Y-88695596D01*
X25599213Y-88728850D01*
X25599214Y-88728850D01*
X25811786Y-88728850D01*
X25811787Y-88728850D01*
X26021743Y-88695596D01*
X26223912Y-88629907D01*
X26413316Y-88533401D01*
X26585292Y-88408454D01*
X26724104Y-88269641D01*
X26785423Y-88236159D01*
X26855115Y-88241143D01*
X26911049Y-88283014D01*
X26917321Y-88292228D01*
X26920685Y-88297683D01*
X26920686Y-88297684D01*
X27012788Y-88447006D01*
X27136844Y-88571062D01*
X27286166Y-88663164D01*
X27452703Y-88718349D01*
X27555491Y-88728850D01*
X28855508Y-88728849D01*
X28958297Y-88718349D01*
X29124834Y-88663164D01*
X29274156Y-88571062D01*
X29398212Y-88447006D01*
X29490314Y-88297684D01*
X29545499Y-88131147D01*
X29556000Y-88028359D01*
X29555999Y-86478342D01*
X29554351Y-86462213D01*
X29545499Y-86375553D01*
X29545498Y-86375550D01*
X29531969Y-86334723D01*
X29490314Y-86209016D01*
X29398212Y-86059694D01*
X29274156Y-85935638D01*
X29124834Y-85843536D01*
X28958297Y-85788351D01*
X28958295Y-85788350D01*
X28855510Y-85777850D01*
X27555498Y-85777850D01*
X27555481Y-85777851D01*
X27452703Y-85788350D01*
X27452700Y-85788351D01*
X27286168Y-85843535D01*
X27286163Y-85843537D01*
X27136842Y-85935639D01*
X27012789Y-86059692D01*
X26917321Y-86214471D01*
X26865373Y-86261195D01*
X26796410Y-86272418D01*
X26732328Y-86244574D01*
X26724101Y-86237055D01*
X26585286Y-86098240D01*
X26413320Y-85973301D01*
X26223914Y-85876794D01*
X26223913Y-85876793D01*
X26223912Y-85876793D01*
X26021743Y-85811104D01*
X26021741Y-85811103D01*
X26021740Y-85811103D01*
X25860457Y-85785558D01*
X25811787Y-85777850D01*
X25599213Y-85777850D01*
X25550542Y-85785558D01*
X25389260Y-85811103D01*
X25187085Y-85876794D01*
X24997679Y-85973301D01*
X24825713Y-86098240D01*
X24675394Y-86248559D01*
X24675390Y-86248564D01*
X24555508Y-86413568D01*
X24500178Y-86456234D01*
X24430565Y-86462213D01*
X24368770Y-86429607D01*
X24354872Y-86413568D01*
X24235227Y-86248890D01*
X24235223Y-86248885D01*
X24084964Y-86098626D01*
X24084959Y-86098622D01*
X23913057Y-85973729D01*
X23723715Y-85877253D01*
X23521624Y-85811591D01*
X23455500Y-85801118D01*
X23455500Y-86849204D01*
X23388843Y-86810720D01*
X23268035Y-86778350D01*
X23142965Y-86778350D01*
X23022157Y-86810720D01*
X22955500Y-86849204D01*
X22955500Y-85801118D01*
X22955499Y-85801118D01*
X22889375Y-85811591D01*
X22687284Y-85877253D01*
X22497942Y-85973729D01*
X22326040Y-86098622D01*
X22326035Y-86098626D01*
X22175776Y-86248885D01*
X22175772Y-86248890D01*
X22055818Y-86413994D01*
X22000488Y-86456660D01*
X21930875Y-86462639D01*
X21869080Y-86430034D01*
X21855182Y-86413994D01*
X21735227Y-86248890D01*
X21735223Y-86248885D01*
X21584964Y-86098626D01*
X21584959Y-86098622D01*
X21413057Y-85973729D01*
X21223715Y-85877253D01*
X21021624Y-85811591D01*
X20955500Y-85801118D01*
X20955500Y-86849204D01*
X20888843Y-86810720D01*
X20768035Y-86778350D01*
X20642965Y-86778350D01*
X20522157Y-86810720D01*
X20455500Y-86849204D01*
X20455500Y-85801118D01*
X20455499Y-85801118D01*
X20389375Y-85811591D01*
X20187284Y-85877253D01*
X19997942Y-85973729D01*
X19826040Y-86098622D01*
X19826035Y-86098626D01*
X19675776Y-86248885D01*
X19675772Y-86248890D01*
X19550879Y-86420792D01*
X19454404Y-86610132D01*
X19388742Y-86812219D01*
X19388742Y-86812222D01*
X19358470Y-87003350D01*
X17122211Y-87003350D01*
X17120137Y-78253250D01*
X19358470Y-78253250D01*
X20301354Y-78253250D01*
X20262870Y-78319907D01*
X20230500Y-78440715D01*
X20230500Y-78565785D01*
X20262870Y-78686593D01*
X20301354Y-78753250D01*
X19358470Y-78753250D01*
X19388742Y-78944377D01*
X19388742Y-78944380D01*
X19454404Y-79146467D01*
X19550879Y-79335807D01*
X19675772Y-79507709D01*
X19675776Y-79507714D01*
X19826035Y-79657973D01*
X19826040Y-79657977D01*
X19997942Y-79782870D01*
X20187282Y-79879345D01*
X20389371Y-79945007D01*
X20455500Y-79955481D01*
X20455500Y-78907395D01*
X20522157Y-78945880D01*
X20642965Y-78978250D01*
X20768035Y-78978250D01*
X20888843Y-78945880D01*
X20955500Y-78907395D01*
X20955500Y-79955480D01*
X21021626Y-79945007D01*
X21021629Y-79945007D01*
X21223717Y-79879345D01*
X21413057Y-79782870D01*
X21584959Y-79657977D01*
X21584964Y-79657973D01*
X21735227Y-79507710D01*
X21855182Y-79342605D01*
X21910511Y-79299939D01*
X21980125Y-79293960D01*
X22041920Y-79326565D01*
X22055818Y-79342605D01*
X22175772Y-79507710D01*
X22326035Y-79657973D01*
X22326040Y-79657977D01*
X22497942Y-79782870D01*
X22687282Y-79879345D01*
X22889371Y-79945007D01*
X22955500Y-79955481D01*
X22955500Y-78907395D01*
X23022157Y-78945880D01*
X23142965Y-78978250D01*
X23268035Y-78978250D01*
X23388843Y-78945880D01*
X23455500Y-78907395D01*
X23455500Y-79955480D01*
X23521626Y-79945007D01*
X23521629Y-79945007D01*
X23723717Y-79879345D01*
X23913057Y-79782870D01*
X24084959Y-79657977D01*
X24084964Y-79657973D01*
X24235221Y-79507716D01*
X24354871Y-79343031D01*
X24410201Y-79300365D01*
X24479814Y-79294386D01*
X24541610Y-79326991D01*
X24555508Y-79343031D01*
X24675390Y-79508035D01*
X24675394Y-79508040D01*
X24825713Y-79658359D01*
X24997679Y-79783298D01*
X24997681Y-79783299D01*
X24997684Y-79783301D01*
X25187088Y-79879807D01*
X25389257Y-79945496D01*
X25599213Y-79978750D01*
X25599214Y-79978750D01*
X25811786Y-79978750D01*
X25811787Y-79978750D01*
X26021743Y-79945496D01*
X26223912Y-79879807D01*
X26413316Y-79783301D01*
X26585292Y-79658354D01*
X26724104Y-79519541D01*
X26785423Y-79486059D01*
X26855115Y-79491043D01*
X26911049Y-79532914D01*
X26917321Y-79542128D01*
X26920685Y-79547583D01*
X26920686Y-79547584D01*
X27012788Y-79696906D01*
X27136844Y-79820962D01*
X27286166Y-79913064D01*
X27452703Y-79968249D01*
X27555491Y-79978750D01*
X28855508Y-79978749D01*
X28958297Y-79968249D01*
X29124834Y-79913064D01*
X29274156Y-79820962D01*
X29398212Y-79696906D01*
X29490314Y-79547584D01*
X29545499Y-79381047D01*
X29556000Y-79278259D01*
X29555999Y-77728242D01*
X29554351Y-77712113D01*
X29545499Y-77625453D01*
X29545498Y-77625450D01*
X29511323Y-77522318D01*
X29490314Y-77458916D01*
X29398212Y-77309594D01*
X29274156Y-77185538D01*
X29124834Y-77093436D01*
X28958297Y-77038251D01*
X28958295Y-77038250D01*
X28855510Y-77027750D01*
X27555498Y-77027750D01*
X27555481Y-77027751D01*
X27452703Y-77038250D01*
X27452700Y-77038251D01*
X27286168Y-77093435D01*
X27286163Y-77093437D01*
X27136842Y-77185539D01*
X27012789Y-77309592D01*
X26917321Y-77464371D01*
X26865373Y-77511095D01*
X26796410Y-77522318D01*
X26732328Y-77494474D01*
X26724101Y-77486955D01*
X26585286Y-77348140D01*
X26413320Y-77223201D01*
X26223914Y-77126694D01*
X26223913Y-77126693D01*
X26223912Y-77126693D01*
X26021743Y-77061004D01*
X26021741Y-77061003D01*
X26021740Y-77061003D01*
X25860457Y-77035458D01*
X25811787Y-77027750D01*
X25599213Y-77027750D01*
X25550542Y-77035458D01*
X25389260Y-77061003D01*
X25187085Y-77126694D01*
X24997679Y-77223201D01*
X24825713Y-77348140D01*
X24675394Y-77498459D01*
X24675390Y-77498464D01*
X24555508Y-77663468D01*
X24500178Y-77706134D01*
X24430565Y-77712113D01*
X24368770Y-77679507D01*
X24354872Y-77663468D01*
X24235227Y-77498790D01*
X24235223Y-77498785D01*
X24084964Y-77348526D01*
X24084959Y-77348522D01*
X23913057Y-77223629D01*
X23723715Y-77127153D01*
X23521624Y-77061491D01*
X23455500Y-77051018D01*
X23455500Y-78099104D01*
X23388843Y-78060620D01*
X23268035Y-78028250D01*
X23142965Y-78028250D01*
X23022157Y-78060620D01*
X22955500Y-78099104D01*
X22955500Y-77051018D01*
X22955499Y-77051018D01*
X22889375Y-77061491D01*
X22687284Y-77127153D01*
X22497942Y-77223629D01*
X22326040Y-77348522D01*
X22326035Y-77348526D01*
X22175776Y-77498785D01*
X22175772Y-77498790D01*
X22055818Y-77663894D01*
X22000488Y-77706560D01*
X21930875Y-77712539D01*
X21869080Y-77679934D01*
X21855182Y-77663894D01*
X21735227Y-77498790D01*
X21735223Y-77498785D01*
X21584964Y-77348526D01*
X21584959Y-77348522D01*
X21413057Y-77223629D01*
X21223715Y-77127153D01*
X21021624Y-77061491D01*
X20955500Y-77051018D01*
X20955500Y-78099104D01*
X20888843Y-78060620D01*
X20768035Y-78028250D01*
X20642965Y-78028250D01*
X20522157Y-78060620D01*
X20455500Y-78099104D01*
X20455500Y-77051018D01*
X20455499Y-77051018D01*
X20389375Y-77061491D01*
X20187284Y-77127153D01*
X19997942Y-77223629D01*
X19826040Y-77348522D01*
X19826035Y-77348526D01*
X19675776Y-77498785D01*
X19675772Y-77498790D01*
X19550879Y-77670692D01*
X19454404Y-77860032D01*
X19388742Y-78062119D01*
X19388742Y-78062122D01*
X19358470Y-78253250D01*
X17120137Y-78253250D01*
X17118063Y-69503250D01*
X19358470Y-69503250D01*
X20301354Y-69503250D01*
X20262870Y-69569907D01*
X20230500Y-69690715D01*
X20230500Y-69815785D01*
X20262870Y-69936593D01*
X20301354Y-70003250D01*
X19358470Y-70003250D01*
X19388742Y-70194377D01*
X19388742Y-70194380D01*
X19454404Y-70396467D01*
X19550879Y-70585807D01*
X19675772Y-70757709D01*
X19675776Y-70757714D01*
X19826035Y-70907973D01*
X19826040Y-70907977D01*
X19997942Y-71032870D01*
X20187282Y-71129345D01*
X20389371Y-71195007D01*
X20455500Y-71205481D01*
X20455500Y-70157395D01*
X20522157Y-70195880D01*
X20642965Y-70228250D01*
X20768035Y-70228250D01*
X20888843Y-70195880D01*
X20955500Y-70157395D01*
X20955500Y-71205480D01*
X21021626Y-71195007D01*
X21021629Y-71195007D01*
X21223717Y-71129345D01*
X21413057Y-71032870D01*
X21584959Y-70907977D01*
X21584964Y-70907973D01*
X21735227Y-70757710D01*
X21855182Y-70592605D01*
X21910511Y-70549939D01*
X21980125Y-70543960D01*
X22041920Y-70576565D01*
X22055818Y-70592605D01*
X22175772Y-70757710D01*
X22326035Y-70907973D01*
X22326040Y-70907977D01*
X22497942Y-71032870D01*
X22687282Y-71129345D01*
X22889371Y-71195007D01*
X22955500Y-71205481D01*
X22955500Y-70157395D01*
X23022157Y-70195880D01*
X23142965Y-70228250D01*
X23268035Y-70228250D01*
X23388843Y-70195880D01*
X23455500Y-70157395D01*
X23455500Y-71205480D01*
X23521626Y-71195007D01*
X23521629Y-71195007D01*
X23723717Y-71129345D01*
X23913057Y-71032870D01*
X24084959Y-70907977D01*
X24084964Y-70907973D01*
X24235221Y-70757716D01*
X24354871Y-70593031D01*
X24410201Y-70550365D01*
X24479814Y-70544386D01*
X24541610Y-70576991D01*
X24555508Y-70593031D01*
X24675390Y-70758035D01*
X24675394Y-70758040D01*
X24825713Y-70908359D01*
X24997679Y-71033298D01*
X24997681Y-71033299D01*
X24997684Y-71033301D01*
X25187088Y-71129807D01*
X25389257Y-71195496D01*
X25599213Y-71228750D01*
X25599214Y-71228750D01*
X25811786Y-71228750D01*
X25811787Y-71228750D01*
X26021743Y-71195496D01*
X26223912Y-71129807D01*
X26413316Y-71033301D01*
X26526041Y-70951402D01*
X26585284Y-70908360D01*
X26585284Y-70908359D01*
X26585292Y-70908354D01*
X26724104Y-70769541D01*
X26785423Y-70736059D01*
X26855115Y-70741043D01*
X26911049Y-70782914D01*
X26917321Y-70792128D01*
X26920685Y-70797583D01*
X26920686Y-70797584D01*
X27012788Y-70946906D01*
X27136844Y-71070962D01*
X27286166Y-71163064D01*
X27452703Y-71218249D01*
X27555491Y-71228750D01*
X28855508Y-71228749D01*
X28958297Y-71218249D01*
X29124834Y-71163064D01*
X29274156Y-71070962D01*
X29398212Y-70946906D01*
X29490314Y-70797584D01*
X29545499Y-70631047D01*
X29556000Y-70528259D01*
X29555999Y-68978242D01*
X29554351Y-68962113D01*
X29545499Y-68875453D01*
X29545498Y-68875450D01*
X29511323Y-68772318D01*
X29490314Y-68708916D01*
X29398212Y-68559594D01*
X29274156Y-68435538D01*
X29124834Y-68343436D01*
X28958297Y-68288251D01*
X28958295Y-68288250D01*
X28855510Y-68277750D01*
X27555498Y-68277750D01*
X27555481Y-68277751D01*
X27452703Y-68288250D01*
X27452700Y-68288251D01*
X27286168Y-68343435D01*
X27286163Y-68343437D01*
X27136842Y-68435539D01*
X27012789Y-68559592D01*
X26917321Y-68714371D01*
X26865373Y-68761095D01*
X26796410Y-68772318D01*
X26732328Y-68744474D01*
X26724101Y-68736955D01*
X26585286Y-68598140D01*
X26413320Y-68473201D01*
X26223914Y-68376694D01*
X26223913Y-68376693D01*
X26223912Y-68376693D01*
X26021743Y-68311004D01*
X26021741Y-68311003D01*
X26021740Y-68311003D01*
X25860457Y-68285458D01*
X25811787Y-68277750D01*
X25599213Y-68277750D01*
X25550542Y-68285458D01*
X25389260Y-68311003D01*
X25187085Y-68376694D01*
X24997679Y-68473201D01*
X24825713Y-68598140D01*
X24675394Y-68748459D01*
X24675390Y-68748464D01*
X24555508Y-68913468D01*
X24500178Y-68956134D01*
X24430565Y-68962113D01*
X24368770Y-68929507D01*
X24354872Y-68913468D01*
X24235227Y-68748790D01*
X24235223Y-68748785D01*
X24084964Y-68598526D01*
X24084959Y-68598522D01*
X23913057Y-68473629D01*
X23723715Y-68377153D01*
X23521624Y-68311491D01*
X23455500Y-68301018D01*
X23455500Y-69349104D01*
X23388843Y-69310620D01*
X23268035Y-69278250D01*
X23142965Y-69278250D01*
X23022157Y-69310620D01*
X22955500Y-69349104D01*
X22955500Y-68301018D01*
X22955499Y-68301018D01*
X22889375Y-68311491D01*
X22687284Y-68377153D01*
X22497942Y-68473629D01*
X22326040Y-68598522D01*
X22326035Y-68598526D01*
X22175776Y-68748785D01*
X22175772Y-68748790D01*
X22055818Y-68913894D01*
X22000488Y-68956560D01*
X21930875Y-68962539D01*
X21869080Y-68929934D01*
X21855182Y-68913894D01*
X21735227Y-68748790D01*
X21735223Y-68748785D01*
X21584964Y-68598526D01*
X21584959Y-68598522D01*
X21413057Y-68473629D01*
X21223715Y-68377153D01*
X21021624Y-68311491D01*
X20955500Y-68301018D01*
X20955500Y-69349104D01*
X20888843Y-69310620D01*
X20768035Y-69278250D01*
X20642965Y-69278250D01*
X20522157Y-69310620D01*
X20455500Y-69349104D01*
X20455500Y-68301018D01*
X20455499Y-68301018D01*
X20389375Y-68311491D01*
X20187284Y-68377153D01*
X19997942Y-68473629D01*
X19826040Y-68598522D01*
X19826035Y-68598526D01*
X19675776Y-68748785D01*
X19675772Y-68748790D01*
X19550879Y-68920692D01*
X19454404Y-69110032D01*
X19388742Y-69312119D01*
X19388742Y-69312122D01*
X19358470Y-69503250D01*
X17118063Y-69503250D01*
X17115989Y-60753350D01*
X19358470Y-60753350D01*
X20301354Y-60753350D01*
X20262870Y-60820007D01*
X20230500Y-60940815D01*
X20230500Y-61065885D01*
X20262870Y-61186693D01*
X20301354Y-61253350D01*
X19358470Y-61253350D01*
X19388742Y-61444477D01*
X19388742Y-61444480D01*
X19454404Y-61646567D01*
X19550879Y-61835907D01*
X19675772Y-62007809D01*
X19675776Y-62007814D01*
X19826035Y-62158073D01*
X19826040Y-62158077D01*
X19997942Y-62282970D01*
X20187282Y-62379445D01*
X20389371Y-62445107D01*
X20455500Y-62455581D01*
X20455500Y-61407495D01*
X20522157Y-61445980D01*
X20642965Y-61478350D01*
X20768035Y-61478350D01*
X20888843Y-61445980D01*
X20955500Y-61407495D01*
X20955500Y-62455580D01*
X21021626Y-62445107D01*
X21021629Y-62445107D01*
X21223717Y-62379445D01*
X21413057Y-62282970D01*
X21584959Y-62158077D01*
X21584964Y-62158073D01*
X21735227Y-62007810D01*
X21855182Y-61842705D01*
X21910511Y-61800039D01*
X21980125Y-61794060D01*
X22041920Y-61826665D01*
X22055818Y-61842705D01*
X22175772Y-62007810D01*
X22326035Y-62158073D01*
X22326040Y-62158077D01*
X22497942Y-62282970D01*
X22687282Y-62379445D01*
X22889371Y-62445107D01*
X22955500Y-62455581D01*
X22955500Y-61407495D01*
X23022157Y-61445980D01*
X23142965Y-61478350D01*
X23268035Y-61478350D01*
X23388843Y-61445980D01*
X23455500Y-61407495D01*
X23455500Y-62455580D01*
X23521626Y-62445107D01*
X23521629Y-62445107D01*
X23723717Y-62379445D01*
X23913057Y-62282970D01*
X24084959Y-62158077D01*
X24084964Y-62158073D01*
X24235221Y-62007816D01*
X24354871Y-61843131D01*
X24410201Y-61800465D01*
X24479814Y-61794486D01*
X24541610Y-61827091D01*
X24555508Y-61843131D01*
X24675390Y-62008135D01*
X24675394Y-62008140D01*
X24825713Y-62158459D01*
X24997679Y-62283398D01*
X24997681Y-62283399D01*
X24997684Y-62283401D01*
X25187088Y-62379907D01*
X25389257Y-62445596D01*
X25599213Y-62478850D01*
X25599214Y-62478850D01*
X25811786Y-62478850D01*
X25811787Y-62478850D01*
X26021743Y-62445596D01*
X26223912Y-62379907D01*
X26413316Y-62283401D01*
X26585292Y-62158454D01*
X26724104Y-62019641D01*
X26785423Y-61986159D01*
X26855115Y-61991143D01*
X26911049Y-62033014D01*
X26917321Y-62042228D01*
X26920685Y-62047683D01*
X26920686Y-62047684D01*
X27012788Y-62197006D01*
X27136844Y-62321062D01*
X27286166Y-62413164D01*
X27452703Y-62468349D01*
X27555491Y-62478850D01*
X28855508Y-62478849D01*
X28958297Y-62468349D01*
X29124834Y-62413164D01*
X29274156Y-62321062D01*
X29398212Y-62197006D01*
X29490314Y-62047684D01*
X29545499Y-61881147D01*
X29556000Y-61778359D01*
X29555999Y-60228342D01*
X29554351Y-60212213D01*
X29545499Y-60125553D01*
X29545498Y-60125550D01*
X29507604Y-60011195D01*
X29490314Y-59959016D01*
X29398212Y-59809694D01*
X29274156Y-59685638D01*
X29124834Y-59593536D01*
X28958297Y-59538351D01*
X28958295Y-59538350D01*
X28855510Y-59527850D01*
X27555498Y-59527850D01*
X27555481Y-59527851D01*
X27452703Y-59538350D01*
X27452700Y-59538351D01*
X27286168Y-59593535D01*
X27286163Y-59593537D01*
X27136842Y-59685639D01*
X27012789Y-59809692D01*
X26917321Y-59964471D01*
X26865373Y-60011195D01*
X26796410Y-60022418D01*
X26732328Y-59994574D01*
X26724101Y-59987055D01*
X26585286Y-59848240D01*
X26413320Y-59723301D01*
X26223914Y-59626794D01*
X26223913Y-59626793D01*
X26223912Y-59626793D01*
X26021743Y-59561104D01*
X26021741Y-59561103D01*
X26021740Y-59561103D01*
X25860457Y-59535558D01*
X25811787Y-59527850D01*
X25599213Y-59527850D01*
X25550542Y-59535558D01*
X25389260Y-59561103D01*
X25389257Y-59561104D01*
X25190317Y-59625744D01*
X25187085Y-59626794D01*
X24997679Y-59723301D01*
X24825713Y-59848240D01*
X24675394Y-59998559D01*
X24675390Y-59998564D01*
X24555508Y-60163568D01*
X24500178Y-60206234D01*
X24430565Y-60212213D01*
X24368770Y-60179607D01*
X24354872Y-60163568D01*
X24235227Y-59998890D01*
X24235223Y-59998885D01*
X24084964Y-59848626D01*
X24084959Y-59848622D01*
X23913057Y-59723729D01*
X23723715Y-59627253D01*
X23521624Y-59561591D01*
X23455500Y-59551118D01*
X23455500Y-60599204D01*
X23388843Y-60560720D01*
X23268035Y-60528350D01*
X23142965Y-60528350D01*
X23022157Y-60560720D01*
X22955500Y-60599204D01*
X22955500Y-59551118D01*
X22955499Y-59551118D01*
X22889375Y-59561591D01*
X22687284Y-59627253D01*
X22497942Y-59723729D01*
X22326040Y-59848622D01*
X22326035Y-59848626D01*
X22175776Y-59998885D01*
X22175772Y-59998890D01*
X22055818Y-60163994D01*
X22000488Y-60206660D01*
X21930875Y-60212639D01*
X21869080Y-60180034D01*
X21855182Y-60163994D01*
X21735227Y-59998890D01*
X21735223Y-59998885D01*
X21584964Y-59848626D01*
X21584959Y-59848622D01*
X21413057Y-59723729D01*
X21223715Y-59627253D01*
X21021624Y-59561591D01*
X20955500Y-59551118D01*
X20955500Y-60599204D01*
X20888843Y-60560720D01*
X20768035Y-60528350D01*
X20642965Y-60528350D01*
X20522157Y-60560720D01*
X20455500Y-60599204D01*
X20455500Y-59551118D01*
X20455499Y-59551118D01*
X20389375Y-59561591D01*
X20187284Y-59627253D01*
X19997942Y-59723729D01*
X19826040Y-59848622D01*
X19826035Y-59848626D01*
X19675776Y-59998885D01*
X19675772Y-59998890D01*
X19550879Y-60170792D01*
X19454404Y-60360132D01*
X19388742Y-60562219D01*
X19388742Y-60562222D01*
X19358470Y-60753350D01*
X17115989Y-60753350D01*
X17113915Y-52003120D01*
X19358470Y-52003120D01*
X20301354Y-52003120D01*
X20262870Y-52069777D01*
X20230500Y-52190585D01*
X20230500Y-52315655D01*
X20262870Y-52436463D01*
X20301354Y-52503120D01*
X19358470Y-52503120D01*
X19388742Y-52694247D01*
X19388742Y-52694250D01*
X19454404Y-52896337D01*
X19550879Y-53085677D01*
X19675772Y-53257579D01*
X19675776Y-53257584D01*
X19826035Y-53407843D01*
X19826040Y-53407847D01*
X19997942Y-53532740D01*
X20187282Y-53629215D01*
X20389371Y-53694877D01*
X20455500Y-53705351D01*
X20455500Y-52657265D01*
X20522157Y-52695750D01*
X20642965Y-52728120D01*
X20768035Y-52728120D01*
X20888843Y-52695750D01*
X20955500Y-52657265D01*
X20955500Y-53705350D01*
X21021626Y-53694877D01*
X21021629Y-53694877D01*
X21223717Y-53629215D01*
X21413057Y-53532740D01*
X21584959Y-53407847D01*
X21584964Y-53407843D01*
X21735227Y-53257580D01*
X21855182Y-53092475D01*
X21910511Y-53049809D01*
X21980125Y-53043830D01*
X22041920Y-53076435D01*
X22055818Y-53092475D01*
X22175772Y-53257580D01*
X22326035Y-53407843D01*
X22326040Y-53407847D01*
X22497942Y-53532740D01*
X22687282Y-53629215D01*
X22889371Y-53694877D01*
X22955500Y-53705351D01*
X22955500Y-52657265D01*
X23022157Y-52695750D01*
X23142965Y-52728120D01*
X23268035Y-52728120D01*
X23388843Y-52695750D01*
X23455500Y-52657265D01*
X23455500Y-53705350D01*
X23521626Y-53694877D01*
X23521629Y-53694877D01*
X23723717Y-53629215D01*
X23913057Y-53532740D01*
X24084959Y-53407847D01*
X24084964Y-53407843D01*
X24235221Y-53257586D01*
X24354871Y-53092901D01*
X24410201Y-53050235D01*
X24479814Y-53044256D01*
X24541610Y-53076861D01*
X24555508Y-53092901D01*
X24675390Y-53257905D01*
X24675394Y-53257910D01*
X24825713Y-53408229D01*
X24997679Y-53533168D01*
X24997681Y-53533169D01*
X24997684Y-53533171D01*
X25187088Y-53629677D01*
X25389257Y-53695366D01*
X25599213Y-53728620D01*
X25599214Y-53728620D01*
X25811786Y-53728620D01*
X25811787Y-53728620D01*
X26021743Y-53695366D01*
X26223912Y-53629677D01*
X26413316Y-53533171D01*
X26585292Y-53408224D01*
X26724104Y-53269411D01*
X26785423Y-53235929D01*
X26855115Y-53240913D01*
X26911049Y-53282784D01*
X26917321Y-53291998D01*
X26920685Y-53297453D01*
X26920686Y-53297454D01*
X27012788Y-53446776D01*
X27136844Y-53570832D01*
X27286166Y-53662934D01*
X27452703Y-53718119D01*
X27555491Y-53728620D01*
X28855508Y-53728619D01*
X28958297Y-53718119D01*
X29124834Y-53662934D01*
X29274156Y-53570832D01*
X29398212Y-53446776D01*
X29490314Y-53297454D01*
X29545499Y-53130917D01*
X29556000Y-53028129D01*
X29555999Y-51478112D01*
X29554351Y-51461983D01*
X29545499Y-51375323D01*
X29545498Y-51375320D01*
X29522751Y-51306674D01*
X29490314Y-51208786D01*
X29398212Y-51059464D01*
X29274156Y-50935408D01*
X29177423Y-50875743D01*
X29124836Y-50843307D01*
X29124831Y-50843305D01*
X29122356Y-50842485D01*
X28958297Y-50788121D01*
X28958295Y-50788120D01*
X28855510Y-50777620D01*
X27555498Y-50777620D01*
X27555481Y-50777621D01*
X27452703Y-50788120D01*
X27452700Y-50788121D01*
X27286168Y-50843305D01*
X27286163Y-50843307D01*
X27136842Y-50935409D01*
X27012789Y-51059462D01*
X26917321Y-51214241D01*
X26865373Y-51260965D01*
X26796410Y-51272188D01*
X26732328Y-51244344D01*
X26724101Y-51236825D01*
X26585286Y-51098010D01*
X26413320Y-50973071D01*
X26223914Y-50876564D01*
X26223913Y-50876563D01*
X26223912Y-50876563D01*
X26021743Y-50810874D01*
X26021741Y-50810873D01*
X26021740Y-50810873D01*
X25860457Y-50785328D01*
X25811787Y-50777620D01*
X25599213Y-50777620D01*
X25550542Y-50785328D01*
X25389260Y-50810873D01*
X25187085Y-50876564D01*
X24997679Y-50973071D01*
X24825713Y-51098010D01*
X24675394Y-51248329D01*
X24675390Y-51248334D01*
X24555508Y-51413338D01*
X24500178Y-51456004D01*
X24430565Y-51461983D01*
X24368770Y-51429377D01*
X24354872Y-51413338D01*
X24235227Y-51248660D01*
X24235223Y-51248655D01*
X24084964Y-51098396D01*
X24084959Y-51098392D01*
X23913057Y-50973499D01*
X23723715Y-50877023D01*
X23521624Y-50811361D01*
X23455500Y-50800888D01*
X23455500Y-51848974D01*
X23388843Y-51810490D01*
X23268035Y-51778120D01*
X23142965Y-51778120D01*
X23022157Y-51810490D01*
X22955500Y-51848974D01*
X22955500Y-50800888D01*
X22955499Y-50800888D01*
X22889375Y-50811361D01*
X22687284Y-50877023D01*
X22497942Y-50973499D01*
X22326040Y-51098392D01*
X22326035Y-51098396D01*
X22175776Y-51248655D01*
X22175772Y-51248660D01*
X22055818Y-51413764D01*
X22000488Y-51456430D01*
X21930875Y-51462409D01*
X21869080Y-51429804D01*
X21855182Y-51413764D01*
X21735227Y-51248660D01*
X21735223Y-51248655D01*
X21584964Y-51098396D01*
X21584959Y-51098392D01*
X21413057Y-50973499D01*
X21223715Y-50877023D01*
X21021624Y-50811361D01*
X20955500Y-50800888D01*
X20955500Y-51848974D01*
X20888843Y-51810490D01*
X20768035Y-51778120D01*
X20642965Y-51778120D01*
X20522157Y-51810490D01*
X20455500Y-51848974D01*
X20455500Y-50800888D01*
X20455499Y-50800888D01*
X20389375Y-50811361D01*
X20187284Y-50877023D01*
X19997942Y-50973499D01*
X19826040Y-51098392D01*
X19826035Y-51098396D01*
X19675776Y-51248655D01*
X19675772Y-51248660D01*
X19550879Y-51420562D01*
X19454404Y-51609902D01*
X19388742Y-51811989D01*
X19388742Y-51811992D01*
X19358470Y-52003120D01*
X17113915Y-52003120D01*
X17111841Y-43253350D01*
X19358470Y-43253350D01*
X20301354Y-43253350D01*
X20262870Y-43320007D01*
X20230500Y-43440815D01*
X20230500Y-43565885D01*
X20262870Y-43686693D01*
X20301354Y-43753350D01*
X19358470Y-43753350D01*
X19388742Y-43944477D01*
X19388742Y-43944480D01*
X19454404Y-44146567D01*
X19550879Y-44335907D01*
X19675772Y-44507809D01*
X19675776Y-44507814D01*
X19826035Y-44658073D01*
X19826040Y-44658077D01*
X19997942Y-44782970D01*
X20187282Y-44879445D01*
X20389371Y-44945107D01*
X20455500Y-44955581D01*
X20455500Y-43907495D01*
X20522157Y-43945980D01*
X20642965Y-43978350D01*
X20768035Y-43978350D01*
X20888843Y-43945980D01*
X20955500Y-43907495D01*
X20955500Y-44955580D01*
X21021626Y-44945107D01*
X21021629Y-44945107D01*
X21223717Y-44879445D01*
X21413057Y-44782970D01*
X21584959Y-44658077D01*
X21584964Y-44658073D01*
X21735227Y-44507810D01*
X21855182Y-44342705D01*
X21910511Y-44300039D01*
X21980125Y-44294060D01*
X22041920Y-44326665D01*
X22055818Y-44342705D01*
X22175772Y-44507810D01*
X22326035Y-44658073D01*
X22326040Y-44658077D01*
X22497942Y-44782970D01*
X22687282Y-44879445D01*
X22889371Y-44945107D01*
X22955500Y-44955581D01*
X22955500Y-43907495D01*
X23022157Y-43945980D01*
X23142965Y-43978350D01*
X23268035Y-43978350D01*
X23388843Y-43945980D01*
X23455500Y-43907495D01*
X23455500Y-44955580D01*
X23521626Y-44945107D01*
X23521629Y-44945107D01*
X23723717Y-44879445D01*
X23913057Y-44782970D01*
X24084959Y-44658077D01*
X24084964Y-44658073D01*
X24235221Y-44507816D01*
X24354871Y-44343131D01*
X24410201Y-44300465D01*
X24479814Y-44294486D01*
X24541610Y-44327091D01*
X24555508Y-44343131D01*
X24675390Y-44508135D01*
X24675394Y-44508140D01*
X24825713Y-44658459D01*
X24997679Y-44783398D01*
X24997681Y-44783399D01*
X24997684Y-44783401D01*
X25187088Y-44879907D01*
X25389257Y-44945596D01*
X25599213Y-44978850D01*
X25599214Y-44978850D01*
X25811786Y-44978850D01*
X25811787Y-44978850D01*
X26021743Y-44945596D01*
X26223912Y-44879907D01*
X26413316Y-44783401D01*
X26585292Y-44658454D01*
X26724104Y-44519641D01*
X26785423Y-44486159D01*
X26855115Y-44491143D01*
X26911049Y-44533014D01*
X26917321Y-44542228D01*
X26920685Y-44547683D01*
X26920686Y-44547684D01*
X27012788Y-44697006D01*
X27136844Y-44821062D01*
X27286166Y-44913164D01*
X27452703Y-44968349D01*
X27555491Y-44978850D01*
X28855508Y-44978849D01*
X28958297Y-44968349D01*
X29124834Y-44913164D01*
X29274156Y-44821062D01*
X29398212Y-44697006D01*
X29490314Y-44547684D01*
X29545499Y-44381147D01*
X29556000Y-44278359D01*
X29555999Y-42728342D01*
X29554351Y-42712213D01*
X29545499Y-42625553D01*
X29545498Y-42625550D01*
X29507604Y-42511195D01*
X29490314Y-42459016D01*
X29398212Y-42309694D01*
X29274156Y-42185638D01*
X29124834Y-42093536D01*
X28958297Y-42038351D01*
X28958295Y-42038350D01*
X28855510Y-42027850D01*
X27555498Y-42027850D01*
X27555481Y-42027851D01*
X27452703Y-42038350D01*
X27452700Y-42038351D01*
X27286168Y-42093535D01*
X27286163Y-42093537D01*
X27136842Y-42185639D01*
X27012789Y-42309692D01*
X26917321Y-42464471D01*
X26865373Y-42511195D01*
X26796410Y-42522418D01*
X26732328Y-42494574D01*
X26724101Y-42487055D01*
X26585286Y-42348240D01*
X26413320Y-42223301D01*
X26223914Y-42126794D01*
X26223913Y-42126793D01*
X26223912Y-42126793D01*
X26021743Y-42061104D01*
X26021741Y-42061103D01*
X26021740Y-42061103D01*
X25860457Y-42035558D01*
X25811787Y-42027850D01*
X25599213Y-42027850D01*
X25550542Y-42035558D01*
X25389260Y-42061103D01*
X25389257Y-42061104D01*
X25190317Y-42125744D01*
X25187085Y-42126794D01*
X24997679Y-42223301D01*
X24825713Y-42348240D01*
X24675394Y-42498559D01*
X24675390Y-42498564D01*
X24555508Y-42663568D01*
X24500178Y-42706234D01*
X24430565Y-42712213D01*
X24368770Y-42679607D01*
X24354872Y-42663568D01*
X24235227Y-42498890D01*
X24235223Y-42498885D01*
X24084964Y-42348626D01*
X24084959Y-42348622D01*
X23913057Y-42223729D01*
X23723715Y-42127253D01*
X23521624Y-42061591D01*
X23455500Y-42051118D01*
X23455500Y-43099204D01*
X23388843Y-43060720D01*
X23268035Y-43028350D01*
X23142965Y-43028350D01*
X23022157Y-43060720D01*
X22955500Y-43099204D01*
X22955500Y-42051118D01*
X22955499Y-42051118D01*
X22889375Y-42061591D01*
X22687284Y-42127253D01*
X22497942Y-42223729D01*
X22326040Y-42348622D01*
X22326035Y-42348626D01*
X22175776Y-42498885D01*
X22175772Y-42498890D01*
X22055818Y-42663994D01*
X22000488Y-42706660D01*
X21930875Y-42712639D01*
X21869080Y-42680034D01*
X21855182Y-42663994D01*
X21735227Y-42498890D01*
X21735223Y-42498885D01*
X21584964Y-42348626D01*
X21584959Y-42348622D01*
X21413057Y-42223729D01*
X21223715Y-42127253D01*
X21021624Y-42061591D01*
X20955500Y-42051118D01*
X20955500Y-43099204D01*
X20888843Y-43060720D01*
X20768035Y-43028350D01*
X20642965Y-43028350D01*
X20522157Y-43060720D01*
X20455500Y-43099204D01*
X20455500Y-42051118D01*
X20455499Y-42051118D01*
X20389375Y-42061591D01*
X20187284Y-42127253D01*
X19997942Y-42223729D01*
X19826040Y-42348622D01*
X19826035Y-42348626D01*
X19675776Y-42498885D01*
X19675772Y-42498890D01*
X19550879Y-42670792D01*
X19454404Y-42860132D01*
X19388742Y-43062219D01*
X19388742Y-43062222D01*
X19358470Y-43253350D01*
X17111841Y-43253350D01*
X17107698Y-25772013D01*
X19355000Y-25772013D01*
X19355000Y-26234587D01*
X19360563Y-26269710D01*
X19385554Y-26427500D01*
X19388254Y-26444543D01*
X19399222Y-26478300D01*
X19453944Y-26646714D01*
X19550451Y-26836120D01*
X19675390Y-27008086D01*
X19675396Y-27008092D01*
X19825708Y-27158404D01*
X19903884Y-27215202D01*
X19946551Y-27270531D01*
X19955000Y-27315520D01*
X19955000Y-33441079D01*
X19935315Y-33508118D01*
X19903885Y-33541397D01*
X19825711Y-33598193D01*
X19825705Y-33598198D01*
X19675390Y-33748513D01*
X19550451Y-33920479D01*
X19453944Y-34109885D01*
X19388253Y-34312060D01*
X19364562Y-34461643D01*
X19355000Y-34522013D01*
X19355000Y-34984587D01*
X19388254Y-35194543D01*
X19453621Y-35395722D01*
X19453944Y-35396714D01*
X19550451Y-35586120D01*
X19675390Y-35758086D01*
X19825713Y-35908409D01*
X19997679Y-36033348D01*
X19997681Y-36033349D01*
X19997684Y-36033351D01*
X20187088Y-36129857D01*
X20389257Y-36195546D01*
X20599213Y-36228800D01*
X20599214Y-36228800D01*
X20811786Y-36228800D01*
X20811787Y-36228800D01*
X21021743Y-36195546D01*
X21223912Y-36129857D01*
X21413316Y-36033351D01*
X21453961Y-36003821D01*
X21585286Y-35908409D01*
X21585288Y-35908406D01*
X21585292Y-35908404D01*
X21735604Y-35758092D01*
X21855491Y-35593079D01*
X21910820Y-35550415D01*
X21980433Y-35544436D01*
X22042229Y-35577041D01*
X22056127Y-35593081D01*
X22175772Y-35757759D01*
X22175776Y-35757764D01*
X22326035Y-35908023D01*
X22326040Y-35908027D01*
X22497942Y-36032920D01*
X22687282Y-36129395D01*
X22889371Y-36195057D01*
X22955500Y-36205531D01*
X22955500Y-35157445D01*
X23022157Y-35195930D01*
X23142965Y-35228300D01*
X23268035Y-35228300D01*
X23388843Y-35195930D01*
X23455500Y-35157445D01*
X23455500Y-36205530D01*
X23521626Y-36195057D01*
X23521629Y-36195057D01*
X23723717Y-36129395D01*
X23913057Y-36032920D01*
X24084959Y-35908027D01*
X24084964Y-35908023D01*
X24235221Y-35757766D01*
X24354871Y-35593081D01*
X24410201Y-35550415D01*
X24479814Y-35544436D01*
X24541610Y-35577041D01*
X24555508Y-35593081D01*
X24675390Y-35758085D01*
X24675394Y-35758090D01*
X24825713Y-35908409D01*
X24997679Y-36033348D01*
X24997681Y-36033349D01*
X24997684Y-36033351D01*
X25187088Y-36129857D01*
X25389257Y-36195546D01*
X25599213Y-36228800D01*
X25599214Y-36228800D01*
X25811786Y-36228800D01*
X25811787Y-36228800D01*
X26021743Y-36195546D01*
X26223912Y-36129857D01*
X26413316Y-36033351D01*
X26585292Y-35908404D01*
X26724104Y-35769591D01*
X26785423Y-35736109D01*
X26855115Y-35741093D01*
X26911049Y-35782964D01*
X26917321Y-35792178D01*
X26920685Y-35797633D01*
X26920686Y-35797634D01*
X27012788Y-35946956D01*
X27136844Y-36071012D01*
X27286166Y-36163114D01*
X27452703Y-36218299D01*
X27555491Y-36228800D01*
X28855508Y-36228799D01*
X28958297Y-36218299D01*
X29124834Y-36163114D01*
X29274156Y-36071012D01*
X29398212Y-35946956D01*
X29490314Y-35797634D01*
X29545499Y-35631097D01*
X29556000Y-35528309D01*
X29555999Y-33978292D01*
X29554351Y-33962163D01*
X29545499Y-33875503D01*
X29545498Y-33875500D01*
X29507397Y-33760519D01*
X29490314Y-33708966D01*
X29398212Y-33559644D01*
X29274156Y-33435588D01*
X29177147Y-33375753D01*
X29124836Y-33343487D01*
X29124831Y-33343485D01*
X29098787Y-33334855D01*
X28958297Y-33288301D01*
X28958295Y-33288300D01*
X28855510Y-33277800D01*
X27555498Y-33277800D01*
X27555481Y-33277801D01*
X27452703Y-33288300D01*
X27452700Y-33288301D01*
X27286168Y-33343485D01*
X27286163Y-33343487D01*
X27136842Y-33435589D01*
X27012789Y-33559642D01*
X26917321Y-33714421D01*
X26865373Y-33761145D01*
X26796410Y-33772368D01*
X26732328Y-33744524D01*
X26724101Y-33737005D01*
X26585286Y-33598190D01*
X26413320Y-33473251D01*
X26223914Y-33376744D01*
X26223913Y-33376743D01*
X26223912Y-33376743D01*
X26021743Y-33311054D01*
X26021741Y-33311053D01*
X26021740Y-33311053D01*
X25860457Y-33285508D01*
X25811787Y-33277800D01*
X25599213Y-33277800D01*
X25550542Y-33285508D01*
X25389260Y-33311053D01*
X25389257Y-33311054D01*
X25281813Y-33345965D01*
X25187085Y-33376744D01*
X24997679Y-33473251D01*
X24825713Y-33598190D01*
X24675394Y-33748509D01*
X24675390Y-33748514D01*
X24555508Y-33913518D01*
X24500178Y-33956184D01*
X24430565Y-33962163D01*
X24368770Y-33929557D01*
X24354872Y-33913518D01*
X24235227Y-33748840D01*
X24235223Y-33748835D01*
X24084964Y-33598576D01*
X24084959Y-33598572D01*
X23913057Y-33473679D01*
X23723715Y-33377203D01*
X23521624Y-33311541D01*
X23455500Y-33301068D01*
X23455500Y-34349154D01*
X23388843Y-34310670D01*
X23268035Y-34278300D01*
X23142965Y-34278300D01*
X23022157Y-34310670D01*
X22955500Y-34349154D01*
X22955500Y-33301068D01*
X22955499Y-33301068D01*
X22889375Y-33311541D01*
X22687284Y-33377203D01*
X22497942Y-33473679D01*
X22326040Y-33598572D01*
X22326035Y-33598576D01*
X22175776Y-33748835D01*
X22175772Y-33748840D01*
X22056127Y-33913518D01*
X22000797Y-33956184D01*
X21931184Y-33962163D01*
X21869389Y-33929557D01*
X21855491Y-33913518D01*
X21735609Y-33748514D01*
X21735605Y-33748509D01*
X21585294Y-33598198D01*
X21585288Y-33598193D01*
X21507115Y-33541397D01*
X21464449Y-33486067D01*
X21456000Y-33441079D01*
X21456000Y-30445039D01*
X41859500Y-30445039D01*
X41859500Y-32434960D01*
X41874630Y-32569249D01*
X41874631Y-32569254D01*
X41934211Y-32739523D01*
X42004509Y-32851401D01*
X42030184Y-32892262D01*
X42157738Y-33019816D01*
X42310478Y-33115789D01*
X42419779Y-33154035D01*
X42480745Y-33175368D01*
X42480750Y-33175369D01*
X42571246Y-33185565D01*
X42615040Y-33190499D01*
X42615043Y-33190500D01*
X42615046Y-33190500D01*
X42866921Y-33190500D01*
X42933960Y-33210185D01*
X42979715Y-33262989D01*
X42989659Y-33332147D01*
X42971915Y-33380472D01*
X42934211Y-33440476D01*
X42874631Y-33610745D01*
X42874630Y-33610750D01*
X42859500Y-33745039D01*
X42859500Y-35734960D01*
X42874630Y-35869249D01*
X42874631Y-35869254D01*
X42934211Y-36039523D01*
X42990349Y-36128865D01*
X43030184Y-36192262D01*
X43157738Y-36319816D01*
X43240126Y-36371584D01*
X43310474Y-36415787D01*
X43310478Y-36415789D01*
X43480745Y-36475368D01*
X43480750Y-36475369D01*
X43571246Y-36485565D01*
X43615040Y-36490499D01*
X43615043Y-36490500D01*
X43615046Y-36490500D01*
X44604957Y-36490500D01*
X44604958Y-36490499D01*
X44672104Y-36482934D01*
X44739249Y-36475369D01*
X44739252Y-36475368D01*
X44739255Y-36475368D01*
X44909522Y-36415789D01*
X45062262Y-36319816D01*
X45189816Y-36192262D01*
X45285789Y-36039522D01*
X45345368Y-35869255D01*
X45360500Y-35734954D01*
X45360500Y-35614500D01*
X45380185Y-35547461D01*
X45432989Y-35501706D01*
X45484500Y-35490500D01*
X45561889Y-35490500D01*
X45659431Y-35471096D01*
X45706882Y-35461658D01*
X45843464Y-35405084D01*
X45892698Y-35372186D01*
X45966385Y-35322952D01*
X48357556Y-32931779D01*
X48418877Y-32898296D01*
X48488569Y-32903280D01*
X48544502Y-32945152D01*
X48563165Y-32981143D01*
X48604780Y-33109219D01*
X48696026Y-33288300D01*
X48697715Y-33291613D01*
X48818028Y-33457213D01*
X48962786Y-33601971D01*
X49108980Y-33708185D01*
X49128390Y-33722287D01*
X49244607Y-33781503D01*
X49310776Y-33815218D01*
X49310778Y-33815218D01*
X49310781Y-33815220D01*
X49393728Y-33842171D01*
X49505465Y-33878477D01*
X49593838Y-33892474D01*
X49707648Y-33910500D01*
X49707649Y-33910500D01*
X49912351Y-33910500D01*
X49912352Y-33910500D01*
X50114534Y-33878477D01*
X50309219Y-33815220D01*
X50491610Y-33722287D01*
X50593034Y-33648599D01*
X50657213Y-33601971D01*
X50657215Y-33601968D01*
X50657219Y-33601966D01*
X50801966Y-33457219D01*
X50801968Y-33457215D01*
X50801971Y-33457213D01*
X50854732Y-33384590D01*
X50922287Y-33291610D01*
X51015220Y-33109219D01*
X51078477Y-32914534D01*
X51110500Y-32712352D01*
X51110500Y-32507648D01*
X51078477Y-32305466D01*
X51073939Y-32291501D01*
X51015218Y-32110776D01*
X50981503Y-32044607D01*
X50922287Y-31928390D01*
X50914556Y-31917749D01*
X50801971Y-31762786D01*
X50657213Y-31618028D01*
X50491613Y-31497715D01*
X50491612Y-31497714D01*
X50491610Y-31497713D01*
X50309219Y-31404780D01*
X50181143Y-31363165D01*
X50123468Y-31323728D01*
X50096270Y-31259370D01*
X50108185Y-31190523D01*
X50131775Y-31157561D01*
X50402520Y-30886816D01*
X50463841Y-30853334D01*
X50490199Y-30850500D01*
X51920241Y-30850500D01*
X51987280Y-30870185D01*
X52033035Y-30922989D01*
X52042979Y-30992147D01*
X52013954Y-31055703D01*
X52007922Y-31062181D01*
X51961505Y-31108597D01*
X51825965Y-31302169D01*
X51825964Y-31302171D01*
X51726098Y-31516335D01*
X51726094Y-31516344D01*
X51664938Y-31744586D01*
X51664936Y-31744596D01*
X51644341Y-31979999D01*
X51644341Y-31980000D01*
X51664936Y-32215403D01*
X51664938Y-32215413D01*
X51726094Y-32443655D01*
X51726096Y-32443659D01*
X51726097Y-32443663D01*
X51799050Y-32600110D01*
X51825965Y-32657830D01*
X51825967Y-32657834D01*
X51961501Y-32851395D01*
X51961506Y-32851402D01*
X52128597Y-33018493D01*
X52128603Y-33018498D01*
X52314158Y-33148425D01*
X52357783Y-33203002D01*
X52364977Y-33272500D01*
X52333454Y-33334855D01*
X52314158Y-33351575D01*
X52128597Y-33481505D01*
X51961505Y-33648597D01*
X51825965Y-33842169D01*
X51825964Y-33842171D01*
X51726098Y-34056335D01*
X51726094Y-34056344D01*
X51664938Y-34284586D01*
X51664936Y-34284596D01*
X51644341Y-34519999D01*
X51644341Y-34520000D01*
X51664936Y-34755403D01*
X51664938Y-34755413D01*
X51726094Y-34983655D01*
X51726096Y-34983659D01*
X51726097Y-34983663D01*
X51823971Y-35193553D01*
X51825965Y-35197830D01*
X51825967Y-35197834D01*
X51913575Y-35322950D01*
X51961501Y-35391396D01*
X51961506Y-35391402D01*
X52083818Y-35513714D01*
X52117303Y-35575037D01*
X52112319Y-35644729D01*
X52070447Y-35700662D01*
X52039471Y-35717577D01*
X51907912Y-35766646D01*
X51907906Y-35766649D01*
X51792812Y-35852809D01*
X51792809Y-35852812D01*
X51706649Y-35967906D01*
X51706645Y-35967913D01*
X51656403Y-36102620D01*
X51656401Y-36102627D01*
X51650000Y-36162155D01*
X51650000Y-36810000D01*
X52555440Y-36810000D01*
X52524755Y-36863147D01*
X52490000Y-36992857D01*
X52490000Y-37127143D01*
X52524755Y-37256853D01*
X52555440Y-37310000D01*
X51650000Y-37310000D01*
X51650000Y-37957844D01*
X51656401Y-38017372D01*
X51656403Y-38017379D01*
X51706645Y-38152086D01*
X51706649Y-38152093D01*
X51792809Y-38267187D01*
X51792812Y-38267190D01*
X51907906Y-38353350D01*
X51907913Y-38353354D01*
X52039470Y-38402421D01*
X52095403Y-38444292D01*
X52119821Y-38509756D01*
X52104970Y-38578029D01*
X52083819Y-38606284D01*
X51961503Y-38728600D01*
X51825965Y-38922169D01*
X51825964Y-38922171D01*
X51726098Y-39136335D01*
X51726094Y-39136344D01*
X51664938Y-39364586D01*
X51664936Y-39364596D01*
X51644341Y-39599999D01*
X51644341Y-39600000D01*
X51664936Y-39835403D01*
X51664938Y-39835413D01*
X51726094Y-40063655D01*
X51726096Y-40063659D01*
X51726097Y-40063663D01*
X51825965Y-40277830D01*
X51825967Y-40277834D01*
X51961501Y-40471395D01*
X51961506Y-40471402D01*
X52128597Y-40638493D01*
X52128603Y-40638498D01*
X52314158Y-40768425D01*
X52357783Y-40823002D01*
X52364977Y-40892500D01*
X52333454Y-40954855D01*
X52314158Y-40971575D01*
X52128597Y-41101505D01*
X51961505Y-41268597D01*
X51825965Y-41462169D01*
X51825964Y-41462171D01*
X51726098Y-41676335D01*
X51726094Y-41676344D01*
X51664938Y-41904586D01*
X51664936Y-41904596D01*
X51644341Y-42139999D01*
X51644341Y-42140000D01*
X51664936Y-42375403D01*
X51664938Y-42375413D01*
X51726094Y-42603655D01*
X51726096Y-42603659D01*
X51726097Y-42603663D01*
X51783749Y-42727298D01*
X51825965Y-42817830D01*
X51825967Y-42817834D01*
X51961501Y-43011395D01*
X51961506Y-43011402D01*
X52128597Y-43178493D01*
X52128603Y-43178498D01*
X52314158Y-43308425D01*
X52357783Y-43363002D01*
X52364977Y-43432500D01*
X52333454Y-43494855D01*
X52314158Y-43511575D01*
X52128597Y-43641505D01*
X51961505Y-43808597D01*
X51825965Y-44002169D01*
X51825964Y-44002171D01*
X51726098Y-44216335D01*
X51726094Y-44216344D01*
X51664938Y-44444586D01*
X51664936Y-44444596D01*
X51644341Y-44679999D01*
X51644341Y-44680000D01*
X51664936Y-44915403D01*
X51664938Y-44915413D01*
X51726094Y-45143655D01*
X51726096Y-45143659D01*
X51726097Y-45143663D01*
X51825965Y-45357830D01*
X51825967Y-45357834D01*
X51961501Y-45551395D01*
X51961506Y-45551402D01*
X52128597Y-45718493D01*
X52128603Y-45718498D01*
X52314158Y-45848425D01*
X52357783Y-45903002D01*
X52364977Y-45972500D01*
X52333454Y-46034855D01*
X52314158Y-46051575D01*
X52128597Y-46181505D01*
X51961505Y-46348597D01*
X51825965Y-46542169D01*
X51825964Y-46542171D01*
X51726098Y-46756335D01*
X51726094Y-46756344D01*
X51664938Y-46984586D01*
X51664936Y-46984596D01*
X51644341Y-47219999D01*
X51644341Y-47220000D01*
X51664936Y-47455403D01*
X51664938Y-47455413D01*
X51726094Y-47683655D01*
X51726096Y-47683659D01*
X51726097Y-47683663D01*
X51825965Y-47897830D01*
X51825967Y-47897834D01*
X51934281Y-48052521D01*
X51961501Y-48091396D01*
X51961506Y-48091402D01*
X52083430Y-48213326D01*
X52116915Y-48274649D01*
X52111931Y-48344341D01*
X52070059Y-48400274D01*
X52039083Y-48417189D01*
X51907669Y-48466203D01*
X51907664Y-48466206D01*
X51792455Y-48552452D01*
X51792452Y-48552455D01*
X51706206Y-48667664D01*
X51706202Y-48667671D01*
X51655908Y-48802517D01*
X51649501Y-48862116D01*
X51649501Y-48862123D01*
X51649500Y-48862135D01*
X51649500Y-50657870D01*
X51649501Y-50657876D01*
X51655908Y-50717483D01*
X51706202Y-50852328D01*
X51706206Y-50852335D01*
X51792452Y-50967544D01*
X51792455Y-50967547D01*
X51907664Y-51053793D01*
X51907671Y-51053797D01*
X52039081Y-51102810D01*
X52095015Y-51144681D01*
X52119432Y-51210145D01*
X52104580Y-51278418D01*
X52083430Y-51306673D01*
X51961503Y-51428600D01*
X51825965Y-51622169D01*
X51825964Y-51622171D01*
X51726098Y-51836335D01*
X51726094Y-51836344D01*
X51664938Y-52064586D01*
X51664936Y-52064596D01*
X51644341Y-52299999D01*
X51644341Y-52300000D01*
X51664936Y-52535403D01*
X51664938Y-52535413D01*
X51726094Y-52763655D01*
X51726096Y-52763659D01*
X51726097Y-52763663D01*
X51787582Y-52895517D01*
X51825965Y-52977830D01*
X51825967Y-52977834D01*
X51961501Y-53171395D01*
X51961506Y-53171402D01*
X52128597Y-53338493D01*
X52128603Y-53338498D01*
X52314158Y-53468425D01*
X52357783Y-53523002D01*
X52364977Y-53592500D01*
X52333454Y-53654855D01*
X52314158Y-53671575D01*
X52128597Y-53801505D01*
X51961505Y-53968597D01*
X51825965Y-54162169D01*
X51825964Y-54162171D01*
X51726098Y-54376335D01*
X51726094Y-54376344D01*
X51664938Y-54604586D01*
X51664936Y-54604596D01*
X51644341Y-54839999D01*
X51644341Y-54840000D01*
X51664936Y-55075403D01*
X51664938Y-55075413D01*
X51726094Y-55303655D01*
X51726096Y-55303659D01*
X51726097Y-55303663D01*
X51825965Y-55517830D01*
X51825967Y-55517834D01*
X51961501Y-55711395D01*
X51961506Y-55711402D01*
X52128597Y-55878493D01*
X52128603Y-55878498D01*
X52314158Y-56008425D01*
X52357783Y-56063002D01*
X52364977Y-56132500D01*
X52333454Y-56194855D01*
X52314158Y-56211575D01*
X52128597Y-56341505D01*
X51961505Y-56508597D01*
X51825965Y-56702169D01*
X51825964Y-56702171D01*
X51726098Y-56916335D01*
X51726094Y-56916344D01*
X51664938Y-57144586D01*
X51664936Y-57144596D01*
X51644341Y-57379999D01*
X51644341Y-57380000D01*
X51664936Y-57615403D01*
X51664938Y-57615413D01*
X51726094Y-57843655D01*
X51726096Y-57843659D01*
X51726097Y-57843663D01*
X51825965Y-58057830D01*
X51825967Y-58057834D01*
X51961501Y-58251395D01*
X51961506Y-58251402D01*
X52128597Y-58418493D01*
X52128603Y-58418498D01*
X52314158Y-58548425D01*
X52357783Y-58603002D01*
X52364977Y-58672500D01*
X52333454Y-58734855D01*
X52314158Y-58751575D01*
X52128597Y-58881505D01*
X51961505Y-59048597D01*
X51825965Y-59242169D01*
X51825964Y-59242171D01*
X51726098Y-59456335D01*
X51726094Y-59456344D01*
X51664938Y-59684586D01*
X51664936Y-59684596D01*
X51644341Y-59919999D01*
X51644341Y-59920000D01*
X51664936Y-60155403D01*
X51664938Y-60155413D01*
X51726094Y-60383655D01*
X51726096Y-60383659D01*
X51726097Y-60383663D01*
X51808870Y-60561169D01*
X51825965Y-60597830D01*
X51825967Y-60597834D01*
X51905693Y-60711693D01*
X51961501Y-60791396D01*
X51961506Y-60791402D01*
X52083430Y-60913326D01*
X52116915Y-60974649D01*
X52111931Y-61044341D01*
X52070059Y-61100274D01*
X52039083Y-61117189D01*
X51907669Y-61166203D01*
X51907664Y-61166206D01*
X51792455Y-61252452D01*
X51792452Y-61252455D01*
X51706206Y-61367664D01*
X51706202Y-61367671D01*
X51655908Y-61502517D01*
X51649501Y-61562116D01*
X51649501Y-61562123D01*
X51649500Y-61562135D01*
X51649500Y-63357870D01*
X51649501Y-63357876D01*
X51655908Y-63417483D01*
X51706202Y-63552328D01*
X51706206Y-63552335D01*
X51792452Y-63667544D01*
X51792455Y-63667547D01*
X51907664Y-63753793D01*
X51907671Y-63753797D01*
X52039081Y-63802810D01*
X52095015Y-63844681D01*
X52119432Y-63910145D01*
X52104580Y-63978418D01*
X52083430Y-64006673D01*
X51961503Y-64128600D01*
X51825965Y-64322169D01*
X51825964Y-64322171D01*
X51726098Y-64536335D01*
X51726094Y-64536344D01*
X51664938Y-64764586D01*
X51664936Y-64764596D01*
X51644341Y-64999999D01*
X51644341Y-65000000D01*
X51664936Y-65235403D01*
X51664938Y-65235413D01*
X51726094Y-65463655D01*
X51726096Y-65463659D01*
X51726097Y-65463663D01*
X51825965Y-65677830D01*
X51825967Y-65677834D01*
X51961501Y-65871395D01*
X51961506Y-65871402D01*
X52128597Y-66038493D01*
X52128603Y-66038498D01*
X52314158Y-66168425D01*
X52357783Y-66223002D01*
X52364977Y-66292500D01*
X52333454Y-66354855D01*
X52314158Y-66371575D01*
X52128597Y-66501505D01*
X51961505Y-66668597D01*
X51825965Y-66862169D01*
X51825964Y-66862171D01*
X51726098Y-67076335D01*
X51726094Y-67076344D01*
X51664938Y-67304586D01*
X51664936Y-67304596D01*
X51644341Y-67539999D01*
X51644341Y-67540000D01*
X51664936Y-67775403D01*
X51664938Y-67775413D01*
X51726094Y-68003655D01*
X51726096Y-68003659D01*
X51726097Y-68003663D01*
X51825965Y-68217830D01*
X51825967Y-68217834D01*
X51961501Y-68411395D01*
X51961506Y-68411402D01*
X52128597Y-68578493D01*
X52128603Y-68578498D01*
X52314158Y-68708425D01*
X52357783Y-68763002D01*
X52364977Y-68832500D01*
X52333454Y-68894855D01*
X52314158Y-68911575D01*
X52128597Y-69041505D01*
X51961505Y-69208597D01*
X51825965Y-69402169D01*
X51825964Y-69402171D01*
X51726098Y-69616335D01*
X51726094Y-69616344D01*
X51664938Y-69844586D01*
X51664936Y-69844596D01*
X51644341Y-70079999D01*
X51644341Y-70080000D01*
X51664936Y-70315403D01*
X51664938Y-70315413D01*
X51726094Y-70543655D01*
X51726096Y-70543659D01*
X51726097Y-70543663D01*
X51749118Y-70593031D01*
X51825965Y-70757830D01*
X51825967Y-70757834D01*
X51853802Y-70797586D01*
X51957692Y-70945956D01*
X51961501Y-70951395D01*
X51961506Y-70951402D01*
X52128597Y-71118493D01*
X52128603Y-71118498D01*
X52314158Y-71248425D01*
X52357783Y-71303002D01*
X52364977Y-71372500D01*
X52333454Y-71434855D01*
X52314158Y-71451575D01*
X52128597Y-71581505D01*
X51961505Y-71748597D01*
X51825965Y-71942169D01*
X51825964Y-71942171D01*
X51726098Y-72156335D01*
X51726094Y-72156344D01*
X51664938Y-72384586D01*
X51664936Y-72384596D01*
X51644341Y-72619999D01*
X51644341Y-72620000D01*
X51664936Y-72855403D01*
X51664938Y-72855413D01*
X51726094Y-73083655D01*
X51726096Y-73083659D01*
X51726097Y-73083663D01*
X51825965Y-73297830D01*
X51825967Y-73297834D01*
X51934281Y-73452521D01*
X51961501Y-73491396D01*
X51961506Y-73491402D01*
X52083430Y-73613326D01*
X52116915Y-73674649D01*
X52111931Y-73744341D01*
X52070059Y-73800274D01*
X52039083Y-73817189D01*
X51907669Y-73866203D01*
X51907664Y-73866206D01*
X51792455Y-73952452D01*
X51792452Y-73952455D01*
X51706206Y-74067664D01*
X51706202Y-74067671D01*
X51655908Y-74202517D01*
X51649501Y-74262116D01*
X51649501Y-74262123D01*
X51649500Y-74262135D01*
X51649500Y-76057870D01*
X51649501Y-76057876D01*
X51655908Y-76117483D01*
X51706202Y-76252328D01*
X51706206Y-76252335D01*
X51792452Y-76367544D01*
X51792455Y-76367547D01*
X51907664Y-76453793D01*
X51907671Y-76453797D01*
X52039081Y-76502810D01*
X52095015Y-76544681D01*
X52119432Y-76610145D01*
X52104580Y-76678418D01*
X52083430Y-76706673D01*
X51961503Y-76828600D01*
X51825965Y-77022169D01*
X51825964Y-77022171D01*
X51726098Y-77236335D01*
X51726094Y-77236344D01*
X51664938Y-77464586D01*
X51664936Y-77464596D01*
X51644341Y-77699999D01*
X51644341Y-77700000D01*
X51664936Y-77935403D01*
X51664938Y-77935413D01*
X51726094Y-78163655D01*
X51726096Y-78163659D01*
X51726097Y-78163663D01*
X51784923Y-78289815D01*
X51825965Y-78377830D01*
X51825967Y-78377834D01*
X51909908Y-78497713D01*
X51956907Y-78564835D01*
X51961501Y-78571395D01*
X51961506Y-78571402D01*
X52128597Y-78738493D01*
X52128603Y-78738498D01*
X52314158Y-78868425D01*
X52357783Y-78923002D01*
X52364977Y-78992500D01*
X52333454Y-79054855D01*
X52314158Y-79071575D01*
X52128597Y-79201505D01*
X51961505Y-79368597D01*
X51825965Y-79562169D01*
X51825964Y-79562171D01*
X51726098Y-79776335D01*
X51726094Y-79776344D01*
X51664938Y-80004586D01*
X51664936Y-80004596D01*
X51644341Y-80239999D01*
X51644341Y-80240000D01*
X51664936Y-80475403D01*
X51664938Y-80475413D01*
X51726094Y-80703655D01*
X51726096Y-80703659D01*
X51726097Y-80703663D01*
X51734782Y-80722287D01*
X51825965Y-80917830D01*
X51825967Y-80917834D01*
X51917458Y-81048495D01*
X51961505Y-81111401D01*
X52128599Y-81278495D01*
X52225384Y-81346265D01*
X52322165Y-81414032D01*
X52322167Y-81414033D01*
X52322170Y-81414035D01*
X52536337Y-81513903D01*
X52764592Y-81575063D01*
X52952918Y-81591539D01*
X52999999Y-81595659D01*
X53000000Y-81595659D01*
X53000001Y-81595659D01*
X53039234Y-81592226D01*
X53235408Y-81575063D01*
X53463663Y-81513903D01*
X53677830Y-81414035D01*
X53871401Y-81278495D01*
X54038495Y-81111401D01*
X54174035Y-80917830D01*
X54273903Y-80703663D01*
X54335063Y-80475408D01*
X54355659Y-80240000D01*
X54335063Y-80004592D01*
X54275768Y-79783298D01*
X54273905Y-79776344D01*
X54273904Y-79776343D01*
X54273903Y-79776337D01*
X54174035Y-79562171D01*
X54163822Y-79547584D01*
X54038494Y-79368597D01*
X53871402Y-79201506D01*
X53871396Y-79201501D01*
X53685842Y-79071575D01*
X53642217Y-79016998D01*
X53635023Y-78947500D01*
X53666546Y-78885145D01*
X53685842Y-78868425D01*
X53732197Y-78835967D01*
X53871401Y-78738495D01*
X54038495Y-78571401D01*
X54174035Y-78377830D01*
X54232571Y-78252300D01*
X58667470Y-78252300D01*
X59610354Y-78252300D01*
X59571870Y-78318957D01*
X59539500Y-78439765D01*
X59539500Y-78564835D01*
X59571870Y-78685643D01*
X59610354Y-78752300D01*
X58667470Y-78752300D01*
X58697742Y-78943427D01*
X58697742Y-78943430D01*
X58763404Y-79145517D01*
X58859879Y-79334857D01*
X58984772Y-79506759D01*
X58984776Y-79506764D01*
X59135035Y-79657023D01*
X59135040Y-79657027D01*
X59306942Y-79781920D01*
X59496282Y-79878395D01*
X59698371Y-79944057D01*
X59764500Y-79954531D01*
X59764500Y-78906445D01*
X59831157Y-78944930D01*
X59951965Y-78977300D01*
X60077035Y-78977300D01*
X60197843Y-78944930D01*
X60264500Y-78906445D01*
X60264500Y-79954530D01*
X60330626Y-79944057D01*
X60330629Y-79944057D01*
X60532717Y-79878395D01*
X60722057Y-79781920D01*
X60893959Y-79657027D01*
X60893964Y-79657023D01*
X61044227Y-79506760D01*
X61164182Y-79341655D01*
X61219511Y-79298989D01*
X61289125Y-79293010D01*
X61350920Y-79325615D01*
X61364818Y-79341655D01*
X61484772Y-79506760D01*
X61635035Y-79657023D01*
X61635040Y-79657027D01*
X61806942Y-79781920D01*
X61996282Y-79878395D01*
X62198371Y-79944057D01*
X62264500Y-79954531D01*
X62264500Y-78906445D01*
X62331157Y-78944930D01*
X62451965Y-78977300D01*
X62577035Y-78977300D01*
X62697843Y-78944930D01*
X62764500Y-78906445D01*
X62764500Y-79954530D01*
X62830626Y-79944057D01*
X62830629Y-79944057D01*
X63032717Y-79878395D01*
X63222057Y-79781920D01*
X63393959Y-79657027D01*
X63393964Y-79657023D01*
X63544221Y-79506766D01*
X63663871Y-79342081D01*
X63719201Y-79299415D01*
X63788814Y-79293436D01*
X63850610Y-79326041D01*
X63864508Y-79342081D01*
X63984390Y-79507085D01*
X63984394Y-79507090D01*
X64134713Y-79657409D01*
X64306679Y-79782348D01*
X64306681Y-79782349D01*
X64306684Y-79782351D01*
X64496088Y-79878857D01*
X64698257Y-79944546D01*
X64908213Y-79977800D01*
X64908214Y-79977800D01*
X65120786Y-79977800D01*
X65120787Y-79977800D01*
X65330743Y-79944546D01*
X65532912Y-79878857D01*
X65722316Y-79782351D01*
X65818663Y-79712351D01*
X65894284Y-79657410D01*
X65894284Y-79657409D01*
X65894292Y-79657404D01*
X66033104Y-79518591D01*
X66094423Y-79485109D01*
X66164115Y-79490093D01*
X66220049Y-79531964D01*
X66226321Y-79541178D01*
X66229685Y-79546633D01*
X66229686Y-79546634D01*
X66321788Y-79695956D01*
X66445844Y-79820012D01*
X66595166Y-79912114D01*
X66761703Y-79967299D01*
X66864491Y-79977800D01*
X68164508Y-79977799D01*
X68267297Y-79967299D01*
X68433834Y-79912114D01*
X68583156Y-79820012D01*
X68707212Y-79695956D01*
X68799314Y-79546634D01*
X68854499Y-79380097D01*
X68865000Y-79277309D01*
X68864999Y-77727292D01*
X68863448Y-77712113D01*
X68854499Y-77624503D01*
X68854498Y-77624500D01*
X68799314Y-77457966D01*
X68707212Y-77308644D01*
X68583156Y-77184588D01*
X68435376Y-77093437D01*
X68433836Y-77092487D01*
X68433831Y-77092485D01*
X68432362Y-77091998D01*
X68267297Y-77037301D01*
X68267295Y-77037300D01*
X68164510Y-77026800D01*
X66864498Y-77026800D01*
X66864481Y-77026801D01*
X66761703Y-77037300D01*
X66761700Y-77037301D01*
X66595168Y-77092485D01*
X66595163Y-77092487D01*
X66445842Y-77184589D01*
X66321789Y-77308642D01*
X66226321Y-77463421D01*
X66174373Y-77510145D01*
X66105410Y-77521368D01*
X66041328Y-77493524D01*
X66033101Y-77486005D01*
X65894286Y-77347190D01*
X65722320Y-77222251D01*
X65532914Y-77125744D01*
X65532913Y-77125743D01*
X65532912Y-77125743D01*
X65330743Y-77060054D01*
X65330741Y-77060053D01*
X65330740Y-77060053D01*
X65169457Y-77034508D01*
X65120787Y-77026800D01*
X64908213Y-77026800D01*
X64859542Y-77034508D01*
X64698260Y-77060053D01*
X64496085Y-77125744D01*
X64306679Y-77222251D01*
X64134713Y-77347190D01*
X63984394Y-77497509D01*
X63984390Y-77497514D01*
X63864508Y-77662518D01*
X63809178Y-77705184D01*
X63739565Y-77711163D01*
X63677770Y-77678557D01*
X63663872Y-77662518D01*
X63544227Y-77497840D01*
X63544223Y-77497835D01*
X63393964Y-77347576D01*
X63393959Y-77347572D01*
X63222057Y-77222679D01*
X63032715Y-77126203D01*
X62830624Y-77060541D01*
X62764500Y-77050068D01*
X62764500Y-78098154D01*
X62697843Y-78059670D01*
X62577035Y-78027300D01*
X62451965Y-78027300D01*
X62331157Y-78059670D01*
X62264500Y-78098154D01*
X62264500Y-77050068D01*
X62264499Y-77050068D01*
X62198375Y-77060541D01*
X61996284Y-77126203D01*
X61806942Y-77222679D01*
X61635040Y-77347572D01*
X61635035Y-77347576D01*
X61484776Y-77497835D01*
X61484772Y-77497840D01*
X61364818Y-77662944D01*
X61309488Y-77705610D01*
X61239875Y-77711589D01*
X61178080Y-77678984D01*
X61164182Y-77662944D01*
X61044227Y-77497840D01*
X61044223Y-77497835D01*
X60893964Y-77347576D01*
X60893959Y-77347572D01*
X60722057Y-77222679D01*
X60532715Y-77126203D01*
X60330624Y-77060541D01*
X60264500Y-77050068D01*
X60264500Y-78098154D01*
X60197843Y-78059670D01*
X60077035Y-78027300D01*
X59951965Y-78027300D01*
X59831157Y-78059670D01*
X59764500Y-78098154D01*
X59764500Y-77050068D01*
X59764499Y-77050068D01*
X59698375Y-77060541D01*
X59496284Y-77126203D01*
X59306942Y-77222679D01*
X59135040Y-77347572D01*
X59135035Y-77347576D01*
X58984776Y-77497835D01*
X58984772Y-77497840D01*
X58859879Y-77669742D01*
X58763404Y-77859082D01*
X58697742Y-78061169D01*
X58697742Y-78061172D01*
X58667470Y-78252300D01*
X54232571Y-78252300D01*
X54273903Y-78163663D01*
X54335063Y-77935408D01*
X54355659Y-77700000D01*
X54335063Y-77464592D01*
X54273903Y-77236337D01*
X54174035Y-77022171D01*
X54038495Y-76828599D01*
X53916567Y-76706671D01*
X53883084Y-76645351D01*
X53888068Y-76575659D01*
X53929939Y-76519725D01*
X53960915Y-76502810D01*
X54092331Y-76453796D01*
X54207546Y-76367546D01*
X54293796Y-76252331D01*
X54344091Y-76117483D01*
X54350500Y-76057873D01*
X54350499Y-74262128D01*
X54344091Y-74202517D01*
X54293796Y-74067669D01*
X54293795Y-74067668D01*
X54293793Y-74067664D01*
X54207547Y-73952455D01*
X54207544Y-73952452D01*
X54092335Y-73866206D01*
X54092328Y-73866202D01*
X53960917Y-73817189D01*
X53904983Y-73775318D01*
X53880566Y-73709853D01*
X53895418Y-73641580D01*
X53916563Y-73613332D01*
X54038495Y-73491401D01*
X54174035Y-73297830D01*
X54273903Y-73083663D01*
X54335063Y-72855408D01*
X54355659Y-72620000D01*
X54335063Y-72384592D01*
X54273903Y-72156337D01*
X54174035Y-71942171D01*
X54038495Y-71748599D01*
X54038494Y-71748597D01*
X53871402Y-71581506D01*
X53871396Y-71581501D01*
X53685842Y-71451575D01*
X53642217Y-71396998D01*
X53635023Y-71327500D01*
X53666546Y-71265145D01*
X53685842Y-71248425D01*
X53747172Y-71205481D01*
X53871401Y-71118495D01*
X54038495Y-70951401D01*
X54174035Y-70757830D01*
X54273903Y-70543663D01*
X54335063Y-70315408D01*
X54355659Y-70080000D01*
X54335063Y-69844592D01*
X54273903Y-69616337D01*
X54220726Y-69502300D01*
X58667470Y-69502300D01*
X59610354Y-69502300D01*
X59571870Y-69568957D01*
X59539500Y-69689765D01*
X59539500Y-69814835D01*
X59571870Y-69935643D01*
X59610354Y-70002300D01*
X58667470Y-70002300D01*
X58697742Y-70193427D01*
X58697742Y-70193430D01*
X58763404Y-70395517D01*
X58859879Y-70584857D01*
X58984772Y-70756759D01*
X58984776Y-70756764D01*
X59135035Y-70907023D01*
X59135040Y-70907027D01*
X59306942Y-71031920D01*
X59496282Y-71128395D01*
X59698371Y-71194057D01*
X59764500Y-71204531D01*
X59764500Y-70156445D01*
X59831157Y-70194930D01*
X59951965Y-70227300D01*
X60077035Y-70227300D01*
X60197843Y-70194930D01*
X60264500Y-70156445D01*
X60264500Y-71204530D01*
X60330626Y-71194057D01*
X60330629Y-71194057D01*
X60532717Y-71128395D01*
X60722057Y-71031920D01*
X60893959Y-70907027D01*
X60893964Y-70907023D01*
X61044227Y-70756760D01*
X61164182Y-70591655D01*
X61219511Y-70548989D01*
X61289125Y-70543010D01*
X61350920Y-70575615D01*
X61364818Y-70591655D01*
X61484772Y-70756760D01*
X61635035Y-70907023D01*
X61635040Y-70907027D01*
X61806942Y-71031920D01*
X61996282Y-71128395D01*
X62198371Y-71194057D01*
X62264500Y-71204531D01*
X62264500Y-70156445D01*
X62331157Y-70194930D01*
X62451965Y-70227300D01*
X62577035Y-70227300D01*
X62697843Y-70194930D01*
X62764500Y-70156445D01*
X62764500Y-71204530D01*
X62830626Y-71194057D01*
X62830629Y-71194057D01*
X63032717Y-71128395D01*
X63222057Y-71031920D01*
X63393959Y-70907027D01*
X63393964Y-70907023D01*
X63544221Y-70756766D01*
X63663871Y-70592081D01*
X63719201Y-70549415D01*
X63788814Y-70543436D01*
X63850610Y-70576041D01*
X63864508Y-70592081D01*
X63984390Y-70757085D01*
X63984394Y-70757090D01*
X64134713Y-70907409D01*
X64306679Y-71032348D01*
X64306681Y-71032349D01*
X64306684Y-71032351D01*
X64496088Y-71128857D01*
X64698257Y-71194546D01*
X64908213Y-71227800D01*
X64908214Y-71227800D01*
X65120786Y-71227800D01*
X65120787Y-71227800D01*
X65330743Y-71194546D01*
X65532912Y-71128857D01*
X65722316Y-71032351D01*
X65833743Y-70951395D01*
X65894284Y-70907410D01*
X65894284Y-70907409D01*
X65894292Y-70907404D01*
X66033104Y-70768591D01*
X66094423Y-70735109D01*
X66164115Y-70740093D01*
X66220049Y-70781964D01*
X66226321Y-70791178D01*
X66229685Y-70796633D01*
X66229686Y-70796634D01*
X66321788Y-70945956D01*
X66445844Y-71070012D01*
X66595166Y-71162114D01*
X66761703Y-71217299D01*
X66864491Y-71227800D01*
X68164508Y-71227799D01*
X68267297Y-71217299D01*
X68433834Y-71162114D01*
X68583156Y-71070012D01*
X68707212Y-70945956D01*
X68799314Y-70796634D01*
X68854499Y-70630097D01*
X68865000Y-70527309D01*
X68864999Y-68977292D01*
X68863448Y-68962113D01*
X68854499Y-68874503D01*
X68854498Y-68874500D01*
X68848698Y-68856998D01*
X68799314Y-68707966D01*
X68707212Y-68558644D01*
X68583156Y-68434588D01*
X68435376Y-68343437D01*
X68433836Y-68342487D01*
X68433831Y-68342485D01*
X68432362Y-68341998D01*
X68267297Y-68287301D01*
X68267295Y-68287300D01*
X68164510Y-68276800D01*
X66864498Y-68276800D01*
X66864481Y-68276801D01*
X66761703Y-68287300D01*
X66761700Y-68287301D01*
X66595168Y-68342485D01*
X66595163Y-68342487D01*
X66445842Y-68434589D01*
X66321789Y-68558642D01*
X66226321Y-68713421D01*
X66174373Y-68760145D01*
X66105410Y-68771368D01*
X66041328Y-68743524D01*
X66033101Y-68736005D01*
X65894286Y-68597190D01*
X65722320Y-68472251D01*
X65532914Y-68375744D01*
X65532913Y-68375743D01*
X65532912Y-68375743D01*
X65330743Y-68310054D01*
X65330741Y-68310053D01*
X65330740Y-68310053D01*
X65169457Y-68284508D01*
X65120787Y-68276800D01*
X64908213Y-68276800D01*
X64859542Y-68284508D01*
X64698260Y-68310053D01*
X64496085Y-68375744D01*
X64306679Y-68472251D01*
X64134713Y-68597190D01*
X63984394Y-68747509D01*
X63984390Y-68747514D01*
X63864508Y-68912518D01*
X63809178Y-68955184D01*
X63739565Y-68961163D01*
X63677770Y-68928557D01*
X63663872Y-68912518D01*
X63544227Y-68747840D01*
X63544223Y-68747835D01*
X63393964Y-68597576D01*
X63393959Y-68597572D01*
X63222057Y-68472679D01*
X63032715Y-68376203D01*
X62830624Y-68310541D01*
X62764500Y-68300068D01*
X62764500Y-69348154D01*
X62697843Y-69309670D01*
X62577035Y-69277300D01*
X62451965Y-69277300D01*
X62331157Y-69309670D01*
X62264500Y-69348154D01*
X62264500Y-68300068D01*
X62264499Y-68300068D01*
X62198375Y-68310541D01*
X61996284Y-68376203D01*
X61806942Y-68472679D01*
X61635040Y-68597572D01*
X61635035Y-68597576D01*
X61484776Y-68747835D01*
X61484772Y-68747840D01*
X61364818Y-68912944D01*
X61309488Y-68955610D01*
X61239875Y-68961589D01*
X61178080Y-68928984D01*
X61164182Y-68912944D01*
X61044227Y-68747840D01*
X61044223Y-68747835D01*
X60893964Y-68597576D01*
X60893959Y-68597572D01*
X60722057Y-68472679D01*
X60532715Y-68376203D01*
X60330624Y-68310541D01*
X60264500Y-68300068D01*
X60264500Y-69348154D01*
X60197843Y-69309670D01*
X60077035Y-69277300D01*
X59951965Y-69277300D01*
X59831157Y-69309670D01*
X59764500Y-69348154D01*
X59764500Y-68300068D01*
X59764499Y-68300068D01*
X59698375Y-68310541D01*
X59496284Y-68376203D01*
X59306942Y-68472679D01*
X59135040Y-68597572D01*
X59135035Y-68597576D01*
X58984776Y-68747835D01*
X58984772Y-68747840D01*
X58859879Y-68919742D01*
X58763404Y-69109082D01*
X58697742Y-69311169D01*
X58697742Y-69311172D01*
X58667470Y-69502300D01*
X54220726Y-69502300D01*
X54174035Y-69402171D01*
X54110983Y-69312122D01*
X54038494Y-69208597D01*
X53871402Y-69041506D01*
X53871396Y-69041501D01*
X53685842Y-68911575D01*
X53642217Y-68856998D01*
X53635023Y-68787500D01*
X53666546Y-68725145D01*
X53685842Y-68708425D01*
X53708026Y-68692891D01*
X53871401Y-68578495D01*
X54038495Y-68411401D01*
X54174035Y-68217830D01*
X54273903Y-68003663D01*
X54335063Y-67775408D01*
X54355659Y-67540000D01*
X54335063Y-67304592D01*
X54273903Y-67076337D01*
X54174035Y-66862171D01*
X54038495Y-66668599D01*
X54038494Y-66668597D01*
X53871402Y-66501506D01*
X53871396Y-66501501D01*
X53685842Y-66371575D01*
X53642217Y-66316998D01*
X53635023Y-66247500D01*
X53666546Y-66185145D01*
X53685842Y-66168425D01*
X53708026Y-66152891D01*
X53871401Y-66038495D01*
X54038495Y-65871401D01*
X54174035Y-65677830D01*
X54273903Y-65463663D01*
X54335063Y-65235408D01*
X54355659Y-65000000D01*
X54335063Y-64764592D01*
X54273903Y-64536337D01*
X54174035Y-64322171D01*
X54038495Y-64128599D01*
X53916567Y-64006671D01*
X53883084Y-63945351D01*
X53888068Y-63875659D01*
X53929939Y-63819725D01*
X53960915Y-63802810D01*
X54092331Y-63753796D01*
X54207546Y-63667546D01*
X54293796Y-63552331D01*
X54344091Y-63417483D01*
X54350500Y-63357873D01*
X54350499Y-61562128D01*
X54344091Y-61502517D01*
X54335077Y-61478350D01*
X54293797Y-61367671D01*
X54293793Y-61367664D01*
X54207547Y-61252455D01*
X54207544Y-61252452D01*
X54092335Y-61166206D01*
X54092328Y-61166202D01*
X53960917Y-61117189D01*
X53904983Y-61075318D01*
X53880566Y-61009853D01*
X53895418Y-60941580D01*
X53916563Y-60913332D01*
X54038495Y-60791401D01*
X54065874Y-60752300D01*
X58667470Y-60752300D01*
X59610354Y-60752300D01*
X59571870Y-60818957D01*
X59539500Y-60939765D01*
X59539500Y-61064835D01*
X59571870Y-61185643D01*
X59610354Y-61252300D01*
X58667470Y-61252300D01*
X58697742Y-61443427D01*
X58697742Y-61443430D01*
X58763404Y-61645517D01*
X58859879Y-61834857D01*
X58984772Y-62006759D01*
X58984776Y-62006764D01*
X59135035Y-62157023D01*
X59135040Y-62157027D01*
X59306942Y-62281920D01*
X59496282Y-62378395D01*
X59698371Y-62444057D01*
X59764500Y-62454531D01*
X59764500Y-61406445D01*
X59831157Y-61444930D01*
X59951965Y-61477300D01*
X60077035Y-61477300D01*
X60197843Y-61444930D01*
X60264500Y-61406445D01*
X60264500Y-62454530D01*
X60330626Y-62444057D01*
X60330629Y-62444057D01*
X60532717Y-62378395D01*
X60722057Y-62281920D01*
X60893959Y-62157027D01*
X60893964Y-62157023D01*
X61044227Y-62006760D01*
X61164182Y-61841655D01*
X61219511Y-61798989D01*
X61289125Y-61793010D01*
X61350920Y-61825615D01*
X61364818Y-61841655D01*
X61484772Y-62006760D01*
X61635035Y-62157023D01*
X61635040Y-62157027D01*
X61806942Y-62281920D01*
X61996282Y-62378395D01*
X62198371Y-62444057D01*
X62264500Y-62454531D01*
X62264500Y-61406445D01*
X62331157Y-61444930D01*
X62451965Y-61477300D01*
X62577035Y-61477300D01*
X62697843Y-61444930D01*
X62764500Y-61406445D01*
X62764500Y-62454530D01*
X62830626Y-62444057D01*
X62830629Y-62444057D01*
X63032717Y-62378395D01*
X63222057Y-62281920D01*
X63393959Y-62157027D01*
X63393964Y-62157023D01*
X63544221Y-62006766D01*
X63663871Y-61842081D01*
X63719201Y-61799415D01*
X63788814Y-61793436D01*
X63850610Y-61826041D01*
X63864508Y-61842081D01*
X63984390Y-62007085D01*
X63984394Y-62007090D01*
X64134713Y-62157409D01*
X64306679Y-62282348D01*
X64306681Y-62282349D01*
X64306684Y-62282351D01*
X64496088Y-62378857D01*
X64698257Y-62444546D01*
X64908213Y-62477800D01*
X64908214Y-62477800D01*
X65120786Y-62477800D01*
X65120787Y-62477800D01*
X65330743Y-62444546D01*
X65532912Y-62378857D01*
X65722316Y-62282351D01*
X65894292Y-62157404D01*
X66033104Y-62018591D01*
X66094423Y-61985109D01*
X66164115Y-61990093D01*
X66220049Y-62031964D01*
X66226321Y-62041178D01*
X66229685Y-62046633D01*
X66229686Y-62046634D01*
X66321788Y-62195956D01*
X66445844Y-62320012D01*
X66595166Y-62412114D01*
X66761703Y-62467299D01*
X66864491Y-62477800D01*
X68164508Y-62477799D01*
X68267297Y-62467299D01*
X68433834Y-62412114D01*
X68583156Y-62320012D01*
X68707212Y-62195956D01*
X68799314Y-62046634D01*
X68854499Y-61880097D01*
X68865000Y-61777309D01*
X68864999Y-60227292D01*
X68863351Y-60211163D01*
X68854499Y-60124503D01*
X68854498Y-60124500D01*
X68816604Y-60010145D01*
X68799314Y-59957966D01*
X68707212Y-59808644D01*
X68583156Y-59684588D01*
X68435538Y-59593537D01*
X68433836Y-59592487D01*
X68433831Y-59592485D01*
X68432362Y-59591998D01*
X68267297Y-59537301D01*
X68267295Y-59537300D01*
X68164510Y-59526800D01*
X66864498Y-59526800D01*
X66864481Y-59526801D01*
X66761703Y-59537300D01*
X66761700Y-59537301D01*
X66595168Y-59592485D01*
X66595163Y-59592487D01*
X66445842Y-59684589D01*
X66321789Y-59808642D01*
X66226321Y-59963421D01*
X66174373Y-60010145D01*
X66105410Y-60021368D01*
X66041328Y-59993524D01*
X66033101Y-59986005D01*
X65894286Y-59847190D01*
X65722320Y-59722251D01*
X65532914Y-59625744D01*
X65532913Y-59625743D01*
X65532912Y-59625743D01*
X65330743Y-59560054D01*
X65330741Y-59560053D01*
X65330740Y-59560053D01*
X65169457Y-59534508D01*
X65120787Y-59526800D01*
X64908213Y-59526800D01*
X64859542Y-59534508D01*
X64698260Y-59560053D01*
X64496085Y-59625744D01*
X64306679Y-59722251D01*
X64134713Y-59847190D01*
X63984394Y-59997509D01*
X63984390Y-59997514D01*
X63864508Y-60162518D01*
X63809178Y-60205184D01*
X63739565Y-60211163D01*
X63677770Y-60178557D01*
X63663872Y-60162518D01*
X63544227Y-59997840D01*
X63544223Y-59997835D01*
X63393964Y-59847576D01*
X63393959Y-59847572D01*
X63222057Y-59722679D01*
X63032715Y-59626203D01*
X62830624Y-59560541D01*
X62764500Y-59550068D01*
X62764500Y-60598154D01*
X62697843Y-60559670D01*
X62577035Y-60527300D01*
X62451965Y-60527300D01*
X62331157Y-60559670D01*
X62264500Y-60598154D01*
X62264500Y-59550068D01*
X62264499Y-59550068D01*
X62198375Y-59560541D01*
X61996284Y-59626203D01*
X61806942Y-59722679D01*
X61635040Y-59847572D01*
X61635035Y-59847576D01*
X61484776Y-59997835D01*
X61484772Y-59997840D01*
X61364818Y-60162944D01*
X61309488Y-60205610D01*
X61239875Y-60211589D01*
X61178080Y-60178984D01*
X61164182Y-60162944D01*
X61044227Y-59997840D01*
X61044223Y-59997835D01*
X60893964Y-59847576D01*
X60893959Y-59847572D01*
X60722057Y-59722679D01*
X60532715Y-59626203D01*
X60330624Y-59560541D01*
X60264500Y-59550068D01*
X60264500Y-60598154D01*
X60197843Y-60559670D01*
X60077035Y-60527300D01*
X59951965Y-60527300D01*
X59831157Y-60559670D01*
X59764500Y-60598154D01*
X59764500Y-59550068D01*
X59764499Y-59550068D01*
X59698375Y-59560541D01*
X59496284Y-59626203D01*
X59306942Y-59722679D01*
X59135040Y-59847572D01*
X59135035Y-59847576D01*
X58984776Y-59997835D01*
X58984772Y-59997840D01*
X58859879Y-60169742D01*
X58763404Y-60359082D01*
X58697742Y-60561169D01*
X58697742Y-60561172D01*
X58667470Y-60752300D01*
X54065874Y-60752300D01*
X54174035Y-60597830D01*
X54273903Y-60383663D01*
X54335063Y-60155408D01*
X54355659Y-59920000D01*
X54335063Y-59684592D01*
X54273903Y-59456337D01*
X54174035Y-59242171D01*
X54038495Y-59048599D01*
X54038494Y-59048597D01*
X53871402Y-58881506D01*
X53871396Y-58881501D01*
X53685842Y-58751575D01*
X53642217Y-58696998D01*
X53635023Y-58627500D01*
X53666546Y-58565145D01*
X53685842Y-58548425D01*
X53708026Y-58532891D01*
X53871401Y-58418495D01*
X54038495Y-58251401D01*
X54174035Y-58057830D01*
X54273903Y-57843663D01*
X54335063Y-57615408D01*
X54355659Y-57380000D01*
X54335063Y-57144592D01*
X54273903Y-56916337D01*
X54174035Y-56702171D01*
X54038495Y-56508599D01*
X54038494Y-56508597D01*
X53871402Y-56341506D01*
X53871396Y-56341501D01*
X53685842Y-56211575D01*
X53642217Y-56156998D01*
X53635023Y-56087500D01*
X53666546Y-56025145D01*
X53685842Y-56008425D01*
X53708026Y-55992891D01*
X53871401Y-55878495D01*
X54038495Y-55711401D01*
X54174035Y-55517830D01*
X54273903Y-55303663D01*
X54335063Y-55075408D01*
X54355659Y-54840000D01*
X54335063Y-54604592D01*
X54273903Y-54376337D01*
X54174035Y-54162171D01*
X54038495Y-53968599D01*
X54038494Y-53968597D01*
X53871402Y-53801506D01*
X53871396Y-53801501D01*
X53685842Y-53671575D01*
X53642217Y-53616998D01*
X53635023Y-53547500D01*
X53666546Y-53485145D01*
X53685842Y-53468425D01*
X53716760Y-53446776D01*
X53871401Y-53338495D01*
X54038495Y-53171401D01*
X54174035Y-52977830D01*
X54273903Y-52763663D01*
X54335063Y-52535408D01*
X54355659Y-52300000D01*
X54335063Y-52064592D01*
X54318372Y-52002300D01*
X58667470Y-52002300D01*
X59610354Y-52002300D01*
X59571870Y-52068957D01*
X59539500Y-52189765D01*
X59539500Y-52314835D01*
X59571870Y-52435643D01*
X59610354Y-52502300D01*
X58667470Y-52502300D01*
X58697742Y-52693427D01*
X58697742Y-52693430D01*
X58763404Y-52895517D01*
X58859879Y-53084857D01*
X58984772Y-53256759D01*
X58984776Y-53256764D01*
X59135035Y-53407023D01*
X59135040Y-53407027D01*
X59306942Y-53531920D01*
X59496282Y-53628395D01*
X59698371Y-53694057D01*
X59764500Y-53704531D01*
X59764500Y-52656445D01*
X59831157Y-52694930D01*
X59951965Y-52727300D01*
X60077035Y-52727300D01*
X60197843Y-52694930D01*
X60264500Y-52656445D01*
X60264500Y-53704530D01*
X60330626Y-53694057D01*
X60330629Y-53694057D01*
X60532717Y-53628395D01*
X60722057Y-53531920D01*
X60893959Y-53407027D01*
X60893964Y-53407023D01*
X61044227Y-53256760D01*
X61164182Y-53091655D01*
X61219511Y-53048989D01*
X61289125Y-53043010D01*
X61350920Y-53075615D01*
X61364818Y-53091655D01*
X61484772Y-53256760D01*
X61635035Y-53407023D01*
X61635040Y-53407027D01*
X61806942Y-53531920D01*
X61996282Y-53628395D01*
X62198371Y-53694057D01*
X62264500Y-53704531D01*
X62264500Y-52656445D01*
X62331157Y-52694930D01*
X62451965Y-52727300D01*
X62577035Y-52727300D01*
X62697843Y-52694930D01*
X62764500Y-52656445D01*
X62764500Y-53704530D01*
X62830626Y-53694057D01*
X62830629Y-53694057D01*
X63032717Y-53628395D01*
X63222057Y-53531920D01*
X63393959Y-53407027D01*
X63393964Y-53407023D01*
X63544221Y-53256766D01*
X63663871Y-53092081D01*
X63719201Y-53049415D01*
X63788814Y-53043436D01*
X63850610Y-53076041D01*
X63864508Y-53092081D01*
X63984390Y-53257085D01*
X63984394Y-53257090D01*
X64134713Y-53407409D01*
X64306679Y-53532348D01*
X64306681Y-53532349D01*
X64306684Y-53532351D01*
X64496088Y-53628857D01*
X64698257Y-53694546D01*
X64908213Y-53727800D01*
X64908214Y-53727800D01*
X65120786Y-53727800D01*
X65120787Y-53727800D01*
X65330743Y-53694546D01*
X65532912Y-53628857D01*
X65722316Y-53532351D01*
X65893155Y-53408230D01*
X65894284Y-53407410D01*
X65894284Y-53407409D01*
X65894292Y-53407404D01*
X66033104Y-53268591D01*
X66094423Y-53235109D01*
X66164115Y-53240093D01*
X66220049Y-53281964D01*
X66226321Y-53291178D01*
X66229685Y-53296633D01*
X66229686Y-53296634D01*
X66321788Y-53445956D01*
X66445844Y-53570012D01*
X66595166Y-53662114D01*
X66761703Y-53717299D01*
X66864491Y-53727800D01*
X68164508Y-53727799D01*
X68267297Y-53717299D01*
X68433834Y-53662114D01*
X68583156Y-53570012D01*
X68707212Y-53445956D01*
X68799314Y-53296634D01*
X68854499Y-53130097D01*
X68865000Y-53027309D01*
X68864999Y-51477292D01*
X68863351Y-51461163D01*
X68854499Y-51374503D01*
X68854498Y-51374500D01*
X68799314Y-51207966D01*
X68707212Y-51058644D01*
X68583156Y-50934588D01*
X68449802Y-50852335D01*
X68433836Y-50842487D01*
X68433831Y-50842485D01*
X68432362Y-50841998D01*
X68267297Y-50787301D01*
X68267295Y-50787300D01*
X68164510Y-50776800D01*
X66864498Y-50776800D01*
X66864481Y-50776801D01*
X66761703Y-50787300D01*
X66761700Y-50787301D01*
X66595168Y-50842485D01*
X66595163Y-50842487D01*
X66445842Y-50934589D01*
X66321789Y-51058642D01*
X66226321Y-51213421D01*
X66174373Y-51260145D01*
X66105410Y-51271368D01*
X66041328Y-51243524D01*
X66033101Y-51236005D01*
X65894286Y-51097190D01*
X65722320Y-50972251D01*
X65532914Y-50875744D01*
X65532913Y-50875743D01*
X65532912Y-50875743D01*
X65330743Y-50810054D01*
X65330741Y-50810053D01*
X65330740Y-50810053D01*
X65169457Y-50784508D01*
X65120787Y-50776800D01*
X64908213Y-50776800D01*
X64859542Y-50784508D01*
X64698260Y-50810053D01*
X64496085Y-50875744D01*
X64306679Y-50972251D01*
X64134713Y-51097190D01*
X63984394Y-51247509D01*
X63984390Y-51247514D01*
X63864508Y-51412518D01*
X63809178Y-51455184D01*
X63739565Y-51461163D01*
X63677770Y-51428557D01*
X63663872Y-51412518D01*
X63544227Y-51247840D01*
X63544223Y-51247835D01*
X63393964Y-51097576D01*
X63393959Y-51097572D01*
X63222057Y-50972679D01*
X63032715Y-50876203D01*
X62830624Y-50810541D01*
X62764500Y-50800068D01*
X62764500Y-51848154D01*
X62697843Y-51809670D01*
X62577035Y-51777300D01*
X62451965Y-51777300D01*
X62331157Y-51809670D01*
X62264500Y-51848154D01*
X62264500Y-50800068D01*
X62264499Y-50800068D01*
X62198375Y-50810541D01*
X61996284Y-50876203D01*
X61806942Y-50972679D01*
X61635040Y-51097572D01*
X61635035Y-51097576D01*
X61484776Y-51247835D01*
X61484772Y-51247840D01*
X61364818Y-51412944D01*
X61309488Y-51455610D01*
X61239875Y-51461589D01*
X61178080Y-51428984D01*
X61164182Y-51412944D01*
X61044227Y-51247840D01*
X61044223Y-51247835D01*
X60893964Y-51097576D01*
X60893959Y-51097572D01*
X60722057Y-50972679D01*
X60532715Y-50876203D01*
X60330624Y-50810541D01*
X60264500Y-50800068D01*
X60264500Y-51848154D01*
X60197843Y-51809670D01*
X60077035Y-51777300D01*
X59951965Y-51777300D01*
X59831157Y-51809670D01*
X59764500Y-51848154D01*
X59764500Y-50800068D01*
X59764499Y-50800068D01*
X59698375Y-50810541D01*
X59496284Y-50876203D01*
X59306942Y-50972679D01*
X59135040Y-51097572D01*
X59135035Y-51097576D01*
X58984776Y-51247835D01*
X58984772Y-51247840D01*
X58859879Y-51419742D01*
X58763404Y-51609082D01*
X58697742Y-51811169D01*
X58697742Y-51811172D01*
X58667470Y-52002300D01*
X54318372Y-52002300D01*
X54273903Y-51836337D01*
X54174035Y-51622171D01*
X54165444Y-51609902D01*
X54038496Y-51428600D01*
X53984396Y-51374500D01*
X53916567Y-51306671D01*
X53883084Y-51245351D01*
X53888068Y-51175659D01*
X53929939Y-51119725D01*
X53960915Y-51102810D01*
X54092331Y-51053796D01*
X54207546Y-50967546D01*
X54293796Y-50852331D01*
X54344091Y-50717483D01*
X54350500Y-50657873D01*
X54350499Y-48862128D01*
X54344091Y-48802517D01*
X54293796Y-48667669D01*
X54293795Y-48667668D01*
X54293793Y-48667664D01*
X54207547Y-48552455D01*
X54207544Y-48552452D01*
X54092335Y-48466206D01*
X54092328Y-48466202D01*
X53960917Y-48417189D01*
X53904983Y-48375318D01*
X53880566Y-48309853D01*
X53895418Y-48241580D01*
X53916563Y-48213332D01*
X54038495Y-48091401D01*
X54174035Y-47897830D01*
X54273903Y-47683663D01*
X54335063Y-47455408D01*
X54355659Y-47220000D01*
X54335063Y-46984592D01*
X54273903Y-46756337D01*
X54174035Y-46542171D01*
X54038495Y-46348599D01*
X54038494Y-46348597D01*
X53871402Y-46181506D01*
X53871396Y-46181501D01*
X53685842Y-46051575D01*
X53642217Y-45996998D01*
X53635023Y-45927500D01*
X53666546Y-45865145D01*
X53685842Y-45848425D01*
X53708026Y-45832891D01*
X53871401Y-45718495D01*
X54038495Y-45551401D01*
X54174035Y-45357830D01*
X54273903Y-45143663D01*
X54335063Y-44915408D01*
X54355659Y-44680000D01*
X54353682Y-44657409D01*
X54344083Y-44547686D01*
X54335063Y-44444592D01*
X54273903Y-44216337D01*
X54174035Y-44002171D01*
X54157356Y-43978350D01*
X54038494Y-43808597D01*
X53871402Y-43641506D01*
X53871396Y-43641501D01*
X53685842Y-43511575D01*
X53642217Y-43456998D01*
X53635023Y-43387500D01*
X53666546Y-43325145D01*
X53685842Y-43308425D01*
X53764497Y-43253350D01*
X53765997Y-43252300D01*
X58667470Y-43252300D01*
X59610354Y-43252300D01*
X59571870Y-43318957D01*
X59539500Y-43439765D01*
X59539500Y-43564835D01*
X59571870Y-43685643D01*
X59610354Y-43752300D01*
X58667470Y-43752300D01*
X58697742Y-43943427D01*
X58697742Y-43943430D01*
X58763404Y-44145517D01*
X58859879Y-44334857D01*
X58984772Y-44506759D01*
X58984776Y-44506764D01*
X59135035Y-44657023D01*
X59135040Y-44657027D01*
X59306942Y-44781920D01*
X59496282Y-44878395D01*
X59698371Y-44944057D01*
X59764500Y-44954531D01*
X59764500Y-43906445D01*
X59831157Y-43944930D01*
X59951965Y-43977300D01*
X60077035Y-43977300D01*
X60197843Y-43944930D01*
X60264500Y-43906445D01*
X60264500Y-44954530D01*
X60330626Y-44944057D01*
X60330629Y-44944057D01*
X60532717Y-44878395D01*
X60722057Y-44781920D01*
X60893959Y-44657027D01*
X60893964Y-44657023D01*
X61044227Y-44506760D01*
X61164182Y-44341655D01*
X61219511Y-44298989D01*
X61289125Y-44293010D01*
X61350920Y-44325615D01*
X61364818Y-44341655D01*
X61484772Y-44506760D01*
X61635035Y-44657023D01*
X61635040Y-44657027D01*
X61806942Y-44781920D01*
X61996282Y-44878395D01*
X62198371Y-44944057D01*
X62264500Y-44954531D01*
X62264500Y-43906445D01*
X62331157Y-43944930D01*
X62451965Y-43977300D01*
X62577035Y-43977300D01*
X62697843Y-43944930D01*
X62764500Y-43906445D01*
X62764500Y-44954530D01*
X62830626Y-44944057D01*
X62830629Y-44944057D01*
X63032717Y-44878395D01*
X63222057Y-44781920D01*
X63393959Y-44657027D01*
X63393964Y-44657023D01*
X63544221Y-44506766D01*
X63663871Y-44342081D01*
X63719201Y-44299415D01*
X63788814Y-44293436D01*
X63850610Y-44326041D01*
X63864508Y-44342081D01*
X63984390Y-44507085D01*
X63984394Y-44507090D01*
X64134713Y-44657409D01*
X64306679Y-44782348D01*
X64306681Y-44782349D01*
X64306684Y-44782351D01*
X64496088Y-44878857D01*
X64698257Y-44944546D01*
X64908213Y-44977800D01*
X64908214Y-44977800D01*
X65120786Y-44977800D01*
X65120787Y-44977800D01*
X65330743Y-44944546D01*
X65532912Y-44878857D01*
X65722316Y-44782351D01*
X65863191Y-44680000D01*
X65894284Y-44657410D01*
X65894284Y-44657409D01*
X65894292Y-44657404D01*
X66033104Y-44518591D01*
X66094423Y-44485109D01*
X66164115Y-44490093D01*
X66220049Y-44531964D01*
X66226321Y-44541178D01*
X66229685Y-44546633D01*
X66229686Y-44546634D01*
X66321788Y-44695956D01*
X66445844Y-44820012D01*
X66595166Y-44912114D01*
X66761703Y-44967299D01*
X66864491Y-44977800D01*
X68164508Y-44977799D01*
X68267297Y-44967299D01*
X68433834Y-44912114D01*
X68583156Y-44820012D01*
X68707212Y-44695956D01*
X68799314Y-44546634D01*
X68854499Y-44380097D01*
X68865000Y-44277309D01*
X68864999Y-42727292D01*
X68863351Y-42711163D01*
X68854499Y-42624503D01*
X68854498Y-42624500D01*
X68816604Y-42510145D01*
X68799314Y-42457966D01*
X68707212Y-42308644D01*
X68583156Y-42184588D01*
X68435538Y-42093537D01*
X68433836Y-42092487D01*
X68433831Y-42092485D01*
X68432362Y-42091998D01*
X68267297Y-42037301D01*
X68267295Y-42037300D01*
X68164510Y-42026800D01*
X66864498Y-42026800D01*
X66864481Y-42026801D01*
X66761703Y-42037300D01*
X66761700Y-42037301D01*
X66595168Y-42092485D01*
X66595163Y-42092487D01*
X66445842Y-42184589D01*
X66321789Y-42308642D01*
X66226321Y-42463421D01*
X66174373Y-42510145D01*
X66105410Y-42521368D01*
X66041328Y-42493524D01*
X66033101Y-42486005D01*
X65894286Y-42347190D01*
X65722320Y-42222251D01*
X65532914Y-42125744D01*
X65532913Y-42125743D01*
X65532912Y-42125743D01*
X65330743Y-42060054D01*
X65330741Y-42060053D01*
X65330740Y-42060053D01*
X65169457Y-42034508D01*
X65120787Y-42026800D01*
X64908213Y-42026800D01*
X64859542Y-42034508D01*
X64698260Y-42060053D01*
X64496085Y-42125744D01*
X64306679Y-42222251D01*
X64134713Y-42347190D01*
X63984394Y-42497509D01*
X63984390Y-42497514D01*
X63864508Y-42662518D01*
X63809178Y-42705184D01*
X63739565Y-42711163D01*
X63677770Y-42678557D01*
X63663872Y-42662518D01*
X63544227Y-42497840D01*
X63544223Y-42497835D01*
X63393964Y-42347576D01*
X63393959Y-42347572D01*
X63222057Y-42222679D01*
X63032715Y-42126203D01*
X62830624Y-42060541D01*
X62764500Y-42050068D01*
X62764500Y-43098154D01*
X62697843Y-43059670D01*
X62577035Y-43027300D01*
X62451965Y-43027300D01*
X62331157Y-43059670D01*
X62264500Y-43098154D01*
X62264500Y-42050068D01*
X62264499Y-42050068D01*
X62198375Y-42060541D01*
X61996284Y-42126203D01*
X61806942Y-42222679D01*
X61635040Y-42347572D01*
X61635035Y-42347576D01*
X61484776Y-42497835D01*
X61484772Y-42497840D01*
X61364818Y-42662944D01*
X61309488Y-42705610D01*
X61239875Y-42711589D01*
X61178080Y-42678984D01*
X61164182Y-42662944D01*
X61044227Y-42497840D01*
X61044223Y-42497835D01*
X60893964Y-42347576D01*
X60893959Y-42347572D01*
X60722057Y-42222679D01*
X60532715Y-42126203D01*
X60330624Y-42060541D01*
X60264500Y-42050068D01*
X60264500Y-43098154D01*
X60197843Y-43059670D01*
X60077035Y-43027300D01*
X59951965Y-43027300D01*
X59831157Y-43059670D01*
X59764500Y-43098154D01*
X59764500Y-42050068D01*
X59764499Y-42050068D01*
X59698375Y-42060541D01*
X59496284Y-42126203D01*
X59306942Y-42222679D01*
X59135040Y-42347572D01*
X59135035Y-42347576D01*
X58984776Y-42497835D01*
X58984772Y-42497840D01*
X58859879Y-42669742D01*
X58763404Y-42859082D01*
X58697742Y-43061169D01*
X58697742Y-43061172D01*
X58667470Y-43252300D01*
X53765997Y-43252300D01*
X53871401Y-43178495D01*
X54038495Y-43011401D01*
X54174035Y-42817830D01*
X54273903Y-42603663D01*
X54335063Y-42375408D01*
X54355659Y-42140000D01*
X54335063Y-41904592D01*
X54273903Y-41676337D01*
X54174035Y-41462171D01*
X54038495Y-41268599D01*
X54038494Y-41268597D01*
X53871402Y-41101506D01*
X53871396Y-41101501D01*
X53685842Y-40971575D01*
X53642217Y-40916998D01*
X53635023Y-40847500D01*
X53666546Y-40785145D01*
X53685842Y-40768425D01*
X53708026Y-40752891D01*
X53871401Y-40638495D01*
X54038495Y-40471401D01*
X54174035Y-40277830D01*
X54273903Y-40063663D01*
X54335063Y-39835408D01*
X54355659Y-39600000D01*
X54335063Y-39364592D01*
X54273903Y-39136337D01*
X54174035Y-38922171D01*
X54038495Y-38728599D01*
X53916179Y-38606283D01*
X53882696Y-38544963D01*
X53887680Y-38475271D01*
X53929551Y-38419337D01*
X53960529Y-38402422D01*
X54092086Y-38353354D01*
X54092093Y-38353350D01*
X54207187Y-38267190D01*
X54207190Y-38267187D01*
X54293350Y-38152093D01*
X54293354Y-38152086D01*
X54343596Y-38017379D01*
X54343598Y-38017372D01*
X54349999Y-37957844D01*
X54350000Y-37957827D01*
X54350000Y-37310000D01*
X53444560Y-37310000D01*
X53475245Y-37256853D01*
X53510000Y-37127143D01*
X53510000Y-36992857D01*
X53475245Y-36863147D01*
X53444560Y-36810000D01*
X54350000Y-36810000D01*
X54350000Y-36162172D01*
X54349999Y-36162155D01*
X54343598Y-36102627D01*
X54343596Y-36102620D01*
X54293354Y-35967913D01*
X54293350Y-35967906D01*
X54207190Y-35852812D01*
X54207187Y-35852809D01*
X54092093Y-35766649D01*
X54092088Y-35766646D01*
X53960528Y-35717577D01*
X53904595Y-35675705D01*
X53880178Y-35610241D01*
X53895030Y-35541968D01*
X53916175Y-35513720D01*
X54038495Y-35391401D01*
X54174035Y-35197830D01*
X54273903Y-34983663D01*
X54335063Y-34755408D01*
X54355659Y-34520000D01*
X54335063Y-34284592D01*
X54273903Y-34056337D01*
X54174035Y-33842171D01*
X54155163Y-33815218D01*
X54038494Y-33648597D01*
X53871402Y-33481506D01*
X53871396Y-33481501D01*
X53685842Y-33351575D01*
X53642217Y-33296998D01*
X53635023Y-33227500D01*
X53666546Y-33165145D01*
X53685842Y-33148425D01*
X53869514Y-33019816D01*
X53871401Y-33018495D01*
X54038495Y-32851401D01*
X54086127Y-32783376D01*
X54140704Y-32739751D01*
X54187701Y-32730500D01*
X56639970Y-32730500D01*
X56707009Y-32750185D01*
X56727651Y-32766819D01*
X57962643Y-34001810D01*
X59191558Y-35230725D01*
X59191559Y-35230726D01*
X59283783Y-35322950D01*
X59296095Y-35335262D01*
X59419008Y-35417390D01*
X59419021Y-35417397D01*
X59511327Y-35455631D01*
X59555597Y-35473968D01*
X59555601Y-35473968D01*
X59555602Y-35473969D01*
X59700589Y-35502810D01*
X59700592Y-35502810D01*
X61241519Y-35502810D01*
X61308558Y-35522495D01*
X61352003Y-35570513D01*
X61359450Y-35585129D01*
X61484390Y-35757096D01*
X61634713Y-35907419D01*
X61806679Y-36032358D01*
X61806681Y-36032359D01*
X61806684Y-36032361D01*
X61996088Y-36128867D01*
X62198257Y-36194556D01*
X62408213Y-36227810D01*
X62408214Y-36227810D01*
X62620786Y-36227810D01*
X62620787Y-36227810D01*
X62830743Y-36194556D01*
X63032912Y-36128867D01*
X63222316Y-36032361D01*
X63311022Y-35967913D01*
X63394286Y-35907419D01*
X63394288Y-35907416D01*
X63394292Y-35907414D01*
X63544604Y-35757102D01*
X63664183Y-35592514D01*
X63719511Y-35549850D01*
X63789124Y-35543871D01*
X63850920Y-35576476D01*
X63864813Y-35592509D01*
X63955680Y-35717577D01*
X63984396Y-35757102D01*
X64134713Y-35907419D01*
X64306679Y-36032358D01*
X64306681Y-36032359D01*
X64306684Y-36032361D01*
X64496088Y-36128867D01*
X64698257Y-36194556D01*
X64908213Y-36227810D01*
X64908214Y-36227810D01*
X65120786Y-36227810D01*
X65120787Y-36227810D01*
X65330743Y-36194556D01*
X65532912Y-36128867D01*
X65722316Y-36032361D01*
X65839867Y-35946956D01*
X65894284Y-35907420D01*
X65894284Y-35907419D01*
X65894292Y-35907414D01*
X66033467Y-35768238D01*
X66094786Y-35734756D01*
X66164478Y-35739740D01*
X66220412Y-35781611D01*
X66226684Y-35790825D01*
X66322184Y-35945655D01*
X66446154Y-36069625D01*
X66595375Y-36161666D01*
X66595380Y-36161668D01*
X66761802Y-36216815D01*
X66761809Y-36216816D01*
X66864519Y-36227309D01*
X67264499Y-36227309D01*
X67264500Y-36227308D01*
X67264500Y-35156455D01*
X67331157Y-35194940D01*
X67451965Y-35227310D01*
X67577035Y-35227310D01*
X67697843Y-35194940D01*
X67764500Y-35156455D01*
X67764500Y-36227309D01*
X68164472Y-36227309D01*
X68164486Y-36227308D01*
X68267197Y-36216815D01*
X68433619Y-36161668D01*
X68433624Y-36161666D01*
X68582845Y-36069625D01*
X68706815Y-35945655D01*
X68798856Y-35796434D01*
X68798858Y-35796429D01*
X68854005Y-35630007D01*
X68854006Y-35630000D01*
X68864499Y-35527296D01*
X68864500Y-35527283D01*
X68864500Y-35002310D01*
X67918646Y-35002310D01*
X67957130Y-34935653D01*
X67989500Y-34814845D01*
X67989500Y-34689775D01*
X67957130Y-34568967D01*
X67918646Y-34502310D01*
X68864499Y-34502310D01*
X68864499Y-33977338D01*
X68864498Y-33977323D01*
X68854005Y-33874612D01*
X68798858Y-33708190D01*
X68798856Y-33708185D01*
X68706815Y-33558964D01*
X68582845Y-33434994D01*
X68433624Y-33342953D01*
X68433619Y-33342951D01*
X68267197Y-33287804D01*
X68267190Y-33287803D01*
X68164486Y-33277310D01*
X67764500Y-33277310D01*
X67764500Y-34348164D01*
X67697843Y-34309680D01*
X67577035Y-34277310D01*
X67451965Y-34277310D01*
X67331157Y-34309680D01*
X67264500Y-34348164D01*
X67264500Y-33277310D01*
X66864528Y-33277310D01*
X66864512Y-33277311D01*
X66761802Y-33287804D01*
X66595380Y-33342951D01*
X66595375Y-33342953D01*
X66446154Y-33434994D01*
X66322183Y-33558965D01*
X66322180Y-33558969D01*
X66226683Y-33713794D01*
X66174735Y-33760519D01*
X66105773Y-33771740D01*
X66041691Y-33743897D01*
X66033464Y-33736378D01*
X65894286Y-33597200D01*
X65722320Y-33472261D01*
X65532914Y-33375754D01*
X65532913Y-33375753D01*
X65532912Y-33375753D01*
X65330743Y-33310064D01*
X65330741Y-33310063D01*
X65330740Y-33310063D01*
X65169457Y-33284518D01*
X65120787Y-33276810D01*
X64908213Y-33276810D01*
X64859542Y-33284518D01*
X64698260Y-33310063D01*
X64496085Y-33375754D01*
X64306679Y-33472261D01*
X64134713Y-33597200D01*
X63984394Y-33747519D01*
X63984390Y-33747524D01*
X63864818Y-33912103D01*
X63809489Y-33954769D01*
X63739875Y-33960748D01*
X63678080Y-33928143D01*
X63664182Y-33912103D01*
X63544609Y-33747524D01*
X63544605Y-33747519D01*
X63394286Y-33597200D01*
X63222320Y-33472261D01*
X63032914Y-33375754D01*
X63032913Y-33375753D01*
X63032912Y-33375753D01*
X62830743Y-33310064D01*
X62830741Y-33310063D01*
X62830740Y-33310063D01*
X62669457Y-33284518D01*
X62620787Y-33276810D01*
X62408213Y-33276810D01*
X62359542Y-33284518D01*
X62198260Y-33310063D01*
X61996085Y-33375754D01*
X61806679Y-33472261D01*
X61634713Y-33597200D01*
X61484390Y-33747523D01*
X61359450Y-33919490D01*
X61352003Y-33934107D01*
X61304027Y-33984902D01*
X61241519Y-34001810D01*
X60136739Y-34001810D01*
X60069700Y-33982125D01*
X60049058Y-33965491D01*
X57480621Y-31397052D01*
X57480614Y-31397046D01*
X57389016Y-31335843D01*
X57389015Y-31335843D01*
X57357700Y-31314919D01*
X57357688Y-31314912D01*
X57221117Y-31258343D01*
X57221107Y-31258340D01*
X57076120Y-31229500D01*
X57076118Y-31229500D01*
X54187701Y-31229500D01*
X54120662Y-31209815D01*
X54086126Y-31176623D01*
X54038493Y-31108596D01*
X53992078Y-31062181D01*
X53958593Y-31000858D01*
X53963577Y-30931166D01*
X54005449Y-30875233D01*
X54070913Y-30850816D01*
X54079759Y-30850500D01*
X65073920Y-30850500D01*
X65171462Y-30831096D01*
X65218913Y-30821658D01*
X65355495Y-30765084D01*
X65439563Y-30708912D01*
X65478416Y-30682952D01*
X68097452Y-28063916D01*
X68146686Y-27990229D01*
X68179584Y-27940995D01*
X68236158Y-27804413D01*
X68265000Y-27659418D01*
X68265000Y-26264220D01*
X68284685Y-26197181D01*
X68316114Y-26163902D01*
X68394292Y-26107104D01*
X68544604Y-25956792D01*
X68544606Y-25956788D01*
X68544609Y-25956786D01*
X68669548Y-25784820D01*
X68669547Y-25784820D01*
X68669551Y-25784816D01*
X68766057Y-25595412D01*
X68831746Y-25393243D01*
X68865000Y-25183287D01*
X68865000Y-24720713D01*
X68831746Y-24510757D01*
X68766057Y-24308588D01*
X68669551Y-24119184D01*
X68669549Y-24119181D01*
X68669548Y-24119179D01*
X68544609Y-23947213D01*
X68394286Y-23796890D01*
X68222320Y-23671951D01*
X68032914Y-23575444D01*
X68032913Y-23575443D01*
X68032912Y-23575443D01*
X67830743Y-23509754D01*
X67830741Y-23509753D01*
X67830740Y-23509753D01*
X67669457Y-23484208D01*
X67620787Y-23476500D01*
X67408213Y-23476500D01*
X67359542Y-23484208D01*
X67198260Y-23509753D01*
X66996085Y-23575444D01*
X66806679Y-23671951D01*
X66634713Y-23796890D01*
X66484394Y-23947209D01*
X66484390Y-23947214D01*
X66364818Y-24111793D01*
X66309489Y-24154459D01*
X66239875Y-24160438D01*
X66178080Y-24127833D01*
X66164182Y-24111793D01*
X66044609Y-23947214D01*
X66044605Y-23947209D01*
X65894286Y-23796890D01*
X65722320Y-23671951D01*
X65532914Y-23575444D01*
X65532913Y-23575443D01*
X65532912Y-23575443D01*
X65330743Y-23509754D01*
X65330741Y-23509753D01*
X65330740Y-23509753D01*
X65169457Y-23484208D01*
X65120787Y-23476500D01*
X64908213Y-23476500D01*
X64704861Y-23508707D01*
X64635568Y-23499752D01*
X64597783Y-23473915D01*
X63367921Y-22244052D01*
X63367914Y-22244046D01*
X63294229Y-22194812D01*
X63294229Y-22194813D01*
X63244991Y-22161913D01*
X63108417Y-22105343D01*
X63108407Y-22105340D01*
X62963420Y-22076500D01*
X62963418Y-22076500D01*
X52679132Y-22076500D01*
X52679130Y-22076500D01*
X52534142Y-22105340D01*
X52534136Y-22105342D01*
X52397558Y-22161914D01*
X52397546Y-22161921D01*
X52348319Y-22194813D01*
X52274638Y-22244044D01*
X52274630Y-22244050D01*
X46105501Y-28413181D01*
X46044178Y-28446666D01*
X46017820Y-28449500D01*
X44326080Y-28449500D01*
X44181092Y-28478340D01*
X44181082Y-28478343D01*
X44044511Y-28534912D01*
X44044498Y-28534919D01*
X43921584Y-28617048D01*
X43921580Y-28617051D01*
X42885451Y-29653181D01*
X42824128Y-29686666D01*
X42797770Y-29689500D01*
X42615039Y-29689500D01*
X42480750Y-29704630D01*
X42480745Y-29704631D01*
X42310476Y-29764211D01*
X42157737Y-29860184D01*
X42030184Y-29987737D01*
X41934211Y-30140476D01*
X41874631Y-30310745D01*
X41874630Y-30310750D01*
X41859500Y-30445039D01*
X21456000Y-30445039D01*
X21456000Y-27315520D01*
X21475685Y-27248481D01*
X21507114Y-27215202D01*
X21585292Y-27158404D01*
X21735604Y-27008092D01*
X21855491Y-26843079D01*
X21910820Y-26800415D01*
X21980433Y-26794436D01*
X22042229Y-26827041D01*
X22056127Y-26843081D01*
X22175772Y-27007759D01*
X22175776Y-27007764D01*
X22326035Y-27158023D01*
X22326040Y-27158027D01*
X22497942Y-27282920D01*
X22687282Y-27379395D01*
X22889371Y-27445057D01*
X22955500Y-27455531D01*
X22955500Y-26407445D01*
X23022157Y-26445930D01*
X23142965Y-26478300D01*
X23268035Y-26478300D01*
X23388843Y-26445930D01*
X23455500Y-26407445D01*
X23455500Y-27455530D01*
X23521626Y-27445057D01*
X23521629Y-27445057D01*
X23723717Y-27379395D01*
X23913057Y-27282920D01*
X24084959Y-27158027D01*
X24084964Y-27158023D01*
X24235221Y-27007766D01*
X24354871Y-26843081D01*
X24410201Y-26800415D01*
X24479814Y-26794436D01*
X24541610Y-26827041D01*
X24555508Y-26843081D01*
X24675390Y-27008085D01*
X24675394Y-27008090D01*
X24825713Y-27158409D01*
X24997679Y-27283348D01*
X24997681Y-27283349D01*
X24997684Y-27283351D01*
X25187088Y-27379857D01*
X25389257Y-27445546D01*
X25599213Y-27478800D01*
X25599214Y-27478800D01*
X25811786Y-27478800D01*
X25811787Y-27478800D01*
X26021743Y-27445546D01*
X26223912Y-27379857D01*
X26413316Y-27283351D01*
X26585292Y-27158404D01*
X26724104Y-27019591D01*
X26785423Y-26986109D01*
X26855115Y-26991093D01*
X26911049Y-27032964D01*
X26917321Y-27042178D01*
X26920685Y-27047633D01*
X26920686Y-27047634D01*
X27012788Y-27196956D01*
X27136844Y-27321012D01*
X27286166Y-27413114D01*
X27452703Y-27468299D01*
X27555491Y-27478800D01*
X28855508Y-27478799D01*
X28958297Y-27468299D01*
X29124834Y-27413114D01*
X29274156Y-27321012D01*
X29398212Y-27196956D01*
X29490314Y-27047634D01*
X29545499Y-26881097D01*
X29556000Y-26778309D01*
X29555999Y-25228292D01*
X29554351Y-25212163D01*
X29545499Y-25125503D01*
X29545498Y-25125500D01*
X29507604Y-25011145D01*
X29490314Y-24958966D01*
X29398212Y-24809644D01*
X29274156Y-24685588D01*
X29124834Y-24593486D01*
X28958297Y-24538301D01*
X28958295Y-24538300D01*
X28855510Y-24527800D01*
X27555498Y-24527800D01*
X27555481Y-24527801D01*
X27452703Y-24538300D01*
X27452700Y-24538301D01*
X27286168Y-24593485D01*
X27286163Y-24593487D01*
X27136842Y-24685589D01*
X27012789Y-24809642D01*
X26917321Y-24964421D01*
X26865373Y-25011145D01*
X26796410Y-25022368D01*
X26732328Y-24994524D01*
X26724101Y-24987005D01*
X26585286Y-24848190D01*
X26413320Y-24723251D01*
X26223914Y-24626744D01*
X26223913Y-24626743D01*
X26223912Y-24626743D01*
X26021743Y-24561054D01*
X26021741Y-24561053D01*
X26021740Y-24561053D01*
X25860457Y-24535508D01*
X25811787Y-24527800D01*
X25599213Y-24527800D01*
X25550542Y-24535508D01*
X25389260Y-24561053D01*
X25187085Y-24626744D01*
X24997679Y-24723251D01*
X24825713Y-24848190D01*
X24675394Y-24998509D01*
X24675390Y-24998514D01*
X24555508Y-25163518D01*
X24500178Y-25206184D01*
X24430565Y-25212163D01*
X24368770Y-25179557D01*
X24354872Y-25163518D01*
X24235227Y-24998840D01*
X24235223Y-24998835D01*
X24084964Y-24848576D01*
X24084959Y-24848572D01*
X23913057Y-24723679D01*
X23723715Y-24627203D01*
X23521624Y-24561541D01*
X23455500Y-24551068D01*
X23455500Y-25599154D01*
X23388843Y-25560670D01*
X23268035Y-25528300D01*
X23142965Y-25528300D01*
X23022157Y-25560670D01*
X22955500Y-25599154D01*
X22955500Y-24551068D01*
X22955499Y-24551068D01*
X22889375Y-24561541D01*
X22687284Y-24627203D01*
X22497942Y-24723679D01*
X22326040Y-24848572D01*
X22326035Y-24848576D01*
X22175776Y-24998835D01*
X22175772Y-24998840D01*
X22056127Y-25163518D01*
X22000797Y-25206184D01*
X21931184Y-25212163D01*
X21869389Y-25179557D01*
X21855491Y-25163518D01*
X21735609Y-24998514D01*
X21735605Y-24998509D01*
X21585286Y-24848190D01*
X21413320Y-24723251D01*
X21223914Y-24626744D01*
X21223913Y-24626743D01*
X21223912Y-24626743D01*
X21021743Y-24561054D01*
X21021741Y-24561053D01*
X21021740Y-24561053D01*
X20860457Y-24535508D01*
X20811787Y-24527800D01*
X20599213Y-24527800D01*
X20550542Y-24535508D01*
X20389260Y-24561053D01*
X20187085Y-24626744D01*
X19997679Y-24723251D01*
X19825713Y-24848190D01*
X19675390Y-24998513D01*
X19550451Y-25170479D01*
X19453944Y-25359885D01*
X19388253Y-25562060D01*
X19359506Y-25743561D01*
X19355000Y-25772013D01*
X17107698Y-25772013D01*
X17106000Y-18607351D01*
X17106265Y-18599256D01*
X17122575Y-18350402D01*
X17124690Y-18334348D01*
X17172545Y-18093762D01*
X17176743Y-18078097D01*
X17238371Y-17896547D01*
X17255593Y-17845812D01*
X17261791Y-17830847D01*
X17370290Y-17610833D01*
X17378393Y-17596798D01*
X17514682Y-17392827D01*
X17524539Y-17379981D01*
X17686286Y-17195544D01*
X17697744Y-17184086D01*
X17882181Y-17022339D01*
X17895027Y-17012482D01*
X18098998Y-16876193D01*
X18113033Y-16868090D01*
X18333047Y-16759591D01*
X18348012Y-16753393D01*
X18575153Y-16676289D01*
X18580297Y-16674543D01*
X18595964Y-16670345D01*
X18836548Y-16622490D01*
X18852602Y-16620375D01*
X19101457Y-16604065D01*
X19109567Y-16603800D01*
X19171392Y-16603800D01*
X23125011Y-16603800D01*
X23192050Y-16623485D01*
G37*
%TD.AperFunction*%
%TD*%
M02*
